<?xml version="1.0" encoding="UTF-8" standalone="no"?>
<!-- Page 1 -->

<svg
   xmlns:dc="http://purl.org/dc/elements/1.1/"
   xmlns:cc="http://creativecommons.org/ns#"
   xmlns:rdf="http://www.w3.org/1999/02/22-rdf-syntax-ns#"
   xmlns:svg="http://www.w3.org/2000/svg"
   xmlns="http://www.w3.org/2000/svg"
   xmlns:sodipodi="http://sodipodi.sourceforge.net/DTD/sodipodi-0.dtd"
   xmlns:inkscape="http://www.inkscape.org/namespaces/inkscape"
   x="0"
   y="0"
   width="300"
   height="157"
   viewBox="0 0 300 157"
   version="1.1"
   style="display: block;margin-left: auto;margin-right: auto;"
   id="svg156"
   sodipodi:docname="Logo TH Rosenheim.svg"
   inkscape:version="0.92.2 (5c3e80d, 2017-08-06)">
  <metadata
     id="metadata160">
    <rdf:RDF>
      <cc:Work
         rdf:about="">
        <dc:format>image/svg+xml</dc:format>
        <dc:type
           rdf:resource="http://purl.org/dc/dcmitype/StillImage" />
      </cc:Work>
    </rdf:RDF>
  </metadata>
  <sodipodi:namedview
     pagecolor="#ffffff"
     bordercolor="#666666"
     borderopacity="1"
     objecttolerance="10"
     gridtolerance="10"
     guidetolerance="10"
     inkscape:pageopacity="0"
     inkscape:pageshadow="2"
     inkscape:window-width="1920"
     inkscape:window-height="1017"
     id="namedview158"
     showgrid="false"
     inkscape:zoom="3.2998316"
     inkscape:cx="158.20763"
     inkscape:cy="73.734137"
     inkscape:window-x="-8"
     inkscape:window-y="-8"
     inkscape:window-maximized="1"
     inkscape:current-layer="svg156" />
  <defs
     id="defs4">
    <style
       type="text/css"
       id="style2"><![CDATA[

.g0_1{
fill: #231F20;
}
.g1_1{
fill: #F7931D;
}

]]></style>
  </defs>
  <path
     d="M 29.395439,28.789348 V 127.30152 H 271.5137 V 28.789348 Z"
     id="path6"
     inkscape:connector-curvature="0"
     style="fill:#ffffff;stroke:none;stroke-width:0.71162021" />
  <path
     d="M39.1,112.1h4.4v.4H41.6v5.1H41v-5.1H39.1Z"
     class="g0_1"
     id="path8" />
  <path
     d="M45.9,115.3c0,-.7,-.5,-1.4,-1.2,-1.4c-.8,0,-1.3,.7,-1.4,1.4Zm-2.6,.4c0,.7,.4,1.6,1.4,1.6c.7,0,1.1,-.4,1.2,-1h.5c-.2,.9,-.7,1.4,-1.7,1.4c-1.3,0,-1.8,-1,-1.8,-2.1c0,-1.1,.5,-2.1,1.8,-2.1c1.2,0,1.7,1.1,1.7,2.2Z"
     class="g0_1"
     id="path10" />
  <path
     d="M49.9,114.9c-.2,-.6,-.5,-1,-1.2,-1c-.9,0,-1.4,.9,-1.4,1.7c0,.8,.5,1.7,1.4,1.7c.6,0,1.1,-.5,1.2,-1.1h.5c-.1,.9,-.8,1.5,-1.7,1.5c-1.2,0,-1.8,-1,-1.8,-2.1c0,-1.1,.6,-2.1,1.8,-2.1c.9,0,1.5,.4,1.7,1.4Z"
     class="g0_1"
     id="path12" />
  <path
     d="M51.1,112.1h.4v2.2h.1c.1,-.5,.7,-.8,1.2,-.8c1.2,0,1.5,.6,1.5,1.5v2.6h-.5v-2.5c0,-.7,-.2,-1.2,-1,-1.2c-.8,0,-1.2,.6,-1.3,1.4v2.3h-.4Z"
     class="g0_1"
     id="path14" />
  <path
     d="M55.2,113.6h.5v.7c.2,-.5,.7,-.8,1.3,-.8c1.1,0,1.4,.6,1.4,1.5v2.6h-.5v-2.5c0,-.7,-.2,-1.2,-1,-1.2c-.7,0,-1.2,.6,-1.2,1.4v2.3h-.5Z"
     class="g0_1"
     id="path16" />
  <path
     d="M59.4,113.6h.4v4h-.4v-4Zm0,-1.5h.4v.8h-.4v-.8Z"
     class="g0_1"
     id="path18" />
  <path
     d="M63.6,114.9c-.1,-.6,-.5,-1,-1.1,-1c-1,0,-1.4,.9,-1.4,1.7c0,.8,.4,1.7,1.4,1.7c.6,0,1.1,-.5,1.1,-1.1h.5c-.1,.9,-.8,1.5,-1.6,1.5c-1.3,0,-1.9,-1,-1.9,-2.1c0,-1.1,.6,-2.1,1.9,-2.1c.8,0,1.5,.4,1.6,1.4Z"
     class="g0_1"
     id="path20" />
  <path
     d="M67.3,115.4v0c0,.1,-.3,.2,-.4,.2c-.8,.1,-1.8,.1,-1.8,.9c0,.5,.4,.8,.8,.8c.8,0,1.4,-.5,1.4,-1.3Zm-2.6,-.6c.1,-.9,.7,-1.3,1.6,-1.3c.8,0,1.5,.2,1.5,1.3v2.1c0,.2,.1,.3,.3,.3q.1,0,.2,0v.4q-.2,0,-.4,0c-.5,0,-.5,-.3,-.5,-.7c-.4,.5,-.7,.8,-1.5,.8c-.7,0,-1.3,-.4,-1.3,-1.2c0,-1.1,1.1,-1.1,2.1,-1.2c.4,-.1,.6,-.1,.6,-.6c0,-.6,-.4,-.8,-1,-.8c-.6,0,-1.1,.3,-1.1,.9Z"
     class="g0_1"
     id="path22" />
  <path
     d="M68.8,112.1h.5v5.5h-.5v-5.5Z"
     class="g0_1"
     id="path24" />
  <path
     d="M72.2,112.1h.5v3.4c0,1.3,.6,1.8,1.7,1.8c1,0,1.6,-.5,1.6,-1.8v-3.4h.5v3.5c0,1.1,-.6,2.1,-2.1,2.1c-1.6,0,-2.2,-1,-2.2,-2.1Z"
     class="g0_1"
     id="path26" />
  <path
     d="M77.5,113.6h.4v.7H78c.1,-.5,.7,-.8,1.2,-.8c1.1,0,1.5,.6,1.5,1.5v2.6h-.5v-2.5c0,-.7,-.2,-1.2,-1,-1.2c-.8,0,-1.2,.6,-1.3,1.4v2.3h-.4Z"
     class="g0_1"
     id="path28" />
  <path
     d="M81.6,113.6h.5v4h-.5v-4Zm0,-1.5h.5v.8h-.5v-.8Z"
     class="g0_1"
     id="path30" />
  <path
     d="M82.6,113.6h.5l1.3,3.5l1.2,-3.5h.5l-1.5,4h-.5Z"
     class="g0_1"
     id="path32" />
  <path
     d="M89.5,115.3c-.1,-.7,-.5,-1.4,-1.3,-1.4c-.8,0,-1.2,.7,-1.3,1.4Zm-2.6,.4c0,.7,.4,1.6,1.3,1.6c.7,0,1.1,-.4,1.2,-1h.5c-.2,.9,-.7,1.4,-1.7,1.4c-1.3,0,-1.8,-1,-1.8,-2.1c0,-1.1,.5,-2.1,1.8,-2.1c1.3,0,1.8,1.1,1.8,2.2Z"
     class="g0_1"
     id="path34" />
  <path
     d="M90.6,113.6h.5v.9c.2,-.6,.8,-1,1.5,-.9v.4c-.9,0,-1.5,.6,-1.5,1.5v2.1h-.5Z"
     class="g0_1"
     id="path36" />
  <path
     d="M95.4,114.8c0,-.6,-.5,-.9,-1,-.9c-.5,0,-1,.2,-1,.7c0,.4,.5,.6,.9,.7l.6,.1c.6,.1,1.1,.4,1.1,1.1c0,.9,-.8,1.2,-1.5,1.2c-1,0,-1.6,-.4,-1.7,-1.4h.5c0,.7,.5,1,1.2,1c.4,0,1.1,-.2,1.1,-.8c0,-.4,-.5,-.6,-.9,-.7l-.6,-.1c-.7,-.2,-1.1,-.4,-1.1,-1.1c0,-.8,.7,-1.1,1.5,-1.1c.7,0,1.4,.4,1.4,1.3Z"
     class="g0_1"
     id="path38" />
  <path
     d="M96.8,113.6h.4v4h-.4v-4Zm0,-1.5h.4v.8h-.4v-.8Z"
     class="g0_1"
     id="path40" />
  <path
     d="M98.9,113.6h.9v.4h-.9v2.7c0,.3,.1,.5,.4,.5c.2,0,.3,0,.5,0v.4c-.2,0,-.3,0,-.5,0c-.6,0,-.8,-.2,-.8,-.9V114h-.7v-.4h.7v-1.2h.4Z"
     class="g0_1"
     id="path42" />
  <path
     d="M100,113.6h.5l1.3,3.4l1.3,-3.4h.5l-1.8,4.6c-.3,.7,-.4,.9,-1,.9c-.2,0,-.3,0,-.4,-.1v-.4c.1,0,.2,.1,.3,.1c.5,0,.6,-.3,.7,-.7l.2,-.4Z"
     class="g0_1"
     id="path44" />
  <path
     d="M106.3,115.6c0,.8,.4,1.7,1.4,1.7c.9,0,1.4,-.9,1.4,-1.7c0,-.9,-.5,-1.7,-1.4,-1.7c-1,0,-1.4,.8,-1.4,1.7m3.3,0c0,1.1,-.7,2.1,-1.9,2.1c-1.2,0,-1.9,-1,-1.9,-2.1c0,-1.1,.7,-2.1,1.9,-2.1c1.2,0,1.9,1,1.9,2.1Z"
     class="g0_1"
     id="path46" />
  <path
     d="M111.8,114H111v3.6h-.5V114h-.6v-.4h.6v-.4c0,-.6,.2,-1.1,1,-1.1c.1,0,.3,0,.4,0v.4c-.1,0,-.2,0,-.3,0c-.6,0,-.6,.3,-.6,.8v.3h.8Z"
     class="g0_1"
     id="path48" />
  <path
     d="M115.1,115.4h2.2l-1.1,-2.8Zm.8,-3.3h.6l2.2,5.5h-.6l-.6,-1.7h-2.6l-.6,1.7h-.6Z"
     class="g0_1"
     id="path50" />
  <path
     d="M121,113.9c-1.1,0,-1.4,.8,-1.4,1.7c0,.8,.3,1.7,1.4,1.7c.9,0,1.3,-.9,1.3,-1.7c0,-.8,-.4,-1.7,-1.3,-1.7m-1.9,-.3h.4v.8h.1c.2,-.6,.7,-.9,1.4,-.9c1.2,0,1.8,1,1.8,2.1c0,1.1,-.6,2.1,-1.8,2.1c-.6,0,-1.2,-.3,-1.4,-.9v2.3h-.5Z"
     class="g0_1"
     id="path52" />
  <path
     d="M125.4,113.9c-1.1,0,-1.4,.8,-1.4,1.7c0,.8,.4,1.7,1.4,1.7c.9,0,1.3,-.9,1.3,-1.7c0,-.8,-.4,-1.7,-1.3,-1.7m-1.9,-.3h.5v.8c.2,-.6,.8,-.9,1.4,-.9c1.2,0,1.8,1,1.8,2.1c0,1.1,-.6,2.1,-1.8,2.1c-.6,0,-1.2,-.3,-1.4,-.9v2.3h-.5Z"
     class="g0_1"
     id="path54" />
  <path
     d="M128,112.1h.5v5.5H128v-5.5Z"
     class="g0_1"
     id="path56" />
  <path
     d="M129.4,113.6h.5v4h-.5v-4Zm0,-1.5h.5v.8h-.5v-.8Z"
     class="g0_1"
     id="path58" />
  <path
     d="M133.7,115.3c0,-.7,-.5,-1.4,-1.3,-1.4c-.8,0,-1.2,.7,-1.3,1.4Zm-2.6,.4c0,.7,.4,1.6,1.3,1.6c.7,0,1.1,-.4,1.3,-1h.4c-.2,.9,-.7,1.4,-1.7,1.4c-1.3,0,-1.8,-1,-1.8,-2.1c0,-1.1,.5,-2.1,1.8,-2.1c1.3,0,1.8,1.1,1.8,2.2Z"
     class="g0_1"
     id="path60" />
  <path
     d="M136.4,117.3c1.1,0,1.4,-.9,1.4,-1.7c0,-.8,-.3,-1.7,-1.4,-1.7c-.9,0,-1.3,.9,-1.3,1.7c0,.8,.4,1.7,1.3,1.7m1.9,.3h-.4v-.8c-.3,.5,-.9,.9,-1.5,.9c-1.2,0,-1.8,-1,-1.8,-2.1c0,-1.1,.6,-2.1,1.8,-2.1c.6,0,1.2,.3,1.4,.9v-2.3h.5Z"
     class="g0_1"
     id="path62" />
  <path
     d="M141.5,115.8c0,1.1,.8,1.5,1.8,1.5c.6,0,1.5,-.4,1.5,-1.2c0,-.6,-.6,-.8,-1.1,-1l-1.3,-.3c-.6,-.1,-1.2,-.4,-1.2,-1.3c0,-.5,.3,-1.5,1.9,-1.5c1.1,0,2,.6,2,1.7h-.5c0,-.9,-.7,-1.3,-1.5,-1.3c-.7,0,-1.4,.3,-1.4,1.1c0,.5,.4,.7,.9,.8l1.3,.4c.8,.2,1.4,.5,1.4,1.4c0,.4,-.1,1.6,-2.1,1.6c-1.3,0,-2.2,-.6,-2.2,-1.9Z"
     class="g0_1"
     id="path64" />
  <path
     d="M148.9,114.9c-.2,-.6,-.5,-1,-1.2,-1c-.9,0,-1.4,.9,-1.4,1.7c0,.8,.5,1.7,1.4,1.7c.6,0,1.1,-.5,1.2,-1.1h.5c-.1,.9,-.8,1.5,-1.7,1.5c-1.2,0,-1.8,-1,-1.8,-2.1c0,-1.1,.6,-2.1,1.8,-2.1c.9,0,1.6,.4,1.7,1.4Z"
     class="g0_1"
     id="path66" />
  <path
     d="M150.1,113.6h.5v4h-.5v-4Zm0,-1.5h.5v.8h-.5v-.8Z"
     class="g0_1"
     id="path68" />
  <path
     d="M154.4,115.3c-.1,-.7,-.5,-1.4,-1.3,-1.4c-.8,0,-1.2,.7,-1.3,1.4Zm-2.6,.4c0,.7,.4,1.6,1.3,1.6c.7,0,1.1,-.4,1.2,-1h.5c-.2,.9,-.7,1.4,-1.7,1.4c-1.3,0,-1.8,-1,-1.8,-2.1c0,-1.1,.5,-2.1,1.8,-2.1c1.3,0,1.8,1.1,1.7,2.2Z"
     class="g0_1"
     id="path70" />
  <path
     d="M155.5,113.6h.5v.7c.2,-.5,.7,-.8,1.3,-.8c1.1,0,1.4,.6,1.4,1.5v2.6h-.5v-2.5c0,-.7,-.2,-1.2,-1,-1.2c-.7,0,-1.2,.6,-1.2,1.4v2.3h-.5Z"
     class="g0_1"
     id="path72" />
  <path
     d="M162.5,114.9c-.2,-.6,-.5,-1,-1.2,-1c-.9,0,-1.4,.9,-1.4,1.7c0,.8,.5,1.7,1.4,1.7c.6,0,1.1,-.5,1.2,-1.1h.5c-.2,.9,-.8,1.5,-1.7,1.5c-1.2,0,-1.9,-1,-1.9,-2.1c0,-1.1,.7,-2.1,1.9,-2.1c.9,0,1.5,.4,1.6,1.4Z"
     class="g0_1"
     id="path74" />
  <path
     d="M166.5,115.3c0,-.7,-.5,-1.4,-1.3,-1.4c-.8,0,-1.2,.7,-1.3,1.4Zm-2.6,.4c0,.7,.4,1.6,1.3,1.6c.8,0,1.1,-.4,1.3,-1h.5c-.2,.9,-.8,1.4,-1.8,1.4c-1.2,0,-1.8,-1,-1.8,-2.1c0,-1.1,.6,-2.1,1.8,-2.1c1.3,0,1.8,1.1,1.8,2.2Z"
     class="g0_1"
     id="path76" />
  <path
     d="M170,114.8c0,-.6,-.4,-.9,-1,-.9c-.4,0,-.9,.2,-.9,.7c0,.4,.4,.6,.8,.7l.6,.1c.6,.1,1.2,.4,1.2,1.1c0,.9,-.9,1.2,-1.6,1.2c-1,0,-1.6,-.4,-1.7,-1.4h.5c.1,.7,.5,1,1.2,1c.4,0,1.1,-.2,1.1,-.8c0,-.4,-.5,-.6,-.9,-.7l-.6,-.1c-.7,-.2,-1.1,-.4,-1.1,-1.1c0,-.8,.8,-1.1,1.5,-1.1c.8,0,1.4,.4,1.4,1.3Z"
     class="g0_1"
     id="path78" />
  <path
     d="M39.1,39.1H53v1.4H46.9V56.6H45.2V40.5H39.1Z"
     class="g0_1"
     id="path80" />
  <path
     d="M62.4,49.4c0,-2.3,-1.5,-4.5,-4,-4.5c-2.5,0,-3.9,2.2,-4.1,4.5Zm-8.1,1.3c0,2.2,1.2,5,4.1,5c2.3,0,3.5,-1.4,4,-3.3h1.5c-.6,2.9,-2.3,4.5,-5.5,4.5c-4,0,-5.7,-3,-5.7,-6.6c0,-3.4,1.7,-6.7,5.7,-6.7c4.1,0,5.7,3.5,5.6,7.1Z"
     class="g0_1"
     id="path82" />
  <path
     d="M76.7,47.9c-.4,-1.9,-1.6,-3,-3.6,-3c-2.9,0,-4.4,2.7,-4.4,5.4c0,2.7,1.5,5.4,4.4,5.4c1.9,0,3.5,-1.5,3.7,-3.6h1.5c-.4,3,-2.4,4.8,-5.2,4.8c-3.8,0,-5.9,-3,-5.9,-6.6c0,-3.6,2.1,-6.7,5.9,-6.7c2.7,0,4.8,1.4,5.1,4.3Z"
     class="g0_1"
     id="path84" />
  <path
     d="M82.2,39.1h1.6v7c.6,-1.5,2.3,-2.5,4,-2.5c3.6,0,4.7,1.9,4.7,4.9v8.1H90.9V48.7c0,-2.2,-.7,-3.8,-3.2,-3.8c-2.4,0,-3.9,1.8,-3.9,4.3v7.4H82.2Z"
     class="g0_1"
     id="path86" />
  <path
     d="M97.1,44h1.5v2.1h.1c.6,-1.5,2.2,-2.5,4,-2.5c3.6,0,4.7,1.9,4.7,4.9v8.1h-1.6V48.7c0,-2.2,-.7,-3.8,-3.2,-3.8c-2.4,0,-3.9,1.9,-4,4.3v7.4H97.1Z"
     class="g0_1"
     id="path88" />
  <path
     d="M112,44h1.6V56.6H112V44Zm0,-4.9h1.6v2.5H112V39.1Z"
     class="g0_1"
     id="path90" />
  <path
     d="M125.9,47.7c-.1,-2,-1.6,-2.8,-3.3,-2.8c-1.4,0,-3,.5,-3,2.2c0,1.3,1.5,1.8,2.6,2.1l2,.5c1.8,.2,3.6,1.3,3.6,3.5c0,2.7,-2.7,3.7,-5,3.7c-3,0,-5,-1.3,-5.2,-4.4h1.5c.1,2.1,1.7,3.2,3.7,3.2c1.5,0,3.5,-.7,3.5,-2.4c0,-1.5,-1.4,-2,-2.8,-2.3l-2,-.5C119.5,50,118,49.3,118,47.1c0,-2.5,2.5,-3.5,4.8,-3.5c2.5,0,4.5,1.3,4.6,4.1Z"
     class="g0_1"
     id="path92" />
  <path
     d="M140.7,47.9c-.4,-1.9,-1.6,-3,-3.6,-3c-2.9,0,-4.4,2.7,-4.4,5.4c0,2.7,1.5,5.4,4.4,5.4c1.9,0,3.5,-1.5,3.7,-3.6h1.6c-.5,3,-2.4,4.8,-5.3,4.8c-3.8,0,-5.9,-3,-5.9,-6.6c0,-3.6,2.1,-6.7,5.9,-6.7c2.7,0,4.8,1.4,5.2,4.3Z"
     class="g0_1"
     id="path94" />
  <path
     d="M146.2,39.1h1.6v7c.6,-1.5,2.3,-2.5,4.1,-2.5c3.5,0,4.6,1.9,4.6,4.9v8.1h-1.6V48.7c0,-2.2,-.7,-3.8,-3.2,-3.8c-2.4,0,-3.9,1.8,-3.9,4.3v7.4h-1.6Z"
     class="g0_1"
     id="path96" />
  <path
     d="M170.2,49.4c-.1,-2.3,-1.5,-4.5,-4,-4.5c-2.5,0,-3.9,2.2,-4.2,4.5ZM162,50.7c.1,2.2,1.2,5,4.2,5c2.3,0,3.5,-1.4,4,-3.3h1.5c-.7,2.9,-2.3,4.5,-5.5,4.5c-4,0,-5.7,-3,-5.7,-6.6c0,-3.4,1.7,-6.7,5.7,-6.7c4.1,0,5.7,3.5,5.6,7.1Z"
     class="g0_1"
     id="path98" />
  <path
     d="M39.3,63.6H41v7.5H51.3V63.6H53V81H51.3V72.6H41V81H39.3Z"
     class="g0_1"
     id="path100" />
  <path
     d="M58.3,74.7c0,2.7,1.4,5.4,4.4,5.4c2.9,0,4.4,-2.7,4.4,-5.4c0,-2.7,-1.5,-5.4,-4.4,-5.4c-3,0,-4.4,2.7,-4.4,5.4m10.4,0c0,3.6,-2.1,6.7,-6,6.7c-3.9,0,-6,-3.1,-6,-6.7c0,-3.6,2.1,-6.7,6,-6.7c3.9,0,6,3.1,6,6.7Z"
     class="g0_1"
     id="path102" />
  <path
     d="M81,72.4c-.4,-1.9,-1.6,-3.1,-3.6,-3.1C74.5,69.3,73,72,73,74.7c0,2.7,1.5,5.4,4.4,5.4c1.9,0,3.5,-1.5,3.7,-3.6h1.5c-.4,3,-2.4,4.9,-5.2,4.9c-3.8,0,-5.9,-3.1,-5.9,-6.7c0,-3.6,2.1,-6.7,5.9,-6.7c2.7,0,4.8,1.5,5.1,4.4Z"
     class="g0_1"
     id="path104" />
  <path
     d="M85.9,63.6h1.5v7h.1c.6,-1.5,2.2,-2.6,4,-2.6c3.6,0,4.6,1.9,4.6,4.9V81H94.6V73.1c0,-2.1,-.7,-3.8,-3.2,-3.8c-2.4,0,-3.9,1.9,-4,4.4V81H85.9Z"
     class="g0_1"
     id="path106" />
  <path
     d="M107.8,72.1c-.1,-1.9,-1.6,-2.8,-3.3,-2.8c-1.4,0,-3,.6,-3,2.2c0,1.4,1.5,1.9,2.6,2.1l2,.5c1.8,.3,3.6,1.3,3.6,3.5c0,2.7,-2.7,3.8,-5,3.8c-3,0,-5,-1.4,-5.2,-4.5H101c.1,2.1,1.7,3.2,3.7,3.2c1.5,0,3.5,-.6,3.5,-2.4c0,-1.5,-1.4,-2,-2.8,-2.3l-2,-.4c-2,-.6,-3.5,-1.3,-3.5,-3.4c0,-2.6,2.5,-3.6,4.8,-3.6c2.5,0,4.5,1.4,4.6,4.1Z"
     class="g0_1"
     id="path108" />
  <path
     d="M122,72.4c-.4,-1.9,-1.6,-3.1,-3.6,-3.1c-2.9,0,-4.4,2.7,-4.4,5.4c0,2.7,1.5,5.4,4.4,5.4c1.9,0,3.5,-1.5,3.7,-3.6h1.5c-.4,3,-2.4,4.9,-5.2,4.9c-3.8,0,-5.9,-3.1,-5.9,-6.7c0,-3.6,2.1,-6.7,5.9,-6.7c2.7,0,4.8,1.5,5.1,4.4Z"
     class="g0_1"
     id="path110" />
  <path
     d="M126.9,63.6h1.5v7h.1c.6,-1.5,2.2,-2.6,4,-2.6c3.6,0,4.7,1.9,4.7,4.9V81h-1.6V73.1c0,-2.1,-.7,-3.8,-3.2,-3.8c-2.4,0,-3.9,1.9,-4,4.4V81h-1.5Z"
     class="g0_1"
     id="path112" />
  <path
     d="M151.4,81H150V78.8c-.8,1.6,-2.5,2.6,-4.4,2.6c-3.2,0,-4.4,-1.9,-4.4,-4.8V68.4h1.5v8.2c.1,2.3,.9,3.5,3.4,3.5c2.6,0,3.8,-2.5,3.8,-5.1V68.4h1.5Z"
     class="g0_1"
     id="path114" />
  <path
     d="M155.5,63.6H157V81h-1.5V63.6Z"
     class="g0_1"
     id="path116" />
  <path
     d="M170.2,73.8c-.1,-2.3,-1.5,-4.5,-4,-4.5c-2.5,0,-3.9,2.2,-4.2,4.5ZM162,75.1c.1,2.3,1.2,5,4.2,5c2.3,0,3.5,-1.3,4,-3.2h1.5c-.7,2.8,-2.3,4.5,-5.5,4.5c-4,0,-5.7,-3.1,-5.7,-6.7c0,-3.3,1.7,-6.7,5.7,-6.7c4.1,0,5.7,3.6,5.6,7.1Z"
     class="g0_1"
     id="path118" />
  <path
     d="M43.1,95.9h4.2c1.7,0,2.6,-.7,2.6,-2.5C49.9,91.7,49,91,47.3,91H43.1ZM39.2,88h9.4c3.2,0,5.1,2.2,5.1,4.8c0,2.1,-.8,3.6,-2.7,4.4v.1c1.9,.4,2.4,2.3,2.5,4c.1,1.1,.1,3.2,.8,4.2H50.4c-.4,-1.1,-.4,-2.8,-.6,-4.2c-.3,-1.8,-1,-2.7,-2.9,-2.7H43.1v6.9H39.2Z"
     class="g0_1"
     id="path120" />
  <path
     d="M63.1,103.2c2.4,0,3.1,-2,3.1,-4c0,-2.1,-.7,-4.1,-3.1,-4.1c-2.4,0,-3.1,2,-3.1,4.1c0,2,.7,4,3.1,4m0,-10.7c4,0,6.5,2.6,6.5,6.7c0,4,-2.5,6.6,-6.5,6.6c-4,0,-6.5,-2.6,-6.5,-6.6c0,-4.1,2.5,-6.7,6.5,-6.7Z"
     class="g0_1"
     id="path122" />
  <path
     d="M75,101.4c.1,1.5,1.3,2.1,2.7,2.1c1,0,2.3,-.4,2.3,-1.6c0,-1.1,-1.5,-1.4,-4,-2c-2,-.4,-4,-1.1,-4,-3.4c0,-3.2,2.8,-4,5.5,-4c2.8,0,5.3,.9,5.6,4H79.8c-.1,-1.3,-1.1,-1.7,-2.4,-1.7c-.8,0,-1.9,.2,-1.9,1.2c0,1.2,2,1.4,3.9,1.9c2.1,.4,4,1.2,4,3.5c0,3.3,-2.8,4.4,-5.7,4.4c-3,0,-5.8,-1.1,-6,-4.4Z"
     class="g0_1"
     id="path124" />
  <path
     d="M94.4,97.8c-.3,-1.8,-1,-2.7,-2.7,-2.7c-2.2,0,-2.9,1.7,-2.9,2.7ZM88.8,100c.1,2.2,1.2,3.2,3.1,3.2c1.4,0,2.5,-.9,2.7,-1.6h3.1c-1,2.9,-3.1,4.2,-5.9,4.2c-4,0,-6.5,-2.7,-6.5,-6.6c0,-3.8,2.6,-6.7,6.5,-6.7c4.3,0,6.3,3.6,6.1,7.5Z"
     class="g0_1"
     id="path126" />
  <path
     d="M100.4,92.8h3.3v1.8h.1c.9,-1.4,2.4,-2.1,3.8,-2.1c3.7,0,4.7,2.1,4.7,5.2v7.8h-3.5V98.3c0,-2.1,-.6,-3.1,-2.2,-3.1c-1.9,0,-2.7,1.1,-2.7,3.6v6.7h-3.5Z"
     class="g0_1"
     id="path128" />
  <path
     d="M115.3,88h3.5v6.6h.1c.9,-1.4,2.4,-2.1,3.7,-2.1c3.7,0,4.6,2.1,4.6,5.2v7.8h-3.5V98.3c0,-2.1,-.6,-3.1,-2.2,-3.1c-1.9,0,-2.7,1.1,-2.7,3.6v6.7h-3.5Z"
     class="g0_1"
     id="path130" />
  <path
     d="M138.8,97.8C138.5,96,137.7,95.1,136,95.1c-2.2,0,-2.8,1.7,-2.8,2.7Zm-5.6,2.2c.1,2.2,1.1,3.2,3.1,3.2c1.4,0,2.5,-.9,2.7,-1.6h3.1c-1,2.9,-3.1,4.2,-6,4.2c-3.9,0,-6.4,-2.7,-6.4,-6.6c0,-3.8,2.6,-6.7,6.4,-6.7c4.3,0,6.4,3.6,6.2,7.5Z"
     class="g0_1"
     id="path132" />
  <path
     d="M144.9,92.8h3.4v12.7h-3.4V92.8Zm3.4,-1.9h-3.4V88h3.4v2.9Z"
     class="g0_1"
     id="path134" />
  <path
     d="M151.6,92.8h3.3v1.7h.1c.9,-1.3,2.2,-2,3.8,-2c1.6,0,3,.6,3.7,2.1c.7,-1.1,2.1,-2.1,3.8,-2.1c2.7,0,4.7,1.2,4.7,4.5v8.5h-3.5V98.3c0,-1.7,-.2,-3.1,-2.1,-3.1c-2,0,-2.4,1.6,-2.4,3.2v7.1h-3.4V98.4c0,-1.5,.1,-3.2,-2.1,-3.2c-.7,0,-2.4,.5,-2.4,2.9v7.4h-3.5Z"
     class="g0_1"
     id="path136" />
  <path
     d="M220.7,39.1c-5,.1,-9.8,1.1,-14.2,2.9V39.3h-11V78h11V54.4c4.2,-2.6,9,-4.1,14.2,-4.2Z"
     class="g0_1"
     id="path138" />
  <path
     d="M192.8,78.2c.1,-4.2,1.1,-8.1,2.7,-11.6V48.7C187.2,55.9,182,66.4,181.8,78.2Z"
     class="g1_1"
     id="path140" />
  <path
     d="M249.9,78.2h11C260.6,56.8,243.4,39.5,222,39.1V50.2c15.3,.3,27.6,12.7,27.9,28Z"
     class="g1_1"
     id="path142" />
  <path
     d="M220.9,118.3V107.2C205.5,107,193.1,94.5,192.9,79.1H181.8v.1c.2,21.4,17.6,38.8,39,39.1Z"
     class="g1_1"
     id="path144" />
  <path
     d="M260.9,79.1h-11c-.3,15.4,-12.7,27.8,-28.1,28.1v11.1h.1c21.4,-.3,38.8,-17.7,39,-39.1Z"
     class="g1_1"
     id="path146" />
  <path
     d="M181.8,78.2h39.1V39.1H181.8V78.2Zm38.7,-.4H182.2V39.6h38.3V77.8Z"
     class="g0_1"
     id="path148" />
  <path
     d="M221.8,78.2h39.1V39.1H221.8V78.2Zm38.7,-.4H222.3V39.6h38.2V77.8Z"
     class="g0_1"
     id="path150" />
  <path
     d="M181.8,118.3h39.1V79.1H181.8v39.2Zm38.7,-.5H182.2V79.6h38.3v38.2Z"
     class="g0_1"
     id="path152" />
  <path
     d="M221.8,118.3h39.1V79.1H221.8v39.2Zm38.7,-.5H222.3V79.6h38.2v38.2Z"
     class="g0_1"
     id="path154" />
</svg>
