<?xml version="1.0" encoding="UTF-8"?>
<svg viewBox="0 0 48 48" xmlns="http://www.w3.org/2000/svg" xmlns:xlink="http://www.w3.org/1999/xlink">
 <defs>
  <linearGradient id="l">
   <stop stop-color="#fff" stop-opacity=".8" offset="0"/>
   <stop stop-color="#fff" stop-opacity="0" offset="1"/>
  </linearGradient>
  <linearGradient id="m">
   <stop stop-color="#fff" offset="0"/>
   <stop stop-color="#fff" stop-opacity="0" offset="1"/>
  </linearGradient>
  <radialGradient id="n" cx="23.533" cy="47.03" r="20.702" gradientTransform="matrix(1 0 0 .12393 0 41.199)" gradientUnits="userSpaceOnUse">
   <stop stop-color="#2e3436" offset="0"/>
   <stop stop-color="#2e3436" stop-opacity="0" offset="1"/>
  </radialGradient>
  <linearGradient id="o" x1="2.803" x2="44.803" y1="1006.7" y2="1048.7" gradientTransform="translate(-3.2563e-8 -.17739)" gradientUnits="userSpaceOnUse">
   <stop stop-color="#eeeeec" offset="0"/>
   <stop stop-color="#babdb6" offset="1"/>
  </linearGradient>
  <linearGradient id="p" x1="-7.669" x2="30.3" y1="-31.828" y2="35.36" gradientTransform="translate(-3.2563e-8 1004.2)" gradientUnits="userSpaceOnUse" xlink:href="#m"/>
  <radialGradient id="q" cx="13.41" cy="1018.6" r="16.469" gradientTransform="matrix(.11334 -2.6235 1.9434 .083955 -1966.9 967.11)" gradientUnits="userSpaceOnUse">
   <stop stop-color="#eeeeec" offset="0"/>
   <stop stop-color="#d3d7cf" offset="1"/>
  </radialGradient>
  <linearGradient id="r" x2="0" y1="1011.2" y2="1044.1" gradientUnits="userSpaceOnUse" xlink:href="#l"/>
  <linearGradient id="s" x1="92.25" x2="96.57" y1="34.406" y2="53.03" gradientUnits="userSpaceOnUse">
   <stop stop-color="#555753" offset="0"/>
   <stop stop-color="#eeeeec" offset="1"/>
  </linearGradient>
  <linearGradient id="t" x2="0" y1="35.3" y2="52.12" gradientUnits="userSpaceOnUse">
   <stop stop-color="#888a85" offset="0"/>
   <stop stop-color="#eeeeec" offset="1"/>
  </linearGradient>
  <linearGradient id="u" x1="7.344" x2="16.752" y1="-17.881" y2="33.971" gradientTransform="translate(-3.2563e-8 1004.2)" gradientUnits="userSpaceOnUse" xlink:href="#m"/>
  <linearGradient id="v" x2="0" y1="1006.7" y2="1048.7" gradientUnits="userSpaceOnUse" xlink:href="#l"/>
 </defs>
 <g transform="translate(0 -1004.4)">
  <g transform="translate(-3.2563e-8 -.088686)">
   <path transform="matrix(1.1593 0 0 1 -3.2821 1001.7)" d="m44.235 47.027a20.702 2.5656 0 1 1 -41.404 0 20.702 2.5656 0 1 1 41.404 0z" fill="url(#n)" opacity=".547"/>
   <g transform="translate(.1875)">
    <path d="m8.5938 1005.6c-3.7845 0-6.8438 3.0973-6.8438 6.875v30.406c0 3.7778 3.0661 6.8438 6.8438 6.8438h30.406c3.7777 0 6.875-3.0591 6.875-6.8438v-30.406c0-3.7845-3.0905-6.875-6.875-6.875h-30.406z" fill="#888a85"/>
    <rect x="2.803" y="1006.5" width="42" height="42" rx="5.8" fill="url(#o)"/>
    <path d="m8 1006.5c-2.9318 0.296-5.1875 2.7689-5.1875 5.7813v16.719c12.392-4.6867 26.722-7.1912 42-8.5938v-8.125c0-3.2132-2.5993-5.7813-5.8125-5.7813h-30.406c-0.20082 0-0.3983-0.02-0.59375 0z" fill="url(#p)"/>
    <path d="m8.5938 1010.2c-1.3459 0-2.3125 0.9754-2.3125 2.3438v30.406c0 1.3686 0.94408 2.3126 2.3125 2.3126h30.406c1.3684 0 2.3438-0.9665 2.3438-2.3126v-30.406c0-1.3459-0.99782-2.3438-2.3438-2.3438h-30.406z" fill="#888a85"/>
    <path d="m8.5938 1011.2c-0.83447 0-1.25 0.4113-1.25 1.2812v30.406c0 0.8819 0.36839 1.25 1.25 1.25h30.406c0.87 0 1.2812-0.4151 1.2812-1.25v-30.406c0-0.8227-0.45858-1.2813-1.2812-1.2812h-30.406z" fill="url(#q)"/>
    <path d="m8.5938 1011.8c-0.57939 0-0.71875 0.1287-0.71875 0.75v30.406c0 0.6392 0.079935 0.7188 0.71875 0.7188h30.406c0.62142 0 0.75-0.1389 0.75-0.7188v-30.406c0-0.5617-0.1883-0.75-0.75-0.75h-30.406z" fill="none" opacity=".8" stroke="url(#r)"/>
    <path transform="matrix(1.1444 0 0 1.1892 -92.791 975.7)" d="m101.91 34.406c-5.3023 0-9.6562 4.1524-9.6562 9.3125s4.354 9.3125 9.6562 9.3125c5.3023 0 9.625-4.1565 9.625-9.3125s-4.3227-9.3125-9.625-9.3125z" fill="url(#s)"/>
    <path transform="matrix(1.1444 0 0 1.1892 -92.791 975.52)" d="m110.63 43.713a8.7385 8.4087 0 1 1 -17.477 0 8.7385 8.4087 0 1 1 17.477 0z" fill="url(#t)"/>
    <g transform="translate(.50025 .32261)" fill="#2e3436">
     <path transform="matrix(.22887 0 0 .23785 -5.0088 1016.8)" d="m110.63 43.713a8.7385 8.4087 0 1 1 -17.477 0 8.7385 8.4087 0 1 1 17.477 0z"/>
     <path transform="matrix(.22887 0 0 .23785 4.9917 1016.8)" d="m110.63 43.713a8.7385 8.4087 0 1 1 -17.477 0 8.7385 8.4087 0 1 1 17.477 0z"/>
    </g>
    <path d="m8.5938 1011c-0.83447 0-1.25 0.4114-1.25 1.2813v15.5c1.8164-0.5498 3.6763-1.0889 5.5312-1.5937 0.65236-5.5108 5.3124-9.7813 10.938-9.7813 3.9301 0 7.3888 2.0858 9.3438 5.2187 2.404-0.445 4.7717-0.8755 7.125-1.25v-8.0937c0-0.8227-0.45858-1.2813-1.2812-1.2813h-30.406z" fill="url(#u)" opacity=".6"/>
    <path d="m8.5938 1007.2c-2.9575 0-5.3125 2.3832-5.3125 5.3438v30.406c0 2.9608 2.3519 5.3126 5.3125 5.3126h30.406c2.9606 0 5.3438-2.3549 5.3438-5.3126v-30.406c0-2.9575-2.3862-5.3437-5.3438-5.3438h-30.406z" fill="none" opacity=".8" stroke="url(#v)"/>
   </g>
  </g>
 </g>
</svg>
