<?xml version="1.0" encoding="UTF-8" standalone="no"?>
<!-- Created with Inkscape (http://www.inkscape.org/) -->

<svg
   width="37.066803mm"
   height="90.700165mm"
   viewBox="0 0 37.066803 90.700168"
   version="1.1"
   id="svg5"
   inkscape:version="1.1.2 (b8e25be833, 2022-02-05)"
   sodipodi:docname="4_Transport#.svg"
   xmlns:inkscape="http://www.inkscape.org/namespaces/inkscape"
   xmlns:sodipodi="http://sodipodi.sourceforge.net/DTD/sodipodi-0.dtd"
   xmlns="http://www.w3.org/2000/svg"
   xmlns:svg="http://www.w3.org/2000/svg">
  <sodipodi:namedview
     id="namedview7"
     pagecolor="#ffffff"
     bordercolor="#eeeeee"
     borderopacity="1"
     inkscape:pageshadow="0"
     inkscape:pageopacity="0"
     inkscape:pagecheckerboard="false"
     inkscape:document-units="mm"
     showgrid="false"
     inkscape:zoom="0.90509668"
     inkscape:cx="-113.8"
     inkscape:cy="148.05048"
     inkscape:window-width="1536"
     inkscape:window-height="801"
     inkscape:window-x="1912"
     inkscape:window-y="-7"
     inkscape:window-maximized="1"
     inkscape:current-layer="layer1" />
  <defs
     id="defs2" />
  <g
     inkscape:label="Ebene 1"
     inkscape:groupmode="layer"
     id="layer1"
     transform="translate(-196.56189,-244.23591)">
    <g
       id="g1576"
       transform="translate(52.618688,-0.29232605)">
      <path
         style="fill:#eecf5c;stroke-width:0.264583"
         d="m 163.18553,334.72436 c -0.72151,-0.56755 -1.64589,-0.69545 -1.91218,-0.26459 -0.4358,0.70515 -4.00972,-0.0441 -5.11289,-1.07182 -1.02242,-0.95253 -1.18437,-2.36437 -1.28834,-11.2313 -0.0546,-4.65667 -0.0965,-8.70479 -0.093,-8.99584 0.003,-0.29104 -0.003,-0.76729 -0.0136,-1.05833 -0.0109,-0.29104 -0.0125,-0.73752 -0.003,-0.99219 0.0859,-2.42244 -0.14118,-10.24641 -0.30203,-10.40725 -0.0987,-0.0987 -0.0646,-0.39418 0.0758,-0.65657 0.16415,-0.3067 0.16383,-0.71766 -8.7e-4,-1.15088 -0.20921,-0.55026 -0.14857,-0.78695 0.33069,-1.29072 0.57344,-0.60275 0.66873,-0.61347 4.15876,-0.46797 1.96453,0.0819 5.759,0.0563 8.43216,-0.0568 5.81216,-0.24603 5.6081,-0.34881 5.47937,2.75977 -0.0461,1.11367 0.0113,2.17882 0.12759,2.36699 0.1163,0.18818 0.0885,0.5718 -0.0617,0.85249 -0.19363,0.36181 -0.1804,0.68361 0.0455,1.10566 0.24464,0.45711 0.24665,0.72977 0.009,1.17447 -0.23873,0.44605 -0.236,0.66827 0.0119,0.96695 0.24886,0.29986 0.25125,0.54272 0.0105,1.07103 -0.18194,0.3993 -0.21568,0.80837 -0.0812,0.98435 0.12656,0.16562 0.21217,1.61081 0.19024,3.21153 -0.0219,1.60073 0.0608,3.11878 0.18388,3.37344 0.13319,0.2756 0.10547,0.68407 -0.0685,1.0091 -0.21787,0.40708 -0.21034,0.64479 0.0296,0.93388 0.24886,0.29986 0.25125,0.54273 0.0105,1.07103 -0.23868,0.52385 -0.23868,0.77074 0,1.05834 0.23702,0.28559 0.23808,0.53579 0.004,1.04854 -0.16876,0.3704 -0.2164,0.81336 -0.10585,0.98436 0.11054,0.17099 0.20608,2.09747 0.21231,4.28105 0.006,2.18358 0.10931,4.12869 0.22907,4.32246 0.12803,0.20717 0.03,0.80611 -0.23787,1.45381 -0.25058,0.60582 -0.56223,1.37623 -0.69254,1.71202 -0.34562,0.89062 -2.63237,1.82786 -5.25455,2.15364 -3.08372,0.38312 -3.54054,0.35657 -4.31246,-0.25062 z m -4.48771,-38.82529 c -0.25238,-0.0581 -0.69604,-0.64184 -0.98593,-1.29717 -0.28988,-0.65533 -0.63749,-1.12326 -0.77245,-1.03985 -0.43719,0.2702 -8.73468,-1.24487 -8.87912,-1.62127 -0.0735,-0.19146 -0.0179,-0.65247 0.12358,-1.02449 0.14144,-0.37201 0.25716,-0.9147 0.25716,-1.20598 0,-0.29127 0.29766,-0.91984 0.66146,-1.39681 0.81778,-1.07216 0.82249,-1.34326 0.0395,-2.27381 -0.34209,-0.40654 -0.93726,-1.75039 -1.32261,-2.98632 -0.41688,-1.33709 -0.87371,-2.31358 -1.12803,-2.41117 -0.2924,-0.1122 -0.38681,-0.37638 -0.29887,-0.83637 0.0707,-0.3698 -0.0943,-1.52113 -0.36666,-2.5585 -0.60219,-2.29369 -0.62732,-4.08162 -0.0865,-6.1578 0.48833,-1.87482 0.32477,-3.668 -0.57629,-6.31833 -0.72497,-2.1324 -1.41986,-5.59787 -1.41986,-7.08098 0,-1.76814 0.79455,-4.99926 1.67421,-6.80831 1.5524,-3.19257 4.48457,-5.48416 7.82075,-6.11219 3.08549,-0.58083 7.38035,-0.0795 9.72149,1.13488 1.1525,0.5978 3.68615,2.96008 4.56845,4.25946 0.40493,0.59634 1.43782,2.63207 2.29531,4.52384 1.46329,3.22823 1.70137,3.58344 3.87456,5.78083 2.65316,2.6827 3.23964,3.62834 5.50003,8.86841 1.62607,3.76955 1.90673,5.02849 1.35208,6.06486 -0.34757,0.64944 -1.74593,1.54229 -3.39722,2.1691 -0.96167,0.36505 -1.34704,0.70471 -1.83534,1.61764 -0.94753,1.7715 -0.83548,2.18062 1.16452,4.25227 1.69076,1.75132 1.78277,1.91146 1.78594,3.10828 0.002,0.694 0.16017,1.45094 0.35186,1.68209 0.19168,0.23115 0.37745,1.05013 0.41281,1.81995 0.0535,1.16465 -0.0367,1.49329 -0.5372,1.95713 -0.68902,0.63857 -2.57531,1.24365 -6.17725,1.98155 -2.24127,0.45915 -2.33408,0.49928 -0.85675,0.37052 0.91123,-0.0794 2.51857,-0.37813 3.57187,-0.66379 1.0533,-0.28566 2.27227,-0.59542 2.70883,-0.68836 0.79003,-0.16819 0.79144,-0.16636 0.29999,0.38924 -1.23773,1.3993 -7.05962,2.4412 -14.19061,2.53959 -2.69214,0.0371 -5.10128,0.02 -5.35366,-0.0381 z m 5.69405,-1.05694 c -0.75867,-0.0533 -2.06836,-0.0537 -2.91042,-10e-4 -0.84206,0.0527 -0.22132,0.0962 1.3794,0.0968 1.60073,5.3e-4 2.28969,-0.0425 1.53102,-0.0958 z m 5.1528,-0.25165 c -0.25297,-0.0662 -0.72922,-0.0686 -1.05834,-0.005 -0.32911,0.0633 -0.12214,0.11747 0.45994,0.12041 0.58208,0.003 0.85136,-0.0489 0.5984,-0.11507 z m -18.35379,-10.55547 c 0.27278,-0.71086 0.18741,-0.84041 -0.63315,-0.96084 -0.8883,-0.13038 -1.00912,0.17366 -0.35587,0.8955 0.53722,0.59362 0.78014,0.60967 0.98902,0.0653 z m 18.3701,-7.60706 c 0.0577,-0.29741 -0.0931,-0.44109 -0.46302,-0.44109 -0.60455,0 -0.62208,0.0297 -0.38367,0.651 0.20147,0.52503 0.72955,0.39411 0.84669,-0.20991 z m -11.32866,-7.78328 c 9.2e-4,-0.10914 0.33042,-0.38537 0.73222,-0.61384 0.87984,-0.50029 3.89105,-4.81675 4.43424,-6.35631 0.99873,-2.83069 -0.12914,-6.76513 -2.74529,-9.57665 -1.52392,-1.63773 -3.40519,-2.5647 -5.20097,-2.56271 -1.53973,0.002 -1.62434,0.0495 -2.56552,1.44857 -1.7888,2.65909 -2.46335,6.07147 -1.81591,9.1862 0.70557,3.39441 2.41042,5.63488 5.22029,6.86037 1.75108,0.76372 2.01952,1.00042 1.64555,1.45104 -0.22039,0.26555 -0.22126,0.36177 -0.003,0.36177 0.16333,0 0.29773,-0.0893 0.29865,-0.19844 z m -4.7443,26.84027 c -1.36931,-0.4772 -1.35663,-0.98047 0.0242,-0.96148 1.43133,0.0197 3.60317,0.3683 3.85338,0.61851 0.64645,0.64645 -2.26727,0.90416 -3.8776,0.34297 z"
         id="path1590" />
      <path
         style="fill:#a09c9a;stroke-width:0.264583"
         d="m 163.18553,334.72436 c -0.72151,-0.56755 -1.64589,-0.69545 -1.91218,-0.26459 -0.4358,0.70515 -4.00972,-0.0441 -5.11289,-1.07182 -1.02242,-0.95253 -1.18437,-2.36437 -1.28834,-11.2313 -0.0546,-4.65667 -0.0965,-8.70479 -0.093,-8.99584 0.003,-0.29104 -0.003,-0.76729 -0.0136,-1.05833 -0.0109,-0.29104 -0.0125,-0.73752 -0.003,-0.99219 0.0859,-2.42244 -0.14118,-10.24641 -0.30203,-10.40725 -0.0987,-0.0987 -0.0646,-0.39418 0.0758,-0.65657 0.16415,-0.3067 0.16383,-0.71766 -8.7e-4,-1.15088 -0.20921,-0.55026 -0.14857,-0.78695 0.33069,-1.29072 0.57344,-0.60275 0.66873,-0.61347 4.15876,-0.46797 1.96453,0.0819 5.759,0.0563 8.43216,-0.0568 5.81216,-0.24603 5.6081,-0.34881 5.47937,2.75977 -0.0461,1.11367 0.0113,2.17882 0.12759,2.36699 0.1163,0.18818 0.0885,0.5718 -0.0617,0.85249 -0.19363,0.36181 -0.1804,0.68361 0.0455,1.10566 0.24464,0.45711 0.24665,0.72977 0.009,1.17447 -0.23873,0.44605 -0.236,0.66827 0.0119,0.96695 0.24886,0.29986 0.25125,0.54272 0.0105,1.07103 -0.18194,0.3993 -0.21568,0.80837 -0.0812,0.98435 0.12656,0.16562 0.21217,1.61081 0.19024,3.21153 -0.0219,1.60073 0.0608,3.11878 0.18388,3.37344 0.13319,0.2756 0.10547,0.68407 -0.0685,1.0091 -0.21787,0.40708 -0.21034,0.64479 0.0296,0.93388 0.24886,0.29986 0.25125,0.54273 0.0105,1.07103 -0.23868,0.52385 -0.23868,0.77074 0,1.05834 0.23702,0.28559 0.23808,0.53579 0.004,1.04854 -0.16876,0.3704 -0.2164,0.81336 -0.10585,0.98436 0.11054,0.17099 0.20608,2.09747 0.21231,4.28105 0.006,2.18358 0.10931,4.12869 0.22907,4.32246 0.12803,0.20717 0.03,0.80611 -0.23787,1.45381 -0.25058,0.60582 -0.56223,1.37623 -0.69254,1.71202 -0.34562,0.89062 -2.63237,1.82786 -5.25455,2.15364 -3.08372,0.38312 -3.54054,0.35657 -4.31246,-0.25062 z m -4.48771,-38.82529 c -0.25238,-0.0581 -0.69604,-0.64184 -0.98593,-1.29717 -0.28988,-0.65533 -0.63749,-1.12326 -0.77245,-1.03985 -0.43719,0.2702 -8.73468,-1.24487 -8.87912,-1.62127 -0.0735,-0.19146 -0.0179,-0.65247 0.12358,-1.02449 0.14144,-0.37201 0.25716,-0.9147 0.25716,-1.20598 0,-0.29127 0.29766,-0.91984 0.66146,-1.39681 0.3638,-0.47697 0.66146,-1.05731 0.66146,-1.28965 0,-0.23234 0.12305,-0.49848 0.27345,-0.59143 0.16171,-0.0999 0.0238,-0.36536 -0.33746,-0.64954 -0.39086,-0.30745 -0.84314,-1.23959 -1.25568,-2.58794 -0.54798,-1.79106 -0.75549,-2.1492 -1.38233,-2.3858 -0.79589,-0.30041 -1.06255,-1.3827 -0.34069,-1.3827 0.49432,0 0.50056,0.10286 -0.13229,-2.18084 -0.63914,-2.30641 -0.66808,-3.95416 -0.10743,-6.11535 0.50879,-1.96128 0.37379,-3.30365 -0.68237,-6.78506 -1.39376,-4.59422 -1.58291,-6.55323 -0.93022,-9.63412 0.57576,-2.71779 1.74829,-4.99767 3.39923,-6.6095 2.74611,-2.68106 5.65383,-3.47097 10.04566,-2.72899 5.24473,0.88608 8.24114,3.12805 10.40555,7.78563 0.66147,1.42341 1.48975,3.19646 1.84062,3.9401 0.35087,0.74364 1.59637,2.45787 2.7678,3.80938 2.07636,2.39559 3.15908,4.06597 3.15908,4.87372 0,0.21943 -0.32743,0.57659 -0.72761,0.79369 -0.40018,0.21711 -0.63048,0.3995 -0.51177,0.40533 0.35186,0.0173 1.35028,-0.57602 1.64761,-0.97906 0.31033,-0.42066 0.65718,0.24555 2.51266,4.82611 0.58948,1.45521 1.13327,2.78061 1.20843,2.94532 0.0752,0.16472 -0.17564,0.63645 -0.55732,1.04829 -0.42374,0.45723 -0.64343,0.94205 -0.56419,1.24507 0.10236,0.39142 -0.15973,0.62416 -1.24058,1.10167 -0.7537,0.33297 -1.5503,0.66507 -1.77023,0.73801 -0.49501,0.16416 -1.5845,2.29341 -1.5845,3.09666 0,0.37173 0.66337,1.27919 1.78259,2.43851 1.69076,1.75132 1.78277,1.91146 1.78594,3.10828 0.002,0.694 0.16017,1.45094 0.35186,1.68209 0.19168,0.23115 0.37745,1.05013 0.41281,1.81995 0.0535,1.16465 -0.0367,1.49329 -0.5372,1.95713 -0.68902,0.63857 -2.57531,1.24365 -6.17725,1.98155 -2.24127,0.45915 -2.33408,0.49928 -0.85675,0.37052 0.91123,-0.0794 2.51857,-0.37813 3.57187,-0.66379 1.0533,-0.28566 2.27227,-0.59542 2.70883,-0.68836 0.79003,-0.16819 0.79144,-0.16636 0.29999,0.38924 -1.23773,1.3993 -7.05962,2.4412 -14.19061,2.53959 -2.69214,0.0371 -5.10128,0.02 -5.35366,-0.0381 z m 5.69405,-1.05694 c -0.75867,-0.0533 -2.06836,-0.0537 -2.91042,-10e-4 -0.84206,0.0527 -0.22132,0.0962 1.3794,0.0968 1.60073,5.3e-4 2.28969,-0.0425 1.53102,-0.0958 z m 5.1528,-0.25165 c -0.25297,-0.0662 -0.72922,-0.0686 -1.05834,-0.005 -0.32911,0.0633 -0.12214,0.11747 0.45994,0.12041 0.58208,0.003 0.85136,-0.0489 0.5984,-0.11507 z m -18.35379,-10.55547 c 0.27278,-0.71086 0.18741,-0.84041 -0.63315,-0.96084 -0.8883,-0.13038 -1.00912,0.17366 -0.35587,0.8955 0.53722,0.59362 0.78014,0.60967 0.98902,0.0653 z m 21.01307,-5.91495 c 0.0662,-0.19844 -0.0331,-0.29766 -0.23151,-0.23151 -0.19099,0.0637 -0.39935,0.27202 -0.46302,0.46302 -0.0661,0.19844 0.0331,0.29766 0.23151,0.23151 0.191,-0.0637 0.39936,-0.27203 0.46302,-0.46302 z m -2.64297,-1.69211 c 0.0577,-0.29741 -0.0931,-0.44109 -0.46302,-0.44109 -0.60455,0 -0.62208,0.0297 -0.38367,0.651 0.20147,0.52503 0.72955,0.39411 0.84669,-0.20991 z m 1.48581,-1.20872 c 0.13379,-0.21647 -0.18924,-1.06947 -2.11202,-5.57713 -0.60639,-1.42158 -1.17912,-2.02455 -1.17912,-1.24136 0,0.21751 0.41671,1.36908 0.92604,2.55903 0.50932,1.18996 0.92604,2.42417 0.92604,2.7427 0,0.62793 0.67932,1.75522 1.05772,1.75522 0.12868,0 0.30029,-0.10731 0.38134,-0.23846 z m -14.21569,-4.8749 c 0.46717,-0.17083 1.38351,-0.75767 2.03631,-1.30408 1.45356,-1.21668 4.78598,-6.12913 5.20288,-7.66977 0.98828,-3.65214 -1.5524,-9.30624 -5.12169,-11.39799 -2.85941,-1.67572 -6.50267,-1.27326 -8.09873,0.89464 -0.59471,0.80779 -0.60534,0.8819 -0.17194,1.19881 0.43366,0.3171 0.43602,0.44122 0.0386,2.02595 -1.11912,4.46236 0.0999,9.37495 2.98415,12.02643 1.09277,1.00455 1.18754,1.18053 0.89196,1.65621 -0.18191,0.29273 -0.33073,0.6782 -0.33073,0.85661 0,0.17841 -0.31687,0.57704 -0.70414,0.88584 -0.40878,0.32595 -0.6242,0.69081 -0.51355,0.86984 0.24362,0.39418 2.66707,0.36699 3.78689,-0.0425 z m 14.62871,-2.29497 c 0.21828,-0.14107 0.27781,-0.25648 0.13229,-0.25648 -0.14552,0 -0.44317,0.11541 -0.66145,0.25648 -0.21829,0.14106 -0.27782,0.25648 -0.1323,0.25648 0.14552,0 0.44318,-0.11542 0.66146,-0.25648 z m -1.48443,-0.20249 c -0.76347,-0.50511 -1.20181,-1.98666 -1.11592,-3.77164 0.0722,-1.50125 0.0262,-1.75335 -0.27453,-1.50288 -0.27248,0.22694 -0.3186,0.71819 -0.18752,1.99756 0.21821,2.12988 0.76056,3.48079 1.39525,3.4754 0.2939,-0.002 0.36392,-0.0786 0.18272,-0.19844 z m -21.26973,-3.37789 c 0,-0.0774 -0.18133,-0.57476 -0.40295,-1.10517 -0.28435,-0.68055 -0.48566,-0.88168 -0.68397,-0.68337 -0.19832,0.19832 -0.15559,0.5236 0.14515,1.10518 0.36526,0.70633 0.94177,1.12466 0.94177,0.68336 z m 19.18229,-1.27032 c 0,-1.03313 -0.51452,-0.99092 -0.61419,0.0504 -0.0617,0.64424 0.011,0.85623 0.26458,0.7717 0.19228,-0.0641 0.34961,-0.43403 0.34961,-0.82209 z m 0.26137,-2.82741 c -0.14833,-0.24 -0.24665,-0.23268 -0.40928,0.0305 -0.27896,0.45136 -0.005,0.89481 0.33993,0.55 0.14552,-0.14552 0.17672,-0.40673 0.0694,-0.58046 z m -0.92283,-3.16703 c 0,-0.14399 -0.31443,-1.06672 -0.69872,-2.05052 -0.66487,-1.70207 -1.51489,-2.97059 -1.7997,-2.68579 -0.12635,0.12635 1.09151,3.32325 1.69696,4.45454 0.30174,0.56381 0.80146,0.7395 0.80146,0.28177 z m -4.23333,-8.25018 c 0,-0.43928 -0.80816,-1.2776 -1.23164,-1.2776 -0.50382,0 -0.44308,0.26994 0.21942,0.97513 0.62958,0.67016 1.01222,0.7845 1.01222,0.30247 z m -9.50513,46.5309 c -1.36931,-0.4772 -1.35663,-0.98047 0.0242,-0.96148 1.43133,0.0197 3.60317,0.3683 3.85338,0.61851 0.64645,0.64645 -2.26727,0.90416 -3.8776,0.34297 z"
         id="path1588" />
      <path
         style="fill:#f7ca0f;stroke-width:0.264583"
         d="m 163.31913,334.19519 c -0.38916,-0.62315 -1.33789,-0.68791 -2.06135,-0.14071 -0.66607,0.50379 -1.62357,0.50362 -3.05248,-5.2e-4 -1.45108,-0.51197 -2.24294,-1.25037 -2.49303,-2.3247 -0.27686,-1.18929 -0.34725,-12.34719 -0.0789,-12.51301 0.12196,-0.0754 0.0475,-0.38576 -0.16538,-0.68975 -0.28958,-0.41343 -0.31677,-0.68418 -0.10791,-1.07443 0.19848,-0.37086 0.19258,-0.71191 -0.0204,-1.17934 -0.22562,-0.49519 -0.2225,-0.75053 0.0127,-1.03388 0.24109,-0.29049 0.23378,-0.52298 -0.0321,-1.0197 -0.28274,-0.52831 -0.28274,-0.71765 0,-1.05834 0.28274,-0.34068 0.28274,-0.53002 0,-1.05833 -0.28227,-0.52742 -0.28245,-0.718 -9.8e-4,-1.05715 0.26965,-0.3249 0.27653,-0.56041 0.0321,-1.09696 -0.23887,-0.52428 -0.23865,-0.77078 9.8e-4,-1.05952 0.24109,-0.29049 0.23378,-0.52298 -0.0321,-1.0197 -0.28274,-0.52831 -0.28274,-0.71765 0,-1.05834 0.28274,-0.34068 0.28274,-0.53002 0,-1.05833 -0.28274,-0.52831 -0.28274,-0.71765 0,-1.05833 0.28319,-0.34122 0.28078,-0.5337 -0.0136,-1.08368 -0.28369,-0.53008 -0.29149,-0.77512 -0.0376,-1.18161 0.25172,-0.40306 0.24942,-0.6263 -0.0108,-1.04292 -0.24897,-0.39865 -0.25711,-0.64465 -0.0328,-0.99219 0.22998,-0.35638 0.20138,-0.62852 -0.12499,-1.18949 -0.83542,-1.43589 -0.56329,-1.487 8.60393,-1.6158 7.52677,-0.10576 8.28768,-0.0763 8.65975,0.33479 0.36776,0.40637 0.36624,0.51023 -0.0155,1.05517 -0.34796,0.49678 -0.36576,0.71208 -0.0999,1.20878 0.24312,0.45428 0.24953,0.74244 0.0258,1.16049 -0.2253,0.42098 -0.2164,0.68623 0.0366,1.09141 0.27046,0.43307 0.26817,0.64111 -0.012,1.08977 -0.2914,0.4666 -0.28136,0.62626 0.0633,1.0071 0.36988,0.40871 0.36908,0.51044 -0.008,1.04919 -0.37448,0.53465 -0.37604,0.64299 -0.015,1.04342 0.3443,0.38187 0.35109,0.54296 0.0467,1.10828 -0.30437,0.56531 -0.29758,0.7264 0.0467,1.10828 0.36097,0.40037 0.35972,0.50841 -0.0121,1.03923 -0.38481,0.54939 -0.3761,0.6196 0.12007,0.96713 0.51006,0.35726 0.5142,0.40646 0.089,1.0554 -0.41181,0.6285 -0.41289,0.70486 -0.0141,0.99646 0.54776,0.40052 0.54286,0.62232 -0.0276,1.25271 -0.43629,0.48209 -0.43629,0.52473 0,0.84375 0.57611,0.42126 0.57611,0.63632 0,1.27291 -0.43737,0.48329 -0.43471,0.52588 0.0551,0.88404 0.49229,0.35997 0.49501,0.40946 0.0626,1.1414 -0.55373,0.93736 -0.56103,1.08035 -0.0551,1.08035 0.51239,0 0.50564,0.52072 -0.0164,1.26606 -0.37465,0.53489 -0.37465,0.60486 0,0.74863 0.53102,0.20377 0.52852,0.85903 -0.006,1.44915 -0.38487,0.42527 -0.37355,0.48703 0.13948,0.7616 0.54572,0.29206 0.54771,0.31723 0.0881,1.11708 -0.35316,0.61459 -0.38788,0.84732 -0.13948,0.93493 0.40644,0.14336 0.43285,0.92293 0.0444,1.31136 -0.20535,0.20535 -0.19082,0.4392 0.0514,0.82706 0.25922,0.41508 0.26772,0.69438 0.0366,1.20173 -0.23888,0.5243 -0.2236,0.72534 0.0739,0.97226 0.31648,0.26265 0.31996,0.42082 0.0223,1.01228 -0.19403,0.38554 -0.43092,1.02696 -0.52643,1.42537 -0.31824,1.32744 -3.25094,2.31833 -6.86146,2.31833 -1.62116,0 -1.95735,-0.0795 -2.23818,-0.52917 z m -5.18133,-39.81815 c -1.09552,-1.09551 -0.23213,-3.2019 2.48483,-6.06215 1.62598,-1.71173 2.26277,-2.80303 1.63562,-2.80303 -0.11314,0 -0.8384,0.71875 -1.61167,1.59724 -2.12947,2.4192 -2.31319,2.50186 -4.16839,1.87555 -0.84853,-0.28646 -1.74318,-0.76831 -1.9881,-1.07078 -0.24492,-0.30246 -0.5983,-0.54993 -0.78529,-0.54993 -0.187,0 -0.67248,-0.31855 -1.07886,-0.70788 -0.66463,-0.63676 -0.80352,-0.67329 -1.38225,-0.36357 -0.58238,0.31169 -0.71739,0.27219 -1.42419,-0.41659 -0.51453,-0.50142 -0.99,-1.43766 -1.39418,-2.74529 -0.33735,-1.09141 -0.84406,-2.24621 -1.12603,-2.56623 -0.29088,-0.33012 -0.44223,-0.76541 -0.34985,-1.00616 0.0896,-0.23336 -0.074,-1.27883 -0.3634,-2.32324 -0.63627,-2.29605 -0.66451,-3.94598 -0.10449,-6.10473 0.50879,-1.96128 0.37379,-3.30365 -0.68237,-6.78506 -1.39376,-4.59422 -1.58291,-6.55323 -0.93022,-9.63412 0.57576,-2.71779 1.74829,-4.99767 3.39923,-6.6095 2.74611,-2.68106 5.65383,-3.47097 10.04566,-2.72899 3.06711,0.51818 5.29355,1.48107 7.09874,3.07006 1.63064,1.43535 2.42854,2.66836 3.9816,6.15287 1.40027,3.14172 1.95413,4.03771 3.91745,6.3373 0.84729,0.99241 0.99536,1.26648 0.51374,0.95091 -0.63756,-0.41774 -0.78745,-0.41263 -2.59584,0.0885 -1.05557,0.29251 -2.0174,0.47115 -2.1374,0.39698 -0.12001,-0.0742 -0.36604,0.0433 -0.54673,0.261 -0.39728,0.4787 -0.14986,3.21587 0.41232,4.56135 0.34891,0.83505 0.42583,0.87544 1.36973,0.71918 0.79262,-0.13121 0.91774,-0.10139 0.60319,0.14379 -0.3373,0.26289 -0.32411,0.28573 0.0878,0.15209 0.26656,-0.0865 0.54148,-0.15725 0.61093,-0.15725 0.0694,0 0.0561,-0.11351 -0.0296,-0.25224 -0.18935,-0.30638 1.87759,-0.90076 2.4151,-0.6945 0.24204,0.0929 0.31403,0.0355 0.19571,-0.15593 -0.13309,-0.21534 0.0579,-0.25384 0.66087,-0.13324 0.52371,0.10474 0.78716,0.0711 0.68885,-0.088 -0.0875,-0.14167 0.0134,-0.19133 0.22442,-0.11037 0.21097,0.081 0.61334,-0.0994 0.89413,-0.4008 l 0.51054,-0.548 0.57334,1.25766 c 0.31534,0.69172 1.05563,2.44829 1.6451,3.9035 0.58948,1.45521 1.13847,2.79418 1.22,2.97549 0.0815,0.18131 -0.44411,0.90966 -1.16808,1.61855 -1.41752,1.388 -2.66336,1.81973 -3.32934,1.15375 -0.44074,-0.44074 -1.288,-0.0973 -2.07111,0.8395 -0.65399,0.78232 -0.59403,1.00422 0.24482,0.90613 0.63988,-0.0748 0.7175,-0.005 0.64375,0.57637 -0.40757,3.21489 -0.50436,2.87101 1.38979,4.93746 1.95574,2.13362 2.24077,3.0861 1.05809,3.53576 -0.37327,0.14192 -0.96858,0.25803 -1.32291,0.25803 -0.81907,0 -0.81743,0.38003 0.005,1.20265 0.3946,0.3946 0.95425,0.64944 1.42626,0.64944 0.69854,0 0.78972,0.1 0.90475,0.99218 0.1587,1.23087 -0.0997,1.51945 -1.93171,2.15716 -2.49341,0.86794 -6.55528,1.42538 -11.76436,1.6145 -2.7649,0.10038 -5.27722,0.26945 -5.58295,0.37571 -0.37057,0.1288 -0.70132,0.0478 -0.99219,-0.24312 z m -6.50318,-10.10461 c 0.45365,-1.1932 0.21999,-1.76208 -0.80978,-1.97152 -1.61467,-0.3284 -2.14831,0.82464 -0.9406,2.03235 0.84261,0.8426 1.41445,0.82273 1.75038,-0.0608 z m 11.6138,0.19849 c 0.53125,-0.99266 0.34345,-1.3409 -0.7183,-1.3319 -0.88167,0.007 -0.94061,0.0476 -0.52916,0.3599 0.25466,0.19331 0.46302,0.60625 0.46302,0.91763 0,0.70523 0.42051,0.73438 0.78444,0.0544 z m 6.5666,-0.65876 c 0.22796,-0.50032 0.21075,-0.70899 -0.0782,-0.94882 -0.52889,-0.43895 -0.9228,-0.0923 -0.9228,0.81205 0,0.95591 0.59102,1.03666 1.00104,0.13677 z m -13.70104,-1.57712 c -1.23693,-0.31721 -2.22898,-0.69196 -2.20457,-0.83278 0.0254,-0.14634 -0.51305,-0.21675 -1.25677,-0.16435 -0.71564,0.0504 -1.29934,0.16949 -1.29711,0.26459 0.0131,0.55886 0.65749,0.785 2.90637,1.01991 3.87604,0.40489 4.29689,0.33959 1.85208,-0.28737 z m 7.52739,0.0677 c 0.41755,-0.38278 -0.15176,-0.68135 -1.66035,-0.87077 -1.35374,-0.16998 -1.40563,-0.15353 -1.32292,0.4193 0.13058,0.90438 2.15503,1.21075 2.98327,0.45147 z m 8.56258,-4.18264 c 0.0662,-0.19844 -0.0331,-0.29766 -0.23151,-0.23151 -0.19099,0.0637 -0.39935,0.27202 -0.46302,0.46302 -0.0661,0.19844 0.0331,0.29766 0.23151,0.23151 0.191,-0.0637 0.39936,-0.27203 0.46302,-0.46302 z m -2.44809,-1.19421 c 0.26097,-0.39829 0.35533,-0.86775 0.24457,-1.21674 -0.15267,-0.48102 -0.0985,-0.54228 0.35266,-0.39907 1.11162,0.35282 1.05732,0.13581 -1.41832,-5.66794 -0.60639,-1.42158 -1.17912,-2.02455 -1.17912,-1.24136 0,0.21751 0.41671,1.36908 0.92604,2.55903 0.93766,2.19071 1.14272,3.175 0.66146,3.175 -0.14553,0 -0.26459,0.23813 -0.26459,0.52917 0,0.42837 -0.17639,0.52917 -0.92604,0.52917 -1.11304,0 -1.21231,0.47938 -0.33073,1.59716 0.73801,0.93574 1.38029,0.98077 1.93407,0.13558 z m -12.92476,-6.58152 c 0.46717,-0.17083 1.38351,-0.75767 2.03631,-1.30408 1.45356,-1.21668 4.78598,-6.12913 5.20288,-7.66977 0.98828,-3.65214 -1.5524,-9.30624 -5.12169,-11.39799 -2.85941,-1.67572 -6.50267,-1.27326 -8.09873,0.89464 -0.59471,0.80779 -0.60534,0.8819 -0.17194,1.19881 0.43366,0.3171 0.43602,0.44122 0.0386,2.02595 -1.11912,4.46236 0.0999,9.37495 2.98415,12.02643 1.09277,1.00455 1.18754,1.18053 0.89196,1.65621 -0.18191,0.29273 -0.33073,0.6782 -0.33073,0.85661 0,0.17841 -0.31687,0.57704 -0.70414,0.88584 -0.40878,0.32595 -0.6242,0.69081 -0.51355,0.86984 0.24362,0.39418 2.66707,0.36699 3.78689,-0.0425 z m -8.12545,-5.87535 c 0,-0.0774 -0.18133,-0.57476 -0.40295,-1.10517 -0.28435,-0.68055 -0.48566,-0.88168 -0.68397,-0.68337 -0.19832,0.19832 -0.15559,0.5236 0.14515,1.10518 0.36526,0.70633 0.94177,1.12466 0.94177,0.68336 z m 19.18229,-1.27032 c 0,-1.03313 -0.51452,-0.99092 -0.61419,0.0504 -0.0617,0.64424 0.011,0.85623 0.26458,0.7717 0.19228,-0.0641 0.34961,-0.43403 0.34961,-0.82209 z m 0.26137,-2.82741 c -0.14833,-0.24 -0.24665,-0.23268 -0.40928,0.0305 -0.27896,0.45136 -0.005,0.89481 0.33993,0.55 0.14552,-0.14552 0.17672,-0.40673 0.0694,-0.58046 z m -0.92283,-3.16703 c 0,-0.14399 -0.31443,-1.06672 -0.69872,-2.05052 -0.66487,-1.70207 -1.51489,-2.97059 -1.7997,-2.68579 -0.12635,0.12635 1.09151,3.32325 1.69696,4.45454 0.30174,0.56381 0.80146,0.7395 0.80146,0.28177 z m -4.23333,-8.25018 c 0,-0.43928 -0.80816,-1.2776 -1.23164,-1.2776 -0.50382,0 -0.44308,0.26994 0.21942,0.97513 0.62958,0.67016 1.01222,0.7845 1.01222,0.30247 z m -9.78152,43.40142 c -3.35136,-0.55653 -4.4911,-1.04947 -1.6681,-0.72146 2.83593,0.32951 5.09962,0.7963 5.09962,1.05157 0,0.12904 -0.0893,0.22094 -0.19844,0.20422 -0.10914,-0.0167 -1.56403,-0.25717 -3.23308,-0.53433 z m 17.9836,-27.22482 c 0,-0.28648 -0.14883,-0.52563 -0.33073,-0.53146 -0.1819,-0.006 0.004,-0.19183 0.41216,-0.41333 0.40859,-0.22151 0.94437,-0.34842 1.19062,-0.28204 0.36445,0.0982 0.33561,0.15664 -0.15499,0.31384 -0.42035,0.13469 -0.55807,0.33386 -0.45514,0.65817 0.0886,0.27916 -0.0142,0.52712 -0.25716,0.62036 -0.27882,0.10699 -0.40476,-0.007 -0.40476,-0.36554 z"
         id="path1586" />
      <path
         style="fill:#e7b40a;stroke-width:0.264583"
         d="m 163.31913,334.19519 c -0.38916,-0.62315 -1.33789,-0.68791 -2.06135,-0.14071 -0.66607,0.50379 -1.62357,0.50362 -3.05248,-5.2e-4 -1.45108,-0.51197 -2.24294,-1.25037 -2.49303,-2.3247 -0.27686,-1.18929 -0.34725,-12.34719 -0.0789,-12.51301 0.12196,-0.0754 0.0475,-0.38576 -0.16538,-0.68975 -0.28958,-0.41343 -0.31677,-0.68418 -0.10791,-1.07443 0.19848,-0.37086 0.19258,-0.71191 -0.0204,-1.17934 -0.22562,-0.49519 -0.2225,-0.75053 0.0127,-1.03388 0.24109,-0.29049 0.23378,-0.52298 -0.0321,-1.0197 -0.28274,-0.52831 -0.28274,-0.71765 0,-1.05834 0.28274,-0.34068 0.28274,-0.53002 0,-1.05833 -0.28227,-0.52742 -0.28245,-0.718 -9.8e-4,-1.05715 0.26965,-0.3249 0.27653,-0.56041 0.0321,-1.09696 -0.23887,-0.52428 -0.23865,-0.77078 9.8e-4,-1.05952 0.24109,-0.29049 0.23378,-0.52298 -0.0321,-1.0197 -0.28274,-0.52831 -0.28274,-0.71765 0,-1.05834 0.28274,-0.34068 0.28274,-0.53002 0,-1.05833 -0.28274,-0.52831 -0.28274,-0.71765 0,-1.05833 0.28319,-0.34122 0.28078,-0.5337 -0.0136,-1.08368 -0.28369,-0.53008 -0.29149,-0.77512 -0.0376,-1.18161 0.25172,-0.40306 0.24942,-0.6263 -0.0108,-1.04292 -0.24897,-0.39865 -0.25711,-0.64465 -0.0328,-0.99219 0.22998,-0.35638 0.20138,-0.62852 -0.12499,-1.18949 -0.83542,-1.43589 -0.56329,-1.487 8.60393,-1.6158 7.52677,-0.10576 8.28768,-0.0763 8.65975,0.33479 0.36776,0.40637 0.36624,0.51023 -0.0155,1.05517 -0.34796,0.49678 -0.36576,0.71208 -0.0999,1.20878 0.24312,0.45428 0.24953,0.74244 0.0258,1.16049 -0.2253,0.42098 -0.2164,0.68623 0.0366,1.09141 0.27046,0.43307 0.26817,0.64111 -0.012,1.08977 -0.2914,0.4666 -0.28136,0.62626 0.0633,1.0071 0.36988,0.40871 0.36908,0.51044 -0.008,1.04919 -0.37448,0.53465 -0.37604,0.64299 -0.015,1.04342 0.3443,0.38187 0.35109,0.54296 0.0467,1.10828 -0.30437,0.56531 -0.29758,0.7264 0.0467,1.10828 0.36097,0.40037 0.35972,0.50841 -0.0121,1.03923 -0.38481,0.54939 -0.3761,0.6196 0.12007,0.96713 0.51006,0.35726 0.5142,0.40646 0.089,1.0554 -0.41181,0.6285 -0.41289,0.70486 -0.0141,0.99646 0.54776,0.40052 0.54286,0.62232 -0.0276,1.25271 -0.43629,0.48209 -0.43629,0.52473 0,0.84375 0.57611,0.42126 0.57611,0.63632 0,1.27291 -0.43737,0.48329 -0.43471,0.52588 0.0551,0.88404 0.49229,0.35997 0.49501,0.40946 0.0626,1.1414 -0.55373,0.93736 -0.56103,1.08035 -0.0551,1.08035 0.51239,0 0.50564,0.52072 -0.0164,1.26606 -0.37465,0.53489 -0.37465,0.60486 0,0.74863 0.53102,0.20377 0.52852,0.85903 -0.006,1.44915 -0.38487,0.42527 -0.37355,0.48703 0.13948,0.7616 0.54572,0.29206 0.54771,0.31723 0.0881,1.11708 -0.35316,0.61459 -0.38788,0.84732 -0.13948,0.93493 0.40644,0.14336 0.43285,0.92293 0.0444,1.31136 -0.20535,0.20535 -0.19082,0.4392 0.0514,0.82706 0.25922,0.41508 0.26772,0.69438 0.0366,1.20173 -0.23888,0.5243 -0.2236,0.72534 0.0739,0.97226 0.31648,0.26265 0.31996,0.42082 0.0223,1.01228 -0.19403,0.38554 -0.43092,1.02696 -0.52643,1.42537 -0.31824,1.32744 -3.25094,2.31833 -6.86146,2.31833 -1.62116,0 -1.95735,-0.0795 -2.23818,-0.52917 z m -5.18133,-39.81815 c -1.09552,-1.09551 -0.23213,-3.2019 2.48483,-6.06215 1.62598,-1.71173 2.26277,-2.80303 1.63562,-2.80303 -0.11314,0 -0.8384,0.71875 -1.61167,1.59724 -2.12947,2.4192 -2.31319,2.50186 -4.16839,1.87555 -0.84853,-0.28646 -1.74318,-0.76831 -1.9881,-1.07078 -0.24492,-0.30246 -0.5983,-0.54993 -0.78529,-0.54993 -0.187,0 -0.67248,-0.31855 -1.07886,-0.70788 -0.66463,-0.63676 -0.80352,-0.67329 -1.38225,-0.36357 -0.58238,0.31169 -0.71739,0.27219 -1.42419,-0.41659 -0.51453,-0.50142 -0.99,-1.43766 -1.39418,-2.74529 -0.33735,-1.09141 -0.84406,-2.24621 -1.12603,-2.56623 -0.28894,-0.32792 -0.44205,-0.76589 -0.35084,-1.00357 0.089,-0.23195 -0.0811,-1.30736 -0.3781,-2.38979 -0.61841,-2.25411 -0.60919,-4.48305 0.0186,-4.5059 0.21828,-0.008 0.75406,-0.16675 1.19062,-0.35289 0.48991,-0.20888 1.26316,-0.27737 2.01999,-0.17892 0.67443,0.0877 1.53763,0.0411 1.91823,-0.10359 0.38059,-0.14471 0.69199,-0.16688 0.69199,-0.0493 0,0.25279 0.96691,0.21729 1.22934,-0.0451 0.1,-0.1 0.40424,-0.18178 0.67615,-0.18178 0.27191,0 0.78806,-0.19242 1.147,-0.42761 0.35894,-0.23518 0.89053,-0.36539 1.18131,-0.28935 0.34751,0.0909 0.5287,0.008 0.5287,-0.24215 0,-0.20923 0.20836,-0.45469 0.46302,-0.54547 0.25466,-0.0908 0.62568,-0.2917 0.82449,-0.44648 0.50353,-0.39202 2.17061,-0.95059 2.85137,-0.95537 0.31186,-0.002 0.63554,-0.18258 0.7193,-0.40086 0.0838,-0.21828 0.30599,-0.39687 0.49383,-0.39687 0.18785,0 0.48155,-0.2242 0.65268,-0.49823 0.30777,-0.49281 2.1974,-0.92878 2.1974,-0.50698 0,0.1163 0.21967,0.21146 0.48816,0.21146 0.6212,0 1.23007,0.67337 1.76372,1.95057 0.231,0.55285 0.77132,1.73045 1.20072,2.61689 0.81872,1.69016 0.9575,2.3117 0.51615,2.3117 -0.14553,0 -0.26459,0.23813 -0.26459,0.52917 0,0.42837 -0.17639,0.52917 -0.92604,0.52917 -0.70874,0 -0.92408,0.10865 -0.91768,0.46302 0.0109,0.60169 1.17257,1.91823 1.69264,1.91823 0.60289,0 1.28627,-1.19314 1.0713,-1.87044 -0.28514,-0.89839 0.46179,-0.50617 0.93187,0.48934 0.42691,0.9041 0.90878,1.09412 1.15401,0.45505 0.0838,-0.21828 0.33462,-0.39687 0.55747,-0.39687 0.61372,0 0.50287,-0.56181 -0.66408,-3.36571 -0.5881,-1.41304 -1.03458,-2.80677 -0.99219,-3.09716 0.0591,-0.40493 0.53876,-0.67233 2.05789,-1.14724 1.08945,-0.34059 2.46049,-0.685 3.04676,-0.76536 1.01837,-0.13958 1.08641,-0.10318 1.52452,0.81555 0.25222,0.5289 0.65203,1.03588 0.88846,1.1266 0.46131,0.17703 1.5002,2.31545 1.80575,3.71691 0.16782,0.76978 0.0686,0.97168 -0.99018,2.01551 -1.27927,1.26115 -2.54539,1.66804 -3.18869,1.02473 -0.44074,-0.44074 -1.288,-0.0973 -2.07111,0.8395 -0.65399,0.78232 -0.59403,1.00422 0.24482,0.90613 0.63988,-0.0748 0.7175,-0.005 0.64375,0.57637 -0.40757,3.21489 -0.50436,2.87101 1.38979,4.93746 1.95574,2.13362 2.24077,3.0861 1.05809,3.53576 -0.37327,0.14192 -0.96858,0.25803 -1.32291,0.25803 -0.81907,0 -0.81743,0.38003 0.005,1.20265 0.3946,0.3946 0.95425,0.64944 1.42626,0.64944 0.69854,0 0.78972,0.1 0.90475,0.99218 0.1587,1.23087 -0.0997,1.51945 -1.93171,2.15716 -2.49341,0.86794 -6.55528,1.42538 -11.76436,1.6145 -2.7649,0.10038 -5.27722,0.26945 -5.58295,0.37571 -0.37057,0.1288 -0.70132,0.0478 -0.99219,-0.24312 z m -6.50318,-10.10461 c 0.45365,-1.1932 0.21999,-1.76208 -0.80978,-1.97152 -1.61467,-0.3284 -2.14831,0.82464 -0.9406,2.03235 0.84261,0.8426 1.41445,0.82273 1.75038,-0.0608 z m 11.6138,0.19849 c 0.53125,-0.99266 0.34345,-1.3409 -0.7183,-1.3319 -0.88167,0.007 -0.94061,0.0476 -0.52916,0.3599 0.25466,0.19331 0.46302,0.60625 0.46302,0.91763 0,0.70523 0.42051,0.73438 0.78444,0.0544 z m 6.5666,-0.65876 c 0.22796,-0.50032 0.21075,-0.70899 -0.0782,-0.94882 -0.52889,-0.43895 -0.9228,-0.0923 -0.9228,0.81205 0,0.95591 0.59102,1.03666 1.00104,0.13677 z m -13.70104,-1.57712 c -1.23693,-0.31721 -2.22898,-0.69196 -2.20457,-0.83278 0.0254,-0.14634 -0.51305,-0.21675 -1.25677,-0.16435 -0.71564,0.0504 -1.29934,0.16949 -1.29711,0.26459 0.0131,0.55886 0.65749,0.785 2.90637,1.01991 3.87604,0.40489 4.29689,0.33959 1.85208,-0.28737 z m 7.52739,0.0677 c 0.41755,-0.38278 -0.15176,-0.68135 -1.66035,-0.87077 -1.35374,-0.16998 -1.40563,-0.15353 -1.32292,0.4193 0.13058,0.90438 2.15503,1.21075 2.98327,0.45147 z m 8.52089,-4.0783 c 0.0862,-0.22455 0.0853,-0.47964 -0.002,-0.56687 -0.22878,-0.22877 -0.98714,0.46091 -0.8143,0.74056 0.22582,0.36538 0.64345,0.27651 0.81621,-0.17369 z m -18.95063,14.13106 c -3.35136,-0.55653 -4.4911,-1.04947 -1.6681,-0.72146 2.83593,0.32951 5.09962,0.7963 5.09962,1.05157 0,0.12904 -0.0893,0.22094 -0.19844,0.20422 -0.10914,-0.0167 -1.56403,-0.25717 -3.23308,-0.53433 z m -6.4436,-24.4384 c -0.11711,-0.58208 -0.56049,-2.19613 -0.98529,-3.58678 -1.15791,-3.79059 -1.46796,-6.19662 -1.10194,-8.55099 0.79149,-5.09103 3.13929,-8.357 6.68616,-9.30092 2.10801,-0.561 3.76413,-0.5078 4.35014,0.13974 0.26339,0.29104 0.59989,0.52916 0.74778,0.52916 0.14789,0 0.46514,0.1776 0.70499,0.39467 0.23986,0.21707 1.06555,0.51404 1.83487,0.65994 1.74064,0.3301 2.67625,1.11244 4.43433,3.70789 1.42377,2.10191 3.04569,5.72929 2.9207,6.53206 -0.11991,0.77014 -0.48069,1.18808 -0.89,1.03101 -0.23318,-0.0895 -0.46843,0.0827 -0.6082,0.44499 -0.28713,0.74438 -0.4442,0.34738 -0.6486,-1.63935 -0.19487,-1.89405 -1.61695,-4.828 -3.17661,-6.55382 -1.74635,-1.93238 -3.6818,-2.83807 -5.989,-2.80251 -1.05522,0.0163 -2.10402,0.19818 -2.58932,0.44914 -0.44863,0.232 -1.10276,0.42182 -1.45361,0.42182 -0.52383,0 -0.617,0.10933 -0.52103,0.6114 0.0682,0.35658 -0.0574,0.75604 -0.30127,0.95844 -0.22998,0.19087 -0.41815,0.58349 -0.41815,0.87249 0,0.42836 0.12222,0.49477 0.66146,0.35943 0.7806,-0.19592 0.76257,-0.30538 0.26458,1.60654 -0.9773,3.75211 -0.13942,8.07236 2.15973,11.13597 0.35493,0.47294 0.53381,0.85989 0.39752,0.85989 -0.67006,0 -3.21871,-1.8313 -3.21871,-2.31276 0,-0.12665 -0.29786,-0.63399 -0.66191,-1.12743 -1.80861,-2.45143 -2.31854,-6.3136 -1.18234,-8.95479 0.32639,-0.7587 0.51721,-1.45567 0.42405,-1.54883 -0.28382,-0.28382 -1.49021,1.03408 -1.49021,1.62794 0,0.30605 -0.19462,0.83432 -0.43249,1.17392 -0.35902,0.51258 -0.41035,1.11895 -0.30218,3.57011 0.11447,2.59393 0.24524,3.2413 1.07637,5.3284 1.25176,3.14337 1.41481,3.83094 0.90846,3.83094 -0.21708,0 -0.46421,-0.26583 -0.54918,-0.59075 -0.21128,-0.80793 -0.63973,-0.31977 -0.75071,0.85534 l -0.0875,0.92604 z m 23.24787,0.41516 c -0.23715,-0.38372 0.34607,-0.61473 1.08424,-0.42946 0.41394,0.10389 0.60672,0.0677 0.50615,-0.095 -0.19408,-0.31404 1.86034,-0.91548 2.40854,-0.70511 0.24204,0.0929 0.31403,0.0355 0.19571,-0.15593 -0.13309,-0.21534 0.0579,-0.25384 0.66087,-0.13324 0.46642,0.0933 0.79401,0.0821 0.72799,-0.0249 -0.066,-0.10695 0.19118,-0.21318 0.57158,-0.23607 0.61317,-0.0369 0.63557,-0.0102 0.19746,0.23494 -0.8429,0.47171 -4.91612,1.50699 -5.31974,1.3521 -0.21045,-0.0807 -0.38264,-0.015 -0.38264,0.14606 0,0.356 -0.43947,0.38749 -0.65016,0.0466 z m -4.37692,-2.13495 c 0,-0.14552 0.11906,-0.26458 0.26458,-0.26458 0.14552,0 0.26459,0.11906 0.26459,0.26458 0,0.14552 -0.11907,0.26459 -0.26459,0.26459 -0.14552,0 -0.26458,-0.11907 -0.26458,-0.26459 z m 2.66672,-0.94809 c 0.0127,-0.30822 0.0754,-0.37092 0.15985,-0.15985 0.0764,0.191 0.067,0.4192 -0.0209,0.50712 -0.0879,0.0879 -0.15046,-0.0684 -0.13897,-0.34727 z m 2.88953,-0.11854 c 0,-0.28648 -0.14883,-0.52563 -0.33073,-0.53146 -0.1819,-0.006 0.004,-0.19183 0.41216,-0.41333 0.40859,-0.22151 0.94437,-0.34842 1.19062,-0.28204 0.36445,0.0982 0.33561,0.15664 -0.15499,0.31384 -0.42035,0.13469 -0.55807,0.33386 -0.45514,0.65817 0.0886,0.27916 -0.0142,0.52712 -0.25716,0.62036 -0.27882,0.10699 -0.40476,-0.007 -0.40476,-0.36554 z m -2.53673,-2.67504 c -0.0772,-0.12489 -0.075,-0.33276 0.005,-0.46193 0.14319,-0.23169 4.39387,-1.47241 4.47464,-1.3061 0.0229,0.0472 0.33931,0.43034 0.70311,0.8515 l 0.66146,0.76576 -0.68621,-0.43833 c -0.64819,-0.41405 -0.80622,-0.40358 -2.85184,0.18891 -1.1911,0.34499 -2.22878,0.52508 -2.30597,0.40019 z"
         id="path1584" />
      <path
         style="fill:#8a7849;stroke-width:0.264583"
         d="m 163.31913,334.19519 c -0.38916,-0.62315 -1.33789,-0.68791 -2.06135,-0.14071 -0.66607,0.50379 -1.62357,0.50362 -3.05248,-5.2e-4 -1.45108,-0.51197 -2.24294,-1.25037 -2.49303,-2.3247 -0.27686,-1.18929 -0.34725,-12.34719 -0.0789,-12.51301 0.12196,-0.0754 0.0475,-0.38576 -0.16538,-0.68975 -0.28958,-0.41343 -0.31677,-0.68418 -0.10791,-1.07443 0.19848,-0.37086 0.19258,-0.71191 -0.0204,-1.17934 -0.22562,-0.49519 -0.2225,-0.75053 0.0127,-1.03388 0.24109,-0.29049 0.23378,-0.52298 -0.0321,-1.0197 -0.28274,-0.52831 -0.28274,-0.71765 0,-1.05834 0.28274,-0.34068 0.28274,-0.53002 0,-1.05833 -0.28227,-0.52742 -0.28245,-0.718 -9.8e-4,-1.05715 0.26965,-0.3249 0.27653,-0.56041 0.0321,-1.09696 -0.23887,-0.52428 -0.23865,-0.77078 9.8e-4,-1.05952 0.24109,-0.29049 0.23378,-0.52298 -0.0321,-1.0197 -0.28274,-0.52831 -0.28274,-0.71765 0,-1.05834 0.28274,-0.34068 0.28274,-0.53002 0,-1.05833 -0.28274,-0.52831 -0.28274,-0.71765 0,-1.05833 0.28319,-0.34122 0.28078,-0.5337 -0.0136,-1.08368 -0.28369,-0.53008 -0.29149,-0.77512 -0.0376,-1.18161 0.25172,-0.40306 0.24942,-0.6263 -0.0108,-1.04292 -0.24897,-0.39865 -0.25711,-0.64465 -0.0328,-0.99219 0.22998,-0.35638 0.20138,-0.62852 -0.12499,-1.18949 -0.83542,-1.43589 -0.56329,-1.487 8.60393,-1.6158 7.52677,-0.10576 8.28768,-0.0763 8.65975,0.33479 0.36776,0.40637 0.36624,0.51023 -0.0155,1.05517 -0.34796,0.49678 -0.36576,0.71208 -0.0999,1.20878 0.24312,0.45428 0.24953,0.74244 0.0258,1.16049 -0.2253,0.42098 -0.2164,0.68623 0.0366,1.09141 0.27046,0.43307 0.26817,0.64111 -0.012,1.08977 -0.2914,0.4666 -0.28136,0.62626 0.0633,1.0071 0.36988,0.40871 0.36908,0.51044 -0.008,1.04919 -0.37448,0.53465 -0.37604,0.64299 -0.015,1.04342 0.3443,0.38187 0.35109,0.54296 0.0467,1.10828 -0.30437,0.56531 -0.29758,0.7264 0.0467,1.10828 0.36097,0.40037 0.35972,0.50841 -0.0121,1.03923 -0.38481,0.54939 -0.3761,0.6196 0.12007,0.96713 0.51006,0.35726 0.5142,0.40646 0.089,1.0554 -0.41181,0.6285 -0.41289,0.70486 -0.0141,0.99646 0.54776,0.40052 0.54286,0.62232 -0.0276,1.25271 -0.43629,0.48209 -0.43629,0.52473 0,0.84375 0.57611,0.42126 0.57611,0.63632 0,1.27291 -0.43737,0.48329 -0.43471,0.52588 0.0551,0.88404 0.49229,0.35997 0.49501,0.40946 0.0626,1.1414 -0.55373,0.93736 -0.56103,1.08035 -0.0551,1.08035 0.51239,0 0.50564,0.52072 -0.0164,1.26606 -0.37465,0.53489 -0.37465,0.60486 0,0.74863 0.53102,0.20377 0.52852,0.85903 -0.006,1.44915 -0.38487,0.42527 -0.37355,0.48703 0.13948,0.7616 0.54572,0.29206 0.54771,0.31723 0.0881,1.11708 -0.35316,0.61459 -0.38788,0.84732 -0.13948,0.93493 0.40644,0.14336 0.43285,0.92293 0.0444,1.31136 -0.20535,0.20535 -0.19082,0.4392 0.0514,0.82706 0.25922,0.41508 0.26772,0.69438 0.0366,1.20173 -0.23888,0.5243 -0.2236,0.72534 0.0739,0.97226 0.31648,0.26265 0.31996,0.42082 0.0223,1.01228 -0.19403,0.38554 -0.43092,1.02696 -0.52643,1.42537 -0.31824,1.32744 -3.25094,2.31833 -6.86146,2.31833 -1.62116,0 -1.95735,-0.0795 -2.23818,-0.52917 z m -5.18133,-39.81815 c -1.09552,-1.09551 -0.23213,-3.2019 2.48483,-6.06215 1.62598,-1.71173 2.26277,-2.80303 1.63562,-2.80303 -0.11314,0 -0.8384,0.71875 -1.61167,1.59724 -2.12947,2.4192 -2.31319,2.50186 -4.16839,1.87555 -0.84853,-0.28646 -1.74318,-0.76831 -1.9881,-1.07078 -0.24492,-0.30246 -0.5983,-0.54993 -0.78529,-0.54993 -0.187,0 -0.67795,-0.32378 -1.09101,-0.71952 -0.64226,-0.61533 -0.82583,-0.6728 -1.26766,-0.39688 -0.79871,0.49881 -1.12913,0.39747 -0.9558,-0.29313 0.11809,-0.4705 -0.0624,-0.82608 -0.76507,-1.50711 -0.79844,-0.77389 -0.91961,-1.0588 -0.91961,-2.16235 0,-1.05903 -0.0814,-1.27101 -0.48816,-1.27101 -0.53102,0 -1.36393,-0.78019 -1.36393,-1.2776 0,-0.377 -0.22597,-0.38325 3.30729,0.0915 1.60073,0.21506 4.10105,0.46277 5.55625,0.55046 1.45521,0.0877 3.08081,0.26809 3.61244,0.40087 0.80659,0.20147 1.46165,0.0816 3.95724,-0.72393 2.77488,-0.89572 3.07879,-0.94277 4.21261,-0.65218 1.0245,0.26257 1.43255,0.2422 2.52505,-0.12604 1.86615,-0.62902 2.19566,-0.84132 2.77146,-1.78564 0.7375,-1.20954 0.65097,-1.9567 -0.57437,-4.95958 -0.656,-1.60763 -0.99432,-2.76812 -0.84929,-2.91316 0.13259,-0.13259 1.25722,-0.50375 2.49918,-0.82481 l 2.2581,-0.58374 1.20452,1.00685 c 1.67501,1.40013 2.43873,2.8474 2.44013,4.62404 0.001,1.29077 -0.0818,1.4952 -0.87381,2.15638 -1.03053,0.86032 -2.23609,1.11186 -2.76999,0.57796 -0.44074,-0.44074 -1.288,-0.0973 -2.07111,0.8395 -0.65399,0.78232 -0.59403,1.00422 0.24482,0.90613 0.63988,-0.0748 0.7175,-0.005 0.64375,0.57637 -0.40757,3.21489 -0.50436,2.87101 1.38979,4.93746 1.95574,2.13362 2.24077,3.0861 1.05809,3.53576 -0.37327,0.14192 -0.96858,0.25803 -1.32291,0.25803 -0.81907,0 -0.81743,0.38003 0.005,1.20265 0.3946,0.3946 0.95425,0.64944 1.42626,0.64944 0.69854,0 0.78972,0.1 0.90475,0.99218 0.1587,1.23087 -0.0997,1.51945 -1.93171,2.15716 -2.49341,0.86794 -6.55528,1.42538 -11.76436,1.6145 -2.7649,0.10038 -5.27722,0.26945 -5.58295,0.37571 -0.37057,0.1288 -0.70132,0.0478 -0.99219,-0.24312 z m -6.50318,-10.10461 c 0.45365,-1.1932 0.21999,-1.76208 -0.80978,-1.97152 -1.61467,-0.3284 -2.14831,0.82464 -0.9406,2.03235 0.84261,0.8426 1.41445,0.82273 1.75038,-0.0608 z m 11.6138,0.19849 c 0.53125,-0.99266 0.34345,-1.3409 -0.7183,-1.3319 -0.88167,0.007 -0.94061,0.0476 -0.52916,0.3599 0.25466,0.19331 0.46302,0.60625 0.46302,0.91763 0,0.70523 0.42051,0.73438 0.78444,0.0544 z m 6.5666,-0.65876 c 0.22796,-0.50032 0.21075,-0.70899 -0.0782,-0.94882 -0.52889,-0.43895 -0.9228,-0.0923 -0.9228,0.81205 0,0.95591 0.59102,1.03666 1.00104,0.13677 z m -13.70104,-1.57712 c -1.23693,-0.31721 -2.22898,-0.69196 -2.20457,-0.83278 0.0254,-0.14634 -0.51305,-0.21675 -1.25677,-0.16435 -0.71564,0.0504 -1.29934,0.16949 -1.29711,0.26459 0.0131,0.55886 0.65749,0.785 2.90637,1.01991 3.87604,0.40489 4.29689,0.33959 1.85208,-0.28737 z m 7.52739,0.0677 c 0.41755,-0.38278 -0.15176,-0.68135 -1.66035,-0.87077 -1.35374,-0.16998 -1.40563,-0.15353 -1.32292,0.4193 0.13058,0.90438 2.15503,1.21075 2.98327,0.45147 z m -10.42974,10.05276 c -3.35136,-0.55653 -4.4911,-1.04947 -1.6681,-0.72146 2.83593,0.32951 5.09962,0.7963 5.09962,1.05157 0,0.12904 -0.0893,0.22094 -0.19844,0.20422 -0.10914,-0.0167 -1.56403,-0.25717 -3.23308,-0.53433 z m 4.34397,-12.55218 c -1.56861,-0.76168 -2.17788,-2.93058 -1.30008,-4.62807 0.37042,-0.71631 0.36754,-0.80017 -0.0327,-0.95378 -0.26899,-0.10321 -0.53371,10e-4 -0.68386,0.26934 -0.13473,0.24077 -0.43804,0.43775 -0.67401,0.43775 -0.23598,0 -0.63928,0.19026 -0.89623,0.4228 -0.55951,0.50635 -1.11175,0.25256 -0.90028,-0.41373 0.0922,-0.2904 -0.007,-0.53604 -0.25382,-0.63089 -0.48086,-0.18452 -0.52657,-0.73803 -0.0965,-1.16814 0.23466,-0.23467 0.38791,-0.19991 0.64169,0.14552 0.3026,0.4119 0.3601,0.38388 0.62246,-0.30341 0.21576,-0.5652 0.4196,-0.7231 0.80379,-0.62263 0.2831,0.074 0.65274,-0.0317 0.82143,-0.23495 0.16869,-0.20327 0.45161,-0.36957 0.62872,-0.36957 0.37549,0 0.93611,1.11663 0.93611,1.86454 0,0.41688 0.18404,0.51671 0.9525,0.51671 0.73046,0 1.16221,0.20971 1.85209,0.89959 0.78527,0.78527 0.89958,1.06918 0.89958,2.2342 0,2.18389 -1.57216,3.38387 -3.32088,2.53472 z m 9.85801,-2.23306 c -0.88481,-0.69599 -1.34702,-2.07556 -1.00063,-2.98662 0.38504,-1.01274 1.37696,-1.58162 2.20729,-1.26593 0.71424,0.27156 1.2073,0.8171 0.73849,0.8171 -0.15411,0 -0.2802,0.23813 -0.2802,0.52917 0,0.42837 -0.17639,0.52917 -0.92604,0.52917 -0.70874,0 -0.92408,0.10865 -0.91768,0.46302 0.0109,0.60169 1.17257,1.91823 1.69264,1.91823 0.58479,0 1.28626,-1.19317 1.08124,-1.83913 -0.10008,-0.31531 -0.0539,-0.54212 0.11035,-0.54212 0.15532,0 0.28241,0.46949 0.28241,1.04333 0,1.71888 -1.5938,2.43035 -2.98787,1.33378 z m -15.87574,-2.46397 c -0.51143,-0.78055 -0.57771,-1.23606 -0.17984,-1.23606 0.30583,0 0.85101,1.26378 0.7177,1.66371 -0.0478,0.14335 -0.28982,-0.0491 -0.53786,-0.42765 z m 6.71254,-2.64235 c -0.39158,-1.02572 -0.3635,-1.17876 0.25222,-1.37418 0.37666,-0.11955 0.68943,0.0131 1.04953,0.44519 0.63101,0.75712 0.67153,1.12307 0.10008,0.90378 -0.25725,-0.0987 -0.56873,0.023 -0.77399,0.30242 -0.31695,0.4315 -0.36546,0.41008 -0.62784,-0.27721 z m 2.27329,-0.62218 c -0.097,-0.097 -0.17639,-0.3536 -0.17639,-0.57017 0,-0.3324 0.0755,-0.32543 0.48449,0.0447 0.5276,0.47746 0.88655,0.34141 0.6596,-0.25002 -0.17067,-0.44476 0.33229,-0.50028 0.60051,-0.0663 0.32999,0.53394 -1.10551,1.30451 -1.56821,0.84181 z m 9.81163,-3.96759 c 0.1819,-0.0734 0.47956,-0.0734 0.66146,0 0.1819,0.0734 0.0331,0.13345 -0.33073,0.13345 -0.3638,0 -0.51263,-0.0601 -0.33073,-0.13345 z m 1.18531,-0.23838 c 0.20354,-0.20353 2.88681,-0.90712 3.37876,-0.88595 0.21828,0.009 -0.37704,0.24565 -1.32292,0.525 -1.77465,0.52411 -2.31363,0.61874 -2.05584,0.36095 z m -0.32541,-2.50511 c 0,-0.28648 -0.14883,-0.52563 -0.33073,-0.53146 -0.1819,-0.006 0.004,-0.19183 0.41216,-0.41333 0.40859,-0.22151 0.94437,-0.34842 1.19062,-0.28204 0.36445,0.0982 0.33561,0.15664 -0.15499,0.31384 -0.42035,0.13469 -0.55807,0.33386 -0.45514,0.65817 0.0886,0.27916 -0.0142,0.52712 -0.25716,0.62036 -0.27882,0.10699 -0.40476,-0.007 -0.40476,-0.36554 z m -2.12143,-2.76408 c 0.1421,-0.17122 1.1559,-0.53481 2.25288,-0.80798 l 1.99452,-0.49667 0.59066,0.6152 0.59066,0.61521 -0.68621,-0.43208 c -0.6449,-0.40607 -0.81609,-0.39446 -2.84354,0.19277 -1.22611,0.35513 -2.04581,0.49048 -1.89897,0.31355 z"
         id="path1582" />
      <path
         style="fill:#5b595a;stroke-width:0.264583"
         d="m 163.31913,334.19519 c -0.40308,-0.64544 -1.18592,-0.67628 -2.18504,-0.0861 -0.65472,0.38675 -0.93538,0.40161 -2.20748,0.11693 -1.79899,-0.4026 -2.67533,-1.06595 -3.10466,-2.35009 -0.369,-1.10366 -0.51789,-8.22287 -0.17639,-8.43393 0.11686,-0.0722 0.12529,-0.27191 0.0187,-0.44376 -0.32561,-0.52514 -0.3359,-3.46126 -0.0128,-3.66092 0.21318,-0.13175 0.19904,-0.30016 -0.0505,-0.60077 -0.21515,-0.25924 -0.28484,-0.72676 -0.1837,-1.23245 0.0896,-0.44811 0.0366,-1.05074 -0.11771,-1.33917 -0.20421,-0.38156 -0.19299,-0.63006 0.0412,-0.91222 0.24886,-0.29986 0.25125,-0.54272 0.0105,-1.07103 -0.23888,-0.52428 -0.23865,-0.77078 9.8e-4,-1.05952 0.24109,-0.29049 0.23378,-0.52297 -0.0321,-1.0197 -0.28227,-0.52742 -0.28245,-0.718 -9.8e-4,-1.05715 0.25319,-0.30508 0.27105,-0.57245 0.068,-1.01814 -0.18569,-0.40756 -0.18881,-0.75912 -0.01,-1.07939 0.18216,-0.3255 0.17086,-0.68332 -0.0359,-1.13715 -0.22799,-0.50039 -0.22541,-0.75412 0.0106,-1.03847 0.24108,-0.29049 0.23377,-0.52297 -0.0321,-1.0197 -0.28274,-0.52831 -0.28274,-0.71765 0,-1.05833 0.28319,-0.34122 0.28078,-0.5337 -0.0136,-1.08368 -0.28369,-0.53008 -0.29149,-0.77512 -0.0376,-1.18161 0.25167,-0.40298 0.24948,-0.62619 -0.0102,-1.042 -0.26575,-0.42554 -0.26265,-0.63777 0.0158,-1.08368 0.29183,-0.46729 0.28103,-0.62664 -0.0686,-1.01302 -0.54011,-0.59681 -0.52509,-1.00266 0.0481,-1.29941 0.63919,-0.33093 16.2654,-0.57606 16.82319,-0.26391 0.51286,0.28701 0.57778,1.03602 0.12872,1.48509 -0.23982,0.23981 -0.23057,0.46458 0.0399,0.96993 0.28932,0.5406 0.29069,0.73171 0.008,1.0727 -0.27782,0.33477 -0.28031,0.53457 -0.0129,1.03428 0.25019,0.46748 0.25849,0.75576 0.0338,1.17552 -0.22531,0.42098 -0.2164,0.68623 0.0366,1.0914 0.27046,0.43308 0.26817,0.64112 -0.012,1.08977 -0.2914,0.46661 -0.28136,0.62627 0.0633,1.00711 0.36988,0.40871 0.36908,0.51044 -0.008,1.04919 -0.38287,0.54662 -0.38021,0.63819 0.0317,1.09336 0.41495,0.4585 0.41676,0.54362 0.0236,1.10502 -0.39928,0.57005 -0.39171,0.63414 0.12042,1.02045 l 0.54646,0.41219 -0.55201,0.70176 -0.552,0.70176 0.55554,0.29732 c 0.5198,0.27819 0.52885,0.33805 0.14065,0.93052 -0.5215,0.79585 -0.52738,1.18098 -0.018,1.18098 0.21828,0 0.39687,0.16401 0.39687,0.36448 0,0.20046 -0.17859,0.5127 -0.39687,0.69385 -0.21828,0.18116 -0.39688,0.4934 -0.39688,0.69386 0,0.20046 0.1786,0.36448 0.39688,0.36448 0.21828,0 0.39687,0.16401 0.39687,0.36448 0,0.20046 -0.17859,0.51269 -0.39687,0.69385 -0.21828,0.18116 -0.39688,0.49339 -0.39688,0.69385 0,0.20047 0.1786,0.36448 0.39688,0.36448 0.49971,0 0.49607,0.50805 -0.008,1.17505 -0.49498,0.65442 -0.49241,0.94162 0.008,0.94162 0.21828,0 0.39687,0.22355 0.39687,0.49677 0,0.27322 -0.17859,0.64499 -0.39687,0.82615 -0.21828,0.18115 -0.39688,0.43386 -0.39688,0.56156 0,0.1277 0.1786,0.23219 0.39688,0.23219 0.48316,0 0.51256,0.60498 0.0661,1.36107 -0.26458,0.44812 -0.26458,0.5841 0,0.67992 0.40645,0.14719 0.43278,0.92613 0.0444,1.31448 -0.20536,0.20535 -0.19082,0.4392 0.0514,0.82706 0.24874,0.3983 0.26408,0.70275 0.0582,1.15568 -0.19306,0.42477 -0.19487,0.74865 -0.006,1.04743 0.36992,0.58472 -0.54297,2.80352 -1.4165,3.44283 -0.97424,0.71303 -3.55403,1.28403 -5.80125,1.28403 -1.71089,0 -2.04484,-0.0759 -2.32791,-0.52917 z m -5.19332,-39.99318 c -0.88874,-1.26886 -0.34098,-2.60685 2.27709,-5.56218 2.2331,-2.52077 3.1165,-4.06008 3.27004,-5.698 0.0954,-1.01747 0.0326,-1.18255 -0.55066,-1.4483 -0.36206,-0.16497 -0.6583,-0.39019 -0.6583,-0.50049 0,-0.1103 0.77338,-0.45791 1.71863,-0.77246 1.33632,-0.4447 2.08673,-0.53852 3.37343,-0.42177 3.28568,0.29814 6.01931,-1.42023 6.0212,-3.78493 7.9e-4,-0.89575 -0.88569,-3.46119 -1.77738,-5.14412 -0.24501,-0.46243 -0.30366,-0.84596 -0.15247,-0.99714 0.21017,-0.21018 3.61719,-1.2941 4.06764,-1.2941 0.47951,0 2.74136,2.10331 3.17416,2.95167 0.89717,1.75859 0.49074,4.28713 -0.80014,4.97799 -0.65093,0.34837 -1.86674,0.35348 -1.86674,0.008 0,-0.61229 -1.18493,-0.19288 -2.01483,0.71317 -1.08809,1.18791 -1.11197,1.4035 -0.15544,1.4035 h 0.74014 l -0.10817,1.69887 -0.10818,1.69886 1.74928,1.86254 c 1.96542,2.09266 2.25333,3.02786 1.0706,3.47753 -0.37327,0.14192 -0.96858,0.25803 -1.32291,0.25803 -1.35895,0 -0.16293,1.697 1.419,2.01338 0.77298,0.1546 0.84718,0.25659 0.84718,1.16455 0,0.86359 -0.11365,1.04841 -0.8599,1.39834 -2.29916,1.07815 -6.80295,1.78177 -12.89843,2.01512 -2.83766,0.10863 -5.35539,0.28535 -5.59495,0.39271 -0.29921,0.13409 -0.5684,0.006 -0.85989,-0.41061 z m 11.7991,-10.41972 c 0.24914,-0.5468 0.22827,-0.7488 -0.11258,-1.08964 -0.58216,-0.58216 -0.99835,-0.22762 -0.99835,0.85045 0,1.1071 0.65156,1.24739 1.11093,0.23919 z m -14.65429,8.69258 c 0.191,-0.0764 0.4192,-0.067 0.50712,0.0209 0.0879,0.0879 -0.0683,0.15046 -0.34727,0.13897 -0.30822,-0.0127 -0.37092,-0.0754 -0.15985,-0.15985 z m -2.59622,-0.3614 c -0.44608,-0.15161 -0.2307,-0.17506 0.66145,-0.072 0.72761,0.084 1.37253,0.19707 1.43316,0.25118 0.20835,0.18595 -1.43358,0.0455 -2.09461,-0.17916 z m 3.83645,-3.91445 c -0.43656,-0.26723 -1.22133,-0.89186 -1.74392,-1.38808 -0.5226,-0.49621 -1.38104,-1.19986 -1.90765,-1.56367 -0.836,-0.57754 -0.95317,-0.79075 -0.92362,-1.68056 l 0.0338,-1.01911 1.8738,0.1761 c 1.03059,0.0969 3.29878,0.38363 5.04043,0.63728 2.96166,0.43132 3.17757,0.50301 3.33575,1.10759 0.14183,0.54205 -0.11195,0.93473 -1.57202,2.43235 -1.92609,1.97562 -2.6557,2.20457 -4.13661,1.2981 z m 0.41636,-6.08125 c -3.2821,-0.58215 -3.52847,-1.11131 -0.50455,-1.0837 2.37428,0.0217 4.05694,0.46207 4.05694,1.06181 0,0.52455 -0.69432,0.52883 -3.55239,0.0219 z m -6.75921,-0.0339 c -0.086,-0.13917 -0.32525,-0.18823 -0.53164,-0.10903 -0.27559,0.10575 -0.36117,-0.0538 -0.32225,-0.60084 0.0488,-0.68627 -0.035,-0.75706 -1.06657,-0.90029 -0.61576,-0.0855 -1.20115,-0.23704 -1.30087,-0.33676 -0.2505,-0.25051 0.1747,-0.22156 3.21418,0.21882 1.45521,0.21083 2.73513,0.38565 2.84428,0.38848 0.10914,0.003 0.19843,0.13746 0.19843,0.29918 0,0.19473 -0.32432,0.23318 -0.96041,0.11385 -0.92262,-0.17308 -0.95529,-0.15342 -0.83044,0.49972 0.10914,0.5709 0.0323,0.6799 -0.47918,0.6799 -0.33503,0 -0.67952,-0.11387 -0.76553,-0.25303 z m 0.25744,-0.80531 c 0.0899,-0.14552 0.0374,-0.26458 -0.11668,-0.26458 -0.15411,0 -0.2802,0.11906 -0.2802,0.26458 0,0.14552 0.0525,0.26459 0.11668,0.26459 0.0642,0 0.19026,-0.11907 0.2802,-0.26459 z m 6.61331,-2.22617 c -1.83773,-1.83773 -0.59091,-5.28907 1.62872,-4.50847 0.95254,0.33499 1.94443,1.81517 1.94443,2.90163 0,2.01414 -2.1838,2.99619 -3.57315,1.60684 z m 10.24491,-4.08289 c -0.56645,-0.35942 -0.0707,-1.09927 0.73657,-1.09927 0.67194,0 1.05833,0.39429 1.05833,1.07997 0,0.29976 -1.33036,0.31406 -1.7949,0.0193 z"
         id="path1580" />
      <path
         style="fill:#27272b;stroke-width:0.264583"
         d="m 163.58622,333.95718 c -0.39984,-0.66733 -1.35767,-0.72122 -2.48229,-0.13966 -1.39709,0.72246 -4.46078,-0.26526 -4.46078,-1.43813 0,-0.27536 -0.1786,-0.64888 -0.39688,-0.83003 -0.52551,-0.43614 -0.50569,-1.22455 0.036,-1.43242 0.40079,-0.1538 0.40079,-0.20158 0,-0.64445 -0.54179,-0.59867 -0.56198,-1.36272 -0.036,-1.36272 0.21828,0 0.39688,-0.10448 0.39688,-0.23218 0,-0.12771 -0.1786,-0.38041 -0.39688,-0.56157 -0.56402,-0.46809 -0.4911,-1.08323 0.14824,-1.25042 0.52573,-0.13748 0.51937,-0.16941 -0.17915,-0.89851 -0.67922,-0.70895 -0.72156,-1.4875 -0.044,-0.80999 0.33919,0.3392 1.53017,0.43405 1.53017,0.12187 0,-0.10517 -0.50602,-0.6289 -1.12448,-1.16383 -1.23001,-1.06388 -1.25047,-1.53187 -0.0394,-0.90027 0.42183,0.21999 1.00509,0.39556 1.29613,0.39015 0.40903,-0.008 0.20047,-0.30425 -0.91863,-1.30665 -1.40875,-1.26184 -1.68751,-1.94205 -0.54537,-1.3308 0.31113,0.16651 0.76781,0.26013 1.01485,0.20804 0.34793,-0.0734 0.19573,-0.32543 -0.67533,-1.11847 -1.17834,-1.0728 -1.48421,-1.67726 -0.6127,-1.21084 0.28147,0.15064 0.84702,0.26932 1.25677,0.26372 0.73792,-0.0101 0.73303,-0.0207 -0.51393,-1.12447 -0.69241,-0.61288 -1.25795,-1.18958 -1.25677,-1.28158 0.001,-0.092 0.44864,-0.008 0.99434,0.18683 1.11831,0.39909 2.26179,0.5033 1.71509,0.1563 -0.18448,-0.1171 -0.86909,-0.6678 -1.52135,-1.22379 -1.23446,-1.05226 -1.58144,-1.69591 -0.64368,-1.19403 0.29824,0.15961 0.84396,0.25309 1.21271,0.20774 0.64807,-0.0797 0.65425,-0.0981 0.18535,-0.55125 -0.26681,-0.25784 -0.81252,-0.71297 -1.2127,-1.01139 -0.85448,-0.63721 -0.9895,-1.19214 -0.18536,-0.76177 0.29824,0.15961 0.84396,0.2531 1.21271,0.20775 0.64807,-0.0797 0.65425,-0.0981 0.18535,-0.55126 -0.26681,-0.25784 -0.81252,-0.71296 -1.2127,-1.01139 -0.96494,-0.71958 -0.91808,-1.03335 0.15434,-1.03335 1.28549,0 1.36844,-0.28352 0.26507,-0.90597 -1.31045,-0.73928 -1.36582,-1.11076 -0.19818,-1.32981 l 0.97186,-0.18232 -0.96035,-0.65258 c -0.52819,-0.35891 -0.96035,-0.74634 -0.96035,-0.86095 0,-0.11461 0.44649,-0.31867 0.99219,-0.45348 l 0.99219,-0.2451 -1.0131,-0.59873 c -1.19141,-0.70411 -1.15262,-1.20136 0.10809,-1.38565 l 0.90501,-0.13229 -0.99219,-0.58639 c -1.2872,-0.76074 -1.31735,-1.39798 -0.0661,-1.39798 1.18486,0 1.17094,-0.263 -0.049,-0.92605 -1.20076,-0.65262 -1.43475,-1.19062 -0.51783,-1.19062 0.36734,0 0.74148,-0.11906 0.83142,-0.26458 0.10209,-0.1652 2.69788,-0.26459 6.91039,-0.26459 5.0247,0 6.69879,0.0778 6.55847,0.30486 -0.13569,0.21955 0.11905,0.26361 0.91043,0.15747 1.75882,-0.23591 1.3064,0.47639 -0.96556,1.52019 l -1.24084,0.57009 1.41781,0.0323 c 0.7798,0.0177 1.47586,0.0904 1.54682,0.16131 0.26789,0.26788 -0.29823,0.77247 -1.47948,1.31867 l -1.22263,0.56533 1.38907,0.08 c 1.76012,0.10134 1.80186,0.54133 0.13229,1.39449 l -1.25677,0.64221 1.25677,0.0806 c 0.87407,0.0561 1.25677,0.19554 1.25677,0.45795 0,0.20752 -0.56555,0.6717 -1.25677,1.03152 l -1.25677,0.65421 1.24115,0.0123 c 0.68264,0.007 1.30491,0.11547 1.38283,0.24154 0.2011,0.32539 -0.64796,1.0289 -1.71512,1.42112 l -0.90886,0.33402 1.26326,0.13229 c 0.6948,0.0728 1.29011,0.24561 1.32292,0.3841 0.0546,0.2304 -0.73371,0.86437 -2.85077,2.2927 l -0.79375,0.53553 1.19063,-0.18056 c 0.65484,-0.0993 1.57758,-0.33975 2.05052,-0.53433 0.47294,-0.19457 0.8599,-0.24889 0.8599,-0.1207 0,0.26288 -1.21429,1.1544 -1.91823,1.40836 -0.25467,0.0919 -0.46302,0.29559 -0.46302,0.45271 0,0.15711 -0.38696,0.46465 -0.8599,0.68343 l -0.8599,0.39778 1.26133,-0.14153 c 0.69374,-0.0778 1.61647,-0.32518 2.05052,-0.54964 0.43406,-0.22446 0.7892,-0.29463 0.7892,-0.15593 0,0.31278 -1.19926,1.27401 -1.84534,1.47906 -0.26333,0.0836 -0.54351,0.3995 -0.62263,0.70204 -0.15046,0.57538 0.0673,0.58345 1.87265,0.0694 0.93135,-0.26521 0.69852,0.26381 -0.39687,0.90177 -0.54571,0.31781 -1.34938,0.87493 -1.78594,1.23803 l -0.79375,0.66019 0.66146,-0.0103 c 0.3638,-0.006 1.13771,-0.18187 1.71979,-0.39157 1.26166,-0.45453 1.19063,-0.4449 1.19063,-0.16143 0,0.1253 -0.53579,0.51205 -1.19063,0.85944 -1.39961,0.74249 -1.6982,1.70577 -0.46302,1.49373 0.40018,-0.0687 0.95221,-0.22024 1.22673,-0.33677 1.06922,-0.45388 0.23152,0.53497 -0.98244,1.1597 -0.68006,0.34997 -1.23648,0.79009 -1.23648,0.97805 0,0.18795 -0.20836,0.40627 -0.46302,0.48516 -0.25466,0.0789 0.12028,0.0874 0.8332,0.019 0.71293,-0.0684 1.45306,-0.25454 1.64475,-0.41363 0.19169,-0.15908 0.49981,-0.23882 0.68471,-0.17719 0.18509,0.0617 -0.19739,0.45259 -0.851,0.86973 -0.65295,0.41673 -1.34068,0.9431 -1.52829,1.16973 -0.18762,0.22663 -0.7234,0.55735 -1.19063,0.73493 l -0.84951,0.32288 1.05833,-0.14863 c 1.16432,-0.16352 2.35939,-0.45807 3.175,-0.78255 0.93845,-0.37336 -0.0854,0.64401 -1.30521,1.29695 l -1.07604,0.57597 1.27376,0.0813 c 1.50574,0.0962 1.51978,0.42031 0.0595,1.37388 l -1.01296,0.66145 1.11334,0.0822 c 1.30269,0.0962 1.31007,0.43836 0.0282,1.30689 -0.91532,0.62018 -0.88162,0.68291 0.32411,0.60341 1.05595,-0.0696 0.93328,0.63115 -0.26458,1.51159 -0.57146,0.42003 -0.99219,0.95317 -0.99219,1.25728 0,0.72592 -1.53629,1.21053 -4.36562,1.37711 -2.07726,0.12229 -2.27438,0.09 -2.58193,-0.42334 z m 2.11027,-1.67626 c -0.44655,-0.21514 -0.68443,-0.21047 -0.91281,0.0179 -0.23543,0.23543 -0.0918,0.30461 0.60394,0.29096 0.85725,-0.0168 0.87605,-0.0356 0.30887,-0.30887 z m 0.32759,-1.77085 c 0.18565,-0.30039 -0.80361,-0.64784 -1.1808,-0.41472 -0.1492,0.0922 -0.20277,0.27849 -0.11904,0.41396 0.19686,0.31852 1.10312,0.31906 1.29984,7.9e-4 z m 0.007,-2.12796 c 0.0873,-0.14125 -0.14934,-0.33414 -0.52587,-0.42865 -0.75507,-0.18951 -1.07135,-0.0307 -0.80313,0.40329 0.21796,0.35267 1.11612,0.36981 1.329,0.0254 z m -2.92394,-2.88853 c 0.17226,-0.27872 -2.10787,-0.66592 -2.49876,-0.42433 -0.14832,0.0917 -0.20118,0.27751 -0.11746,0.41297 0.19413,0.31411 2.42313,0.32379 2.61622,0.0113 z m 0.15061,-2.11034 c 0,-0.27052 -2.32729,-0.62971 -2.67753,-0.41325 -0.13284,0.0821 -0.17302,0.2601 -0.0893,0.39557 0.19191,0.31051 2.76683,0.32697 2.76683,0.0177 z m 0.11652,-2.12711 c 0.0813,-0.13148 -0.45895,-0.28031 -1.20046,-0.33073 -1.39206,-0.0947 -2.29727,0.15073 -1.40186,0.38001 0.88594,0.22686 2.44996,0.19724 2.60232,-0.0493 z m -0.26418,-2.11733 c 0.17091,-0.27653 -2.44397,-0.69643 -2.70589,-0.43451 -0.30001,0.30001 0.56337,0.66596 1.58116,0.67018 0.53712,0.002 1.04325,-0.10382 1.12473,-0.23567 z m -0.16268,-2.10765 c 0.239,-0.15152 0.0278,-0.27603 -0.66146,-0.38991 -1.43734,-0.23749 -2.2032,-0.2121 -2.2032,0.0731 0,0.44148 2.27175,0.69275 2.86466,0.31686 z m 0.24552,-2.34898 c 0.0794,-0.24105 -0.34188,-0.33073 -1.55355,-0.33073 -1.69012,0 -1.9174,0.37628 -0.36601,0.60596 1.19839,0.17743 1.79884,0.0913 1.91956,-0.27523 z m -0.33206,-2.18281 c -0.0899,-0.14552 -0.75883,-0.26459 -1.48643,-0.26459 -0.81457,0 -1.26009,0.10167 -1.1594,0.26459 0.0899,0.14552 0.75883,0.26458 1.48644,0.26458 0.81457,0 1.26008,-0.10167 1.15939,-0.26458 z m -0.92604,-12.96459 c 0,-0.14552 -0.29765,-0.26458 -0.66146,-0.26458 -0.3638,0 -0.66145,0.11906 -0.66145,0.26458 0,0.14552 0.29765,0.26459 0.66145,0.26459 0.36381,0 0.66146,-0.11907 0.66146,-0.26459 z m -3.89007,-5.73285 c -0.45219,-1.1784 0.98053,-3.61364 3.69314,-6.27734 1.02997,-1.01139 2.57756,-3.83471 2.57797,-4.70306 3.7e-4,-0.80204 -0.32771,-1.31559 -1.005,-1.5731 -0.86474,-0.32877 -0.56429,-0.56337 1.49193,-1.16486 1.34023,-0.39206 1.83397,-0.43154 2.45675,-0.19647 0.62562,0.23615 1.15087,0.19126 2.66181,-0.22744 1.03532,-0.2869 2.0729,-0.61249 2.30575,-0.72354 0.23284,-0.11104 0.83374,-0.13544 1.33533,-0.0542 l 0.91198,0.14767 -0.0706,1.50717 c -0.0675,1.44136 -0.0212,1.56267 1.06194,2.77813 2.34983,2.63699 2.20674,2.39091 1.81543,3.12208 -0.32879,0.61435 -0.49525,0.66242 -2.29418,0.66242 -1.06682,0 -1.93545,0.0893 -1.93029,0.19843 0.005,0.10914 0.17061,0.48957 0.36767,0.84539 0.26345,0.47569 0.28569,0.80631 0.084,1.24894 -0.36234,0.79523 0.0806,1.32313 1.41076,1.6813 0.73146,0.19697 0.9742,0.38379 0.86577,0.66636 -0.11181,0.29137 -0.0236,0.34772 0.3418,0.21843 0.39388,-0.13935 0.42891,-0.10552 0.17495,0.169 -0.79838,0.86303 -7.42959,1.74299 -14.58983,1.93606 -2.78347,0.0751 -3.55922,0.0198 -3.66709,-0.26135 z m 9.08665,-1.36294 c 0.39241,-0.21961 0.34698,-0.30552 -0.35305,-0.66751 -0.44188,-0.22851 -0.99751,-0.82448 -1.23473,-1.32438 -0.45636,-0.96172 -1.17988,-1.44265 -1.34776,-0.89588 -0.0551,0.17945 -0.17268,0.65672 -0.26129,1.06061 -0.15995,0.729 -0.65487,1.33387 -1.62609,1.98733 -0.42466,0.28572 -0.11404,0.32045 1.93329,0.21615 1.34159,-0.0683 2.64192,-0.2377 2.88963,-0.37632 z m 2.54248,-7.60392 c 0.88297,-0.15649 0.99219,-0.2619 0.99219,-0.95754 0,-1.4899 -0.87626,-2.32749 -1.87549,-1.79272 -0.42499,0.22745 -0.55652,0.16988 -0.75781,-0.33168 -0.18084,-0.45057 -0.24789,-0.0741 -0.26034,1.46146 -0.015,1.84951 0.0322,2.05396 0.44625,1.93234 0.25466,-0.0748 0.9095,-0.21515 1.4552,-0.31186 z m -12.50836,-5.90389 c -1.28652,-1.28652 -1.36465,-2.91465 -0.19228,-4.00689 0.88475,-0.82427 1.75414,-0.57956 2.79331,0.78623 0.7509,0.98692 0.87251,1.33156 0.7469,2.11667 -0.29646,1.85303 -2.02794,2.42399 -3.34793,1.10399 z m 16.05454,-4.83403 c -0.38627,-1.04623 -0.65807,-1.94648 -0.60401,-2.00054 0.0541,-0.0541 0.40257,0.0403 0.77444,0.20976 1.02592,0.46744 1.98621,0.12141 2.08672,-0.75192 0.0669,-0.58138 0.28914,-0.79405 1.10973,-1.06196 1.21118,-0.39544 1.52716,-0.21703 2.30055,1.29895 0.95437,1.87071 0.6042,2.51377 -1.50124,2.75695 -2.06863,0.23894 -2.4425,0.35467 -2.96804,0.91877 -0.49057,0.52657 -0.50331,0.51201 -1.19815,-1.37001 z m -1.49699,-3.66903 c -0.31979,-0.59754 -0.17346,-0.68257 2.52406,-1.46676 1.39263,-0.40485 1.51439,-0.40297 1.99379,0.0309 0.28081,0.25413 0.51057,0.548 0.51057,0.65305 0,0.37443 -2.63015,1.31449 -3.67776,1.31449 -0.797,0 -1.13795,-0.1342 -1.35066,-0.53166 z"
         id="path1578" />
    </g>
  </g>
</svg>
