<?xml version="1.0" encoding="UTF-8" standalone="no"?>
<!-- Created with Inkscape (http://www.inkscape.org/) -->

<svg
   width="112.8272mm"
   height="132.90808mm"
   viewBox="0 0 112.8272 132.90808"
   version="1.1"
   id="svg1"
   inkscape:version="1.4.2 (f4327f4, 2025-05-13)"
   sodipodi:docname="5_Fuse Box.svg"
   xmlns:inkscape="http://www.inkscape.org/namespaces/inkscape"
   xmlns:sodipodi="http://sodipodi.sourceforge.net/DTD/sodipodi-0.dtd"
   xmlns="http://www.w3.org/2000/svg"
   xmlns:svg="http://www.w3.org/2000/svg">
  <sodipodi:namedview
     id="namedview1"
     pagecolor="#505050"
     bordercolor="#eeeeee"
     borderopacity="1"
     inkscape:showpageshadow="0"
     inkscape:pageopacity="0"
     inkscape:pagecheckerboard="0"
     inkscape:deskcolor="#505050"
     inkscape:document-units="mm"
     inkscape:zoom="0.26803444"
     inkscape:cx="-1.8654319"
     inkscape:cy="624.91969"
     inkscape:window-width="1920"
     inkscape:window-height="1009"
     inkscape:window-x="-8"
     inkscape:window-y="-8"
     inkscape:window-maximized="1"
     inkscape:current-layer="layer1" />
  <defs
     id="defs1" />
  <g
     inkscape:label="Ebene 1"
     inkscape:groupmode="layer"
     id="layer1"
     transform="translate(41.230386,90.736342)">
    <g
       id="g5828"
       transform="matrix(4.1248397,0,0,4.1248397,-2449.8749,-1393.1539)">
      <path
         style="fill:#92918e;stroke-width:0.0607636"
         d="m 584.02694,347.8752 c -0.097,-0.0827 -0.10038,-0.74273 -0.0811,-16.04361 0.0178,-14.09581 0.03,-15.96458 0.10453,-16.01953 0.0526,-0.0388 5.16496,-0.0622 13.5627,-0.0622 8.39774,0 13.5101,0.0235 13.56269,0.0622 0.0746,0.055 0.0868,1.92372 0.10453,16.01953 0.0193,15.30088 0.0159,15.96087 -0.0811,16.04361 -0.15024,0.12807 -27.022,0.12807 -27.17225,0 z"
         id="path5842" />
      <path
         style="fill:#908475;stroke-width:0.0607636"
         d="m 584.06163,347.81714 c -0.0521,-0.0607 -0.0675,-3.03902 -0.0675,-13.00683 7e-5,-13.04431 0.0352,-18.34078 0.12163,-18.34078 0.0259,0 0.0471,0.10333 0.0471,0.22963 v 0.22963 h 13.41822 c 12.73093,0 13.41966,-0.006 13.44655,-0.11482 0.0156,-0.0631 0.0363,-0.26243 0.046,-0.44285 l 0.0177,-0.32804 h -13.52191 c -11.98918,0 -13.52006,-0.0112 -13.50565,-0.0984 0.0144,-0.0871 1.56883,-0.10031 13.51898,-0.11495 9.38953,-0.0115 13.52076,0.004 13.56193,0.0525 0.0919,0.10714 0.12135,31.78843 0.0297,31.91724 -0.06,0.0843 -1.7592,0.0964 -13.55692,0.0964 -10.41584,0 -13.50365,-0.0179 -13.5558,-0.0787 z"
         id="path5840" />
      <path
         style="fill:#6f6e6c;stroke-width:0.0607636"
         d="m 584.03173,347.78666 c -0.0207,-0.0241 -0.038,-6.08393 -0.0384,-13.46623 -6.8e-4,-12.4708 0.0176,-14.46515 0.14943,-16.32524 l 0.029,-0.40978 13.44312,-0.0167 c 13.4024,-0.0166 13.44321,-0.0163 13.47055,0.11454 0.11567,0.5535 0.14843,4.6659 0.13408,16.82851 l -0.0157,13.28567 -13.56727,0.0165 c -7.462,0.009 -13.58421,-0.003 -13.6049,-0.0273 z m 13.5532,-31.842 -13.50642,-0.0332 13.52049,-0.0162 c 8.9854,-0.0108 13.52049,0.006 13.52049,0.0494 0,0.0361 -0.006,0.0583 -0.0141,0.0494 -0.008,-0.009 -6.09196,-0.0311 -13.52049,-0.0494 z"
         id="path5838" />
      <path
         style="fill:#8c6b49;stroke-width:0.0607636"
         d="m 584.03748,344.99271 c -0.0246,-4.58567 0.0378,-25.61874 0.0756,-25.43959 l 0.0345,0.16402 0.008,-0.18043 0.008,-0.18042 13.43608,-0.008 c 7.38984,-0.004 13.45507,-0.004 13.47828,0 0.0232,0.004 0.047,-0.14723 0.0528,-0.33667 0.079,-2.57017 0.13105,17.30396 0.0646,24.67428 l -0.0374,4.14413 h -13.55229 -13.55229 z m 13.54745,-29.04805 -13.50642,-0.0332 13.52049,-0.0162 c 8.9854,-0.0108 13.52049,0.006 13.52049,0.0494 0,0.0361 -0.006,0.0583 -0.0141,0.0494 -0.008,-0.009 -6.09196,-0.0311 -13.52049,-0.0494 z"
         id="path5836" />
      <path
         style="fill:#5c5c5a;stroke-width:0.0607636"
         d="m 584.03691,345.02551 c -0.008,-1.54261 -0.008,-7.74259 -2.8e-4,-13.77773 l 0.0144,-10.97297 h 13.55359 13.55358 l 0.0369,0.99455 c 0.048,1.29407 0.0477,17.0743 -4.5e-4,22.41677 l -0.0374,4.14413 h -13.55286 -13.55286 z m 0.0978,-25.01319 c -0.0192,-0.0363 -0.0179,-0.19871 0.003,-0.36098 l 0.038,-0.29505 h 13.41562 c 7.37859,0 13.43461,0 13.45782,0 0.0232,0 0.0422,0.155 0.0422,0.34445 v 0.34444 l -13.46082,0.0165 c -8.97302,0.011 -13.47247,-0.005 -13.49578,-0.0494 z"
         id="path5834" />
      <path
         style="fill:#642039;stroke-width:0.0607636"
         d="m 584.07636,342.30277 c -0.0147,-0.0451 -0.0203,-4.78856 -0.0123,-10.541 l 0.0145,-10.45899 13.51759,-0.006 c 13.47198,-0.006 13.51769,-0.005 13.54786,0.1257 0.0167,0.0722 0.0306,4.81811 0.031,10.54652 l 7.6e-4,10.41531 h -13.53632 c -10.77727,0 -13.54178,-0.0167 -13.56308,-0.082 z"
         id="path5832" />
      <path
         style="fill:#2e1b22;stroke-width:0.0607636"
         d="m 584.0718,342.28964 c -0.0173,-0.0525 -0.0154,-0.12552 0.004,-0.16232 0.0239,-0.0451 3.54262,-0.067 10.79606,-0.0671 l 10.76057,-1.5e-4 v -10.25296 -10.25296 h -10.77699 c -10.22629,0 -10.777,-0.006 -10.777,-0.11482 0,-0.0631 0.019,-0.11481 0.0422,-0.11481 0.0232,0 6.10448,0 13.51393,0 h 13.47172 l 0.027,0.16459 c 0.0198,0.12092 0.009,0.14761 -0.0392,0.10056 -0.076,-0.0735 -1.44039,-0.026 -1.50771,0.0525 -0.0237,0.0276 -0.0367,4.62481 -0.0288,10.216 l 0.0142,10.16578 0.73159,0.0421 c 0.49383,0.0284 0.75602,0.019 0.80673,-0.0291 0.06,-0.0569 0.0714,-0.0324 0.0563,0.12189 l -0.0188,0.19309 -13.52222,0.0165 c -11.7874,0.0144 -13.52624,0.004 -13.55361,-0.0789 z m 25.27497,-4.75987 V 332.97 l -0.92857,-0.0328 -0.92856,-0.0328 -0.007,-0.36084 c -0.004,-0.19847 0.0201,-0.38074 0.0527,-0.40506 0.0401,-0.0299 0.036,-0.0767 -0.0125,-0.14493 -0.0442,-0.062 -0.0577,-0.17496 -0.0353,-0.29399 0.0211,-0.11196 0.0113,-0.21137 -0.0233,-0.2363 -0.0405,-0.0292 -0.0417,-0.0823 -0.004,-0.16489 0.0308,-0.067 0.0405,-0.21212 0.0215,-0.32244 l -0.0344,-0.20057 0.9494,-0.018 0.94939,-0.018 v -4.59258 -4.59257 h -1.66016 -1.66017 l -0.0145,10.20208 c -0.008,5.61114 -0.002,10.23943 0.0126,10.28508 0.0212,0.0649 0.38687,0.0792 1.67462,0.0656 l 1.64753,-0.0174 z"
         id="path5830" />
    </g>
  </g>
</svg>
