<?xml version="1.0" encoding="UTF-8" standalone="no"?>
<!-- Created with Inkscape (http://www.inkscape.org/) -->

<svg
   width="77.356148mm"
   height="354.76752mm"
   viewBox="0 0 77.356147 354.76751"
   version="1.1"
   id="svg1"
   inkscape:version="1.4.2 (f4327f4, 2025-05-13)"
   sodipodi:docname="6_Electrical Wire.svg"
   xmlns:inkscape="http://www.inkscape.org/namespaces/inkscape"
   xmlns:sodipodi="http://sodipodi.sourceforge.net/DTD/sodipodi-0.dtd"
   xmlns="http://www.w3.org/2000/svg"
   xmlns:svg="http://www.w3.org/2000/svg">
  <sodipodi:namedview
     id="namedview1"
     pagecolor="#505050"
     bordercolor="#eeeeee"
     borderopacity="1"
     inkscape:showpageshadow="0"
     inkscape:pageopacity="0"
     inkscape:pagecheckerboard="0"
     inkscape:deskcolor="#505050"
     inkscape:document-units="mm"
     inkscape:zoom="0.37905794"
     inkscape:cx="-623.91517"
     inkscape:cy="302.06464"
     inkscape:window-width="1920"
     inkscape:window-height="1009"
     inkscape:window-x="-8"
     inkscape:window-y="-8"
     inkscape:window-maximized="1"
     inkscape:current-layer="layer1" />
  <defs
     id="defs1" />
  <g
     inkscape:label="Ebene 1"
     inkscape:groupmode="layer"
     id="layer1"
     transform="translate(-592.89228,-175.78706)">
    <g
       id="g30387"
       transform="matrix(1.7911624,0,0,1.4776962,-57.264551,-434.58303)">
      <path
         style="fill:#a3a2a1;stroke-width:0.264583"
         d="m 370.96703,414.81842 c 0.32193,-0.90827 0.5534,-1.16717 1.17876,-1.31847 0.59069,-0.14291 0.89461,-0.0903 1.26154,0.21829 0.54104,0.45506 0.49974,0.46533 1.10912,-0.27583 0.3321,-0.40391 0.59887,-0.47706 1.05024,-0.28794 0.33278,0.13944 0.67572,0.17938 0.7621,0.0888 0.19736,-0.20704 1.38738,0.27743 1.50867,0.6142 0.0496,0.13773 -0.21104,1.68051 -0.5792,3.42841 -0.36816,1.7479 -0.91437,4.80265 -1.2138,6.78833 -0.48853,3.23982 -0.49736,3.6877 -0.086,4.36421 0.43757,0.71966 0.49754,0.74307 1.32121,0.51569 0.65469,-0.18074 0.99313,-0.14211 1.40301,0.16016 0.44883,0.33098 0.58332,0.3222 0.79517,-0.0519 0.41164,-0.72698 1.09155,-0.98483 1.43944,-0.54589 0.22817,0.28789 0.35008,0.28822 0.53565,10e-4 0.215,-0.33228 0.3103,-0.31404 0.90701,0.17359 0.36672,0.29969 0.68195,0.82675 0.70052,1.17125 0.0186,0.3445 -0.54684,3.38667 -1.25645,6.76038 -0.8007,3.80611 -1.20478,6.21546 -1.06508,6.34863 0.12383,0.11803 0.26227,0.0386 0.30765,-0.17654 0.0454,-0.21513 0.60366,-0.71998 1.24063,-1.1219 l 1.15812,-0.73076 0.56031,-5.47711 c 0.59637,-5.82973 0.92034,-7.46724 1.64108,-8.29499 0.25026,-0.28742 0.46571,-0.90273 0.48494,-1.38494 0.019,-0.47725 0.0838,-2.54749 0.14402,-4.60053 0.10665,-3.63873 0.63913,-6.3933 1.38765,-7.17854 0.14457,-0.15166 0.82672,-0.18139 1.51589,-0.0661 1.01775,0.17029 1.32456,0.11107 1.6339,-0.31535 0.28516,-0.39309 0.51996,-0.45717 0.93442,-0.25501 0.30446,0.14849 0.6505,0.16831 0.76897,0.044 0.31267,-0.32801 0.58096,-0.21435 1.15213,0.48807 0.50373,0.61949 0.49888,0.66526 -0.78231,7.37596 -1.28813,6.7471 -1.28876,6.75312 -0.77283,7.38808 0.4768,0.5868 0.47979,1.03019 0.0391,5.78765 -0.64939,7.01025 -0.67348,6.79709 0.87139,7.71123 0.69628,0.41201 1.48162,1.0585 1.74519,1.43665 0.4985,0.7152 0.49123,1.85698 -0.0475,7.4573 -0.97674,10.15333 -1.0936,26.36511 -0.29679,41.17425 0.78556,14.60031 1.79894,24.95818 5.89735,60.27796 1.53582,13.23556 3.13099,27.62638 3.54483,31.97959 1.8528,19.48997 2.62678,36.142 2.17532,46.80154 -0.15998,3.77736 -0.2322,4.27346 -0.70668,4.85407 -1.23887,1.516 -3.86359,2.15768 -7.49277,1.83181 l -2.53174,-0.22733 -0.0473,0.80742 c -0.026,0.44408 -0.11817,3.30076 -0.20484,6.34819 -0.15072,5.29909 -0.18406,5.57552 -0.76458,6.33764 -2.20613,2.89625 -11.34582,2.34525 -13.40043,-0.80787 -0.5337,-0.81905 -0.62812,-1.33357 -0.54895,-2.99138 0.16161,-3.38424 0.20944,-8.70733 0.0839,-9.33431 -0.0982,-0.49029 -0.40409,-0.67905 -1.74339,-1.07578 -1.82475,-0.54053 -2.96658,-1.34827 -3.37117,-2.38478 -0.15008,-0.38449 -0.20183,-2.47331 -0.115,-4.64183 0.1823,-4.55288 0.10974,-9.75197 -0.25157,-18.02549 -0.62576,-14.32906 -2.08511,-29.90031 -5.6502,-60.28761 -4.66276,-39.74327 -5.88509,-53.88848 -6.24478,-72.26643 -0.21753,-11.1146 0.045,-19.56323 0.91499,-29.44284 0.65132,-7.39664 0.72707,-7.70121 2.15236,-8.65431 l 1.1517,-0.77014 0.48073,-5.25145 c 0.2644,-2.8883 0.55092,-5.48001 0.6367,-5.75936 0.0858,-0.27935 0.23405,-0.89083 0.32948,-1.35885 0.0954,-0.46801 0.39154,-1.0748 0.65802,-1.34842 0.53388,-0.5482 0.60414,-1.1752 0.71513,-6.38233 0.0638,-2.99413 0.16297,-3.6335 0.87504,-5.64246 z m 1.18105,9.9816 c -0.0621,1.25736 0.046,1.89685 0.39011,2.30713 0.76367,0.91059 0.91884,0.7723 1.09852,-0.97909 0.26935,-2.62542 0.47061,-9.67725 0.28537,-9.9989 -0.23936,-0.41561 -1.67078,6.58081 -1.774,8.67086 z m 5.28961,15.37941 c -0.15596,1.28481 -0.0959,1.75889 0.27283,2.15319 0.7961,0.85132 0.93198,0.69722 1.1558,-1.31075 0.23003,-2.06374 0.43598,-9.79316 0.26782,-10.05125 -0.11878,-0.18227 -1.4021,6.784 -1.69645,9.20881 z m 10.94655,-14.79511 c -0.12673,1.36936 0.22373,2.34692 0.89192,2.48787 0.31819,0.0671 0.41801,-0.22443 0.58279,-1.7023 0.25999,-2.33179 0.4509,-9.50464 0.2621,-9.84743 -0.15915,-0.28895 -1.53649,6.89737 -1.73681,9.06186 z"
         id="path30401" />
      <path
         style="fill:#857876;stroke-width:0.264583"
         d="m 371.12644,415.05353 c 0.35993,-1.06227 1.15105,-1.45316 2.05185,-1.0138 0.55634,0.27135 0.55324,0.30937 -0.47297,5.80455 -0.61403,3.28805 -0.97824,5.88426 -0.89803,6.40142 0.14832,0.95624 1.15,1.90036 1.66215,1.56663 0.37124,-0.2419 0.68612,-3.62976 0.79148,-8.51555 0.11278,-5.23002 0.14848,-5.53714 0.67581,-5.81492 0.38178,-0.20111 0.50692,-0.14848 0.70806,0.29776 0.23364,0.51833 0.25986,0.52427 0.59932,0.13574 0.2502,-0.28637 0.50802,-0.31963 0.87348,-0.1127 0.49501,0.2803 0.4864,0.44825 -0.19019,3.70876 -0.38978,1.87834 -0.93817,5.0031 -1.21866,6.9439 -0.4277,2.9595 -0.44495,3.60099 -0.1069,3.97655 0.22169,0.2463 0.45081,0.84642 0.50915,1.33361 l 0.10607,0.88581 0.32493,-0.66619 c 0.32966,-0.67587 1.34298,-0.93467 1.99863,-0.51043 0.36291,0.23482 -0.0121,3.4653 -0.87977,7.57864 -0.82072,3.89081 -0.83208,4.90996 -0.0618,5.53947 0.35619,0.29108 0.7699,0.55503 0.91936,0.58656 0.53926,0.11375 0.80759,-2.70882 0.97022,-10.20596 0.0556,-2.56241 0.31612,-4.02664 0.74388,-4.1807 0.17166,-0.0618 0.42002,0.127 0.55191,0.4196 0.22519,0.49959 0.2677,0.49883 0.69782,-0.0126 l 0.45801,-0.54457 0.46166,0.84011 c 0.45696,0.83157 0.44861,0.90196 -0.82221,6.92653 -1.23224,5.84171 -1.37745,7.36947 -0.67647,7.11701 0.15288,-0.055 0.32083,-0.30337 0.37324,-0.55181 0.0524,-0.24844 0.58639,-0.7609 1.18664,-1.13881 1.31413,-0.82735 1.32474,-0.86675 1.83972,-6.82769 0.39169,-4.53394 0.889,-6.92864 1.61916,-7.79677 0.44994,-0.53495 0.47938,-0.8417 0.65194,-6.79207 0.0756,-2.6085 0.18847,-3.39625 0.60999,-4.25877 0.28445,-0.58205 0.52146,-1.15163 0.5267,-1.26572 0.0275,-0.60014 0.27077,-0.77825 1.00073,-0.73282 0.44979,0.028 0.89229,0.2144 1.00161,0.42194 0.11026,0.20931 -0.19906,2.45766 -0.70785,5.14512 -1.18175,6.242 -1.22224,7.06052 -0.39529,7.99154 1.0279,1.15726 1.28714,0.75751 1.57909,-2.43503 0.13701,-1.49817 0.24964,-3.85386 0.25029,-5.23487 10e-4,-3.09731 0.26997,-5.75579 0.63891,-6.32598 0.25336,-0.39156 0.31083,-0.36283 0.64217,0.32097 l 0.36389,0.751 0.28415,-0.54847 c 0.33546,-0.64753 0.83201,-0.6097 1.20217,0.0916 0.20335,0.38525 -0.0285,2.04373 -0.99453,7.11511 -1.25685,6.59786 -1.25853,6.6142 -0.74371,7.24784 0.47907,0.58964 0.47895,1.02492 -0.002,6.08593 -0.28465,2.99798 -0.43237,5.77291 -0.32826,6.16652 0.12876,0.48676 0.60046,0.95648 1.47487,1.46867 2.12578,1.2452 2.1533,1.37613 1.57747,7.50587 -1.08082,11.5053 -1.22194,26.63692 -0.39389,42.2354 0.75126,14.15195 1.83524,25.24579 5.81362,59.49873 3.83125,32.98614 5.07851,46.52798 5.664,61.49521 0.33025,8.44223 0.36541,12.86119 0.14394,18.0911 -0.17672,4.17307 -0.18843,4.24244 -0.83782,4.96098 -1.06595,1.17946 -3.83073,1.7778 -6.87631,1.48813 -1.38508,-0.13173 -2.66315,-0.23098 -2.84015,-0.22054 -0.24068,0.0142 -0.31259,0.45113 -0.28523,1.73297 0.072,3.37273 -0.3291,11.05616 -0.60325,11.55629 -1.29537,2.36316 -7.18294,2.85737 -11.44059,0.96035 -1.90764,-0.84996 -2.41183,-1.78222 -2.29821,-4.24945 0.21407,-4.64844 0.15831,-9.79577 -0.10894,-10.05664 -0.15834,-0.15455 -0.75338,-0.38174 -1.3223,-0.50486 -1.57166,-0.34009 -2.70925,-1.0292 -3.31921,-2.01059 -0.48172,-0.77507 -0.53114,-1.38459 -0.39266,-4.84294 0.18282,-4.56584 0.11054,-9.75942 -0.25103,-18.039 -0.62576,-14.32907 -2.08511,-29.90032 -5.65021,-60.28761 -4.66275,-39.74327 -5.88508,-53.88848 -6.24477,-72.26643 -0.21753,-11.1146 0.045,-19.56323 0.91499,-29.44284 0.64721,-7.35001 0.72878,-7.68389 2.07873,-8.50829 1.29234,-0.78922 1.25727,-0.66012 1.75485,-6.46025 0.20898,-2.43593 0.45334,-4.74811 0.54304,-5.13818 0.0897,-0.39007 0.24318,-1.07084 0.34112,-1.51281 0.0979,-0.44198 0.40011,-1.07791 0.67153,-1.41318 0.53459,-0.66036 0.71529,-2.10918 0.71502,-5.73283 -1.6e-4,-2.23248 0.33674,-4.86767 0.79539,-6.22128 z"
         id="path30399" />
      <path
         style="fill:#605d5b;stroke-width:0.264583"
         d="m 371.06077,415.8452 c 0.20571,-0.21956 0.39077,-0.65733 0.41125,-0.97282 0.0287,-0.4417 0.22621,-0.58516 0.85903,-0.62383 1.48358,-0.0906 1.48383,-0.0868 0.35808,5.31263 -0.57312,2.74888 -1.03056,5.48712 -1.01652,6.08497 0.0252,1.07315 0.93344,2.59151 1.50811,2.52119 0.50661,-0.062 1.12856,-4.32872 1.15284,-7.90882 0.0302,-4.45342 0.22545,-6.44516 0.64668,-6.59687 0.17629,-0.0635 0.41876,0.15337 0.53882,0.48192 0.27485,0.75212 0.48526,0.79928 0.79575,0.17834 0.30967,-0.6193 1.0182,-0.48952 1.0869,0.19909 0.0286,0.28689 -0.29434,2.07442 -0.7177,3.9723 -0.42335,1.89788 -0.94872,4.84689 -1.16748,6.55335 -0.35006,2.73069 -0.34025,3.16415 0.0818,3.61546 0.26375,0.28204 0.42742,0.76869 0.36373,1.08144 -0.0638,0.31274 -0.0435,0.76301 0.0448,1.00057 0.17556,0.4721 0.3353,0.31409 0.78227,-0.77383 0.11247,-0.27373 0.34844,-0.43263 0.52439,-0.35311 0.17596,0.0795 0.49269,0.0536 0.70385,-0.0577 0.78518,-0.41361 0.77272,0.5767 -0.0593,4.71489 -0.45914,2.28352 -0.88507,4.93154 -0.9465,5.88447 -0.0614,0.95294 -0.12904,1.82643 -0.15023,1.94109 -0.0606,0.32787 1.64698,1.40999 1.92992,1.22301 0.34371,-0.22714 0.61462,-3.47955 0.75024,-9.00705 0.062,-2.52655 0.2381,-4.78752 0.39135,-5.02436 0.26761,-0.4136 0.29571,-0.40708 0.71037,0.16483 0.40599,0.55995 0.45232,0.57191 0.7767,0.20065 0.18972,-0.21715 0.45156,-0.37233 0.58186,-0.34485 0.67401,0.14218 0.55946,1.54509 -0.61273,7.5044 -0.66977,3.40504 -1.17213,6.31769 -1.11635,6.47257 0.18932,0.52568 0.84626,0.44498 0.96513,-0.11856 0.0671,-0.31793 0.64587,-0.87247 1.34681,-1.29034 l 1.22921,-0.73281 0.52809,-5.54751 c 0.42265,-4.43983 0.64159,-5.82054 1.09651,-6.91485 0.84863,-2.0414 1.20761,-4.16549 1.21804,-7.20721 0.0108,-3.13537 0.12847,-4.00155 0.78777,-5.79676 0.44256,-1.20505 0.53234,-1.29039 1.30889,-1.24426 0.45988,0.0273 0.89154,0.19783 0.96264,0.38025 0.0709,0.1819 -0.27391,2.25352 -0.76623,4.6036 -1.09303,5.21753 -1.25695,7.52536 -0.59093,8.31952 0.55855,0.666 1.34118,0.90627 1.47003,0.4513 0.40582,-1.43287 0.62199,-3.89931 0.70369,-8.02864 0.0976,-4.9352 0.20597,-6.07433 0.6022,-6.33252 0.12271,-0.08 0.38366,0.16775 0.57988,0.55046 0.19622,0.38272 0.43287,0.59022 0.52589,0.46112 0.57207,-0.79394 0.79299,-0.88256 1.13245,-0.45424 0.2761,0.34836 0.20088,1.08305 -0.41829,4.08567 -0.4152,2.01351 -0.95387,5.06625 -1.19705,6.78386 -0.3765,2.65937 -0.37809,3.20089 -0.0107,3.64822 0.34923,0.4252 0.37635,1.08043 0.14233,3.43877 -0.45266,4.56158 -0.66959,8.43738 -0.50404,9.00556 0.0832,0.28569 0.35057,0.56414 0.59408,0.61877 0.78548,0.17623 2.38836,1.51579 2.65923,2.22237 0.16007,0.41758 0.0928,2.76963 -0.17171,6.00297 -1.69218,20.68539 -1.18069,40.26429 1.82204,69.74338 0.50315,4.93963 2.07132,18.83802 3.48483,30.88531 3.67041,31.28278 4.98754,45.31201 5.67208,60.4153 0.49928,11.01567 0.48279,21.25956 -0.0382,23.72933 -0.2642,1.25252 -1.39506,2.08292 -3.42626,2.51594 -1.76541,0.37635 -5.47122,0.27278 -6.26205,-0.17501 -0.71551,-0.40515 -0.93062,0.14688 -0.88727,2.27692 0.0637,3.12989 -0.20331,9.30625 -0.45364,10.49299 -0.38989,1.84835 -2.22509,2.6648 -6.07743,2.70374 -3.6446,0.0368 -7.24681,-1.51768 -7.54248,-3.25494 -0.075,-0.44064 -0.0677,-2.87281 0.0161,-5.40484 0.0839,-2.53202 0.10016,-5.08391 0.0362,-5.67088 -0.11438,-1.04956 -0.14176,-1.07558 -1.65703,-1.57409 -1.91458,-0.62988 -3.14802,-1.46213 -3.49451,-2.35789 -0.14616,-0.37788 -0.20464,-2.1952 -0.12995,-4.03848 0.42108,-10.39132 -0.39235,-26.996 -2.26875,-46.31232 -0.48672,-5.01053 -2.08089,-19.36429 -3.54259,-31.89725 -5.35518,-45.9164 -6.67279,-63.24481 -6.36922,-83.7639 0.12104,-8.1814 1.06022,-22.46994 1.66557,-25.33972 0.0845,-0.40081 0.61823,-1.00028 1.3707,-1.53963 l 1.23225,-0.88325 0.48972,-5.30482 c 0.47716,-5.16876 1.0116,-7.7647 1.72023,-8.35567 0.37543,-0.3131 0.58082,-2.22649 0.63173,-5.88531 0.0522,-3.75303 0.18177,-4.90504 0.60204,-5.35361 z m 4.60563,1.1792 c 0.12382,0.11803 0.26345,0.033 0.31027,-0.189 0.0468,-0.22199 -0.0314,-0.42818 -0.17375,-0.45822 -0.14239,-0.03 -0.28201,0.055 -0.31027,0.189 -0.0283,0.13398 0.0499,0.34018 0.17375,0.45822 z m 5.26771,14.76665 c 0.14239,0.03 0.29575,-0.12014 0.3408,-0.33372 0.0451,-0.21358 -0.0346,-0.41291 -0.17697,-0.44294 -0.14239,-0.03 -0.29575,0.12014 -0.3408,0.33372 -0.0451,0.21358 0.0346,0.4129 0.17697,0.44294 z"
         id="path30397" />
      <path
         style="fill:#235128;stroke-width:0.264583"
         d="m 371.33105,415.90164 c 0.19991,-0.2211 0.33892,-0.64808 0.30891,-0.94886 -0.0311,-0.31185 0.0642,-0.52181 0.22177,-0.48857 0.15198,0.0321 0.23947,0.23304 0.19442,0.44662 -0.1208,0.57268 0.44467,0.58708 0.72895,0.0186 0.65828,-1.31648 0.5489,0.0689 -0.40423,5.12004 -1.14368,6.06095 -1.14477,7.08074 -0.009,8.03539 0.58145,0.48856 0.6727,0.49683 1.12364,0.10182 0.62898,-0.55098 0.87308,-2.55723 1.03646,-8.51882 0.0662,-2.41612 0.23917,-4.75244 0.38435,-5.19184 l 0.26395,-0.79891 0.17357,0.84783 c 0.0954,0.4663 0.10968,1.13856 0.0316,1.4939 -0.21961,0.99955 -0.0855,2.68603 0.21871,2.75019 0.17714,0.0374 0.40449,-0.71983 0.64672,-2.15392 0.22937,-1.3579 0.47393,-2.1925 0.63356,-2.16221 0.15844,0.0301 1.3e-4,1.34022 -0.40528,3.35408 -1.11187,5.52315 -1.58021,9.97664 -1.12994,10.7446 0.21134,0.36044 0.36985,1.1162 0.35225,1.67947 -0.0389,1.24422 0.73588,1.47336 1.11751,0.33051 0.15413,-0.46157 0.34712,-0.64169 0.54817,-0.5116 0.17067,0.11043 0.46621,0.0992 0.65677,-0.025 0.19056,-0.12417 0.39153,-0.15662 0.4466,-0.0721 0.0551,0.0845 -0.35511,2.82933 -0.9115,6.09961 -0.77573,4.55943 -0.94366,6.05025 -0.72017,6.39322 0.33699,0.51718 1.72687,1.30917 1.99307,1.13571 0.51113,-0.33305 0.97927,-5.60716 0.95991,-10.81436 -0.004,-1.04188 0.0738,-2.28764 0.17262,-2.76836 0.2796,-1.36011 0.79161,-0.43177 0.65666,1.1906 -0.0606,0.72812 -0.16045,1.92647 -0.22197,2.66301 -0.0682,0.8166 0.01,1.32286 0.19954,1.29741 0.17126,-0.023 0.32318,-0.26953 0.3376,-0.54792 0.0772,-1.49091 0.74005,-4.8173 0.95105,-4.77279 0.6315,0.13321 0.50566,1.45362 -0.66947,7.02453 -0.74749,3.54367 -1.17172,6.07921 -1.07352,6.41627 0.24524,0.84171 0.88876,0.82488 1.25677,-0.0329 0.18895,-0.44042 0.77261,-0.98779 1.40634,-1.31891 1.26874,-0.66291 1.20811,-0.42362 1.82039,-7.18445 0.38425,-4.24294 0.81853,-6.24403 1.63141,-7.51712 0.40042,-0.62713 0.42892,-0.93677 0.64457,-7.00252 0.12363,-3.47763 0.66937,-5.07818 1.82504,-5.35248 0.37223,-0.0883 0.71775,-0.0469 0.76781,0.0921 0.0501,0.13901 -0.2738,1.97571 -0.71969,4.08155 -0.98103,4.63323 -1.23315,7.68163 -0.72106,8.7188 0.4289,0.86869 1.51367,1.21971 1.90419,0.61617 0.3674,-0.5678 0.76447,-5.10405 0.80826,-9.23369 0.0204,-1.92476 0.15845,-3.9034 0.30677,-4.39699 0.26303,-0.87534 0.27492,-0.88107 0.48296,-0.23292 0.11731,0.36548 0.16267,1.10515 0.10079,1.6437 -0.32378,2.81792 -0.34012,4.05218 -0.0531,4.00957 0.16987,-0.0252 0.29372,-0.21635 0.27521,-0.42475 -0.0695,-0.78293 0.83574,-5.1869 1.08463,-5.27654 0.58834,-0.21189 0.49314,0.90354 -0.4984,5.83961 -1.27659,6.35503 -1.42398,7.80176 -0.87445,8.58322 0.35268,0.50152 0.33544,1.43785 -0.11416,6.19917 -0.29128,3.08463 -0.45851,5.8524 -0.37163,6.15059 0.0888,0.30468 0.71925,0.84213 1.43931,1.22695 1.16608,0.62317 2.26057,1.72476 2.17533,2.18944 -0.41574,2.26642 -1.31073,18.08692 -1.39395,24.64034 -0.25107,19.77172 1.09815,37.22177 6.34433,82.05435 3.73675,31.93335 4.96519,45.17539 5.65444,60.95239 0.50373,11.53039 0.35074,22.36049 -0.33066,23.40806 -0.42218,0.64904 -1.50627,1.289 -2.7403,1.61766 -1.14066,0.30378 -4.56053,0.26986 -6.12806,-0.0608 -0.61981,-0.13074 -1.21579,-0.1445 -1.32439,-0.0306 -0.1086,0.11392 -0.17906,1.22462 -0.15658,2.46822 0.0839,4.64425 -0.28104,10.5914 -0.68896,11.22611 -0.50434,0.78474 -1.79564,1.33477 -3.80778,1.62191 -1.26379,0.18036 -2.23214,0.10257 -4.46412,-0.35857 -3.03902,-0.62788 -4.43095,-1.33299 -4.74253,-2.40242 -0.085,-0.29159 -0.095,-2.02788 -0.0223,-3.85843 0.18659,-4.69831 0.14092,-8.06508 -0.11602,-8.55285 -0.12692,-0.24093 -0.71381,-0.52165 -1.38789,-0.66384 -0.64238,-0.1355 -1.58601,-0.47419 -2.09694,-0.75264 -1.60403,-0.87418 -1.75941,-1.43357 -1.59771,-5.75201 0.18262,-4.87683 0.146,-8.32455 -0.17652,-16.62039 -0.56181,-14.45082 -2.01283,-30.12439 -5.68088,-61.36357 -3.7832,-32.21993 -5.01805,-44.85158 -5.78957,-59.22326 -0.86563,-16.12472 -0.73283,-29.98498 0.41055,-42.85147 0.65904,-7.41614 0.69427,-7.56089 2.04732,-8.41274 1.30839,-0.82374 1.30071,-0.79543 1.85004,-6.81968 0.41497,-4.55079 0.93176,-6.99977 1.65965,-7.86536 0.44074,-0.52402 0.46477,-0.7671 0.62252,-6.29658 0.11429,-4.00628 0.15214,-4.28221 0.66519,-4.84964 z m 4.06936,19.04862 c 0.14239,0.03 0.26972,0.003 0.28297,-0.0596 0.0132,-0.0628 -0.0772,-0.21074 -0.20106,-0.32878 -0.12382,-0.11803 -0.25116,-0.0912 -0.28296,0.0596 -0.0318,0.15079 0.0587,0.29874 0.20105,0.32877 z m -0.2681,1.83629 c 0.0628,0.0133 0.21074,-0.0772 0.32877,-0.20105 0.11804,-0.12383 0.0912,-0.25116 -0.0596,-0.28297 -0.15079,-0.0318 -0.29874,0.0587 -0.32878,0.20105 -0.03,0.14239 -0.003,0.26973 0.0596,0.28297 z m -0.22241,3.87726 c 0.0366,0.229 0.18401,0.44113 0.32757,0.47141 0.16624,0.0351 0.30675,-0.49074 0.38696,-1.44799 0.15392,-1.83703 0.0939,-2.2832 -0.28843,-2.1455 -0.28422,0.10237 -0.57189,2.2101 -0.4261,3.12208 z"
         id="path30395" />
      <path
         style="fill:#2f2c2b;stroke-width:0.264583"
         d="m 371.33105,415.90164 c 0.19991,-0.2211 0.33892,-0.64808 0.30891,-0.94886 -0.0311,-0.31185 0.0642,-0.52181 0.22177,-0.48857 0.15198,0.0321 0.23947,0.23304 0.19442,0.44662 -0.1208,0.57268 0.44467,0.58708 0.72895,0.0186 0.65828,-1.31648 0.5489,0.0689 -0.40423,5.12004 -0.8281,4.3885 -0.9974,5.75128 -0.82239,6.61969 0.1212,0.60144 0.16457,1.35808 0.0964,1.68143 -0.0682,0.32335 0.0454,0.69749 0.25234,0.83142 0.57117,0.36957 0.63237,0.34242 0.57285,-0.25414 -0.0403,-0.40443 0.0349,-0.49253 0.2835,-0.3317 0.21783,0.14094 0.51199,-0.0343 0.82536,-0.49182 0.59318,-0.86595 0.76536,-2.41481 0.93799,-8.43765 0.0692,-2.41548 0.24466,-4.75128 0.38984,-5.19068 l 0.26395,-0.79891 0.17357,0.84783 c 0.0954,0.4663 0.10968,1.13856 0.0316,1.4939 -0.21961,0.99955 -0.0855,2.68603 0.21871,2.75019 0.17714,0.0374 0.40449,-0.71983 0.64672,-2.15392 0.22937,-1.3579 0.47393,-2.1925 0.63356,-2.16221 0.15844,0.0301 1.3e-4,1.34022 -0.40528,3.35408 -0.92898,4.61469 -1.51903,9.69422 -1.27326,10.96111 l 0.20722,1.06819 -0.98525,0.18732 c -0.54188,0.10303 -1.10549,0.16196 -1.25244,0.13097 -0.14697,-0.031 -0.30524,0.12395 -0.35173,0.34434 -0.23448,1.11158 -0.80887,8.04692 -0.89743,10.83572 -0.0913,2.87487 -0.0458,3.21029 0.48168,3.54927 0.32038,0.2059 0.63018,0.38442 0.68844,0.39671 0.34857,0.0735 1.25926,-1.53361 1.49067,-2.63064 0.14989,-0.7106 0.41894,-1.34474 0.59789,-1.40918 0.36161,-0.13023 0.60549,-2.18753 0.45131,-3.807 -0.0506,-0.5312 -0.11003,-1.15215 -0.13211,-1.37989 -0.0221,-0.22775 0.006,-0.76938 0.0625,-1.20364 0.0565,-0.43425 0.12881,-1.3772 0.16072,-2.09544 0.0481,-1.08356 0.13947,-1.33129 0.53647,-1.4551 0.26315,-0.0821 0.5413,-0.44714 0.61811,-0.81127 0.0962,-0.45611 0.24165,-0.59605 0.46755,-0.44988 0.18035,0.11669 0.48382,0.11057 0.67438,-0.0136 0.19056,-0.12417 0.39153,-0.15662 0.4466,-0.0721 0.0551,0.0845 -0.34471,2.79077 -0.88839,6.0139 -0.76401,4.52934 -0.93138,6.05654 -0.73695,6.72453 0.13837,0.47536 0.20929,1.06831 0.1576,1.31767 -0.0518,0.24935 0.095,0.49326 0.32606,0.54199 0.34697,0.0732 0.37754,0.008 0.17578,-0.37506 -0.29201,-0.55434 0.008,-0.80302 0.77359,-0.6415 0.46559,0.0982 0.60979,-0.0523 0.86216,-0.89976 0.35982,-1.2083 0.56716,-4.0532 0.62751,-8.61006 0.0242,-1.82876 0.11879,-3.67937 0.21014,-4.11247 0.27037,-1.28172 0.77292,-0.28364 0.64309,1.27718 -0.0606,0.72812 -0.16045,1.92647 -0.22197,2.66301 -0.0682,0.8166 0.01,1.32286 0.19954,1.29741 0.17126,-0.023 0.32318,-0.26953 0.3376,-0.54792 0.0772,-1.49091 0.74005,-4.8173 0.95105,-4.77279 0.6315,0.13321 0.50566,1.45362 -0.66947,7.02453 -0.74749,3.54367 -1.17172,6.07921 -1.07352,6.41627 0.24524,0.84171 0.88876,0.82488 1.25677,-0.0329 0.18916,-0.4409 0.773,-0.98799 1.40896,-1.32028 1.26768,-0.66235 1.1734,-0.29108 1.80636,-7.11367 0.40786,-4.39627 0.7192,-5.83304 1.61917,-7.47221 0.42506,-0.77419 0.45349,-1.07703 0.66822,-7.11684 0.12363,-3.47763 0.66937,-5.07818 1.82504,-5.35248 0.37386,-0.0887 0.71827,-0.0454 0.76947,0.0967 0.051,0.14155 -0.29284,2.09572 -0.76403,4.3426 -1.08278,5.16326 -1.2082,9.70852 -0.28284,10.25026 0.19152,0.11212 0.27881,0.0186 0.23551,-0.25222 -0.0442,-0.27651 0.11927,-0.43939 0.45726,-0.45559 0.28933,-0.0139 0.6499,-0.21661 0.80127,-0.45055 0.38047,-0.58802 0.77842,-5.06445 0.82287,-9.25628 0.0204,-1.92476 0.15845,-3.9034 0.30677,-4.39699 0.26303,-0.87534 0.27492,-0.88107 0.48296,-0.23292 0.11731,0.36548 0.16267,1.10515 0.10079,1.6437 -0.32378,2.81792 -0.34012,4.05218 -0.0531,4.00957 0.16987,-0.0252 0.29372,-0.21635 0.27521,-0.42475 -0.0695,-0.78293 0.83574,-5.1869 1.08463,-5.27654 0.58853,-0.21195 0.493,0.90388 -0.4999,5.83929 -1.18961,5.91323 -1.37091,7.48965 -0.99084,8.61515 0.33749,0.99938 -0.1086,1.42974 -1.45075,1.39961 -0.5128,-0.0115 -0.96016,0.1198 -0.99413,0.2918 -0.13412,0.67918 -0.81023,8.95436 -0.92432,11.31314 -0.0666,1.37711 -0.0284,2.67977 0.0848,2.89481 0.27698,0.5258 1.21228,0.89289 1.98473,0.77897 0.60073,-0.0886 0.64034,-0.1816 0.83218,-1.95434 l 0.20143,-1.86131 0.70378,0.32486 c 1.15733,0.53421 2.64127,1.75225 2.71777,2.2308 0.0393,0.24608 -0.11716,2.73239 -0.34777,5.52513 -1.39916,16.9441 -1.27383,33.07561 0.42422,54.60467 0.80216,10.17028 2.06848,22.12695 4.96514,46.88109 3.73675,31.93335 4.96519,45.17539 5.65444,60.95239 0.50373,11.53039 0.35074,22.36049 -0.33066,23.40806 -0.42218,0.64904 -1.50627,1.289 -2.7403,1.61766 -1.14066,0.30378 -4.56053,0.26986 -6.12806,-0.0608 -0.61981,-0.13074 -1.21579,-0.1445 -1.32439,-0.0306 -0.1086,0.11392 -0.17906,1.22462 -0.15658,2.46822 0.0839,4.64425 -0.28104,10.5914 -0.68896,11.22611 -0.50434,0.78474 -1.79564,1.33477 -3.80778,1.62191 -1.26379,0.18036 -2.23214,0.10257 -4.46412,-0.35857 -3.03902,-0.62788 -4.43095,-1.33299 -4.74253,-2.40242 -0.085,-0.29159 -0.095,-2.02788 -0.0223,-3.85843 0.18659,-4.69831 0.14092,-8.06508 -0.11602,-8.55285 -0.12692,-0.24093 -0.71381,-0.52165 -1.38789,-0.66384 -0.64238,-0.1355 -1.58601,-0.47419 -2.09694,-0.75264 -1.60403,-0.87418 -1.75941,-1.43357 -1.59771,-5.75201 0.18262,-4.87683 0.146,-8.32455 -0.17652,-16.62039 -0.56181,-14.45082 -2.01283,-30.12439 -5.68088,-61.36357 -3.7832,-32.21993 -5.01805,-44.85158 -5.78957,-59.22326 -0.86563,-16.12472 -0.73283,-29.98498 0.41055,-42.85147 0.65904,-7.41614 0.69427,-7.56089 2.04732,-8.41274 1.31097,-0.82537 1.30107,-0.78846 1.85549,-6.91113 0.34518,-3.81184 0.52079,-4.83028 1.07239,-6.21936 0.93419,-2.35252 1.11561,-3.50231 1.21703,-7.71324 0.0997,-4.14099 0.13569,-4.41581 0.6526,-4.98751 z m 6.20491,34.64181 c -0.45032,5.49174 -0.54944,8.89304 -0.2715,9.31726 0.23854,0.36408 0.83752,0.62757 1.70866,0.75163 0.64203,0.0914 1.00914,-0.83145 1.06342,-2.6734 0.0257,-0.87189 0.24551,-3.97006 0.48849,-6.88483 0.24297,-2.91476 0.36092,-5.42365 0.26209,-5.57531 -0.22009,-0.33777 -2.47138,-0.2489 -2.8286,0.11166 -0.13973,0.14104 -0.22086,0.44596 -0.18029,0.67761 0.0406,0.23164 -0.0684,2.15556 -0.24227,4.27538 z"
         id="path30393" />
      <path
         style="fill:#511411;stroke-width:0.264583"
         d="m 371.51501,416.50998 c 0.36776,-0.30033 0.44479,-0.27657 0.75453,0.23268 0.3145,0.51709 0.30385,0.57998 -0.12063,0.71237 -0.25607,0.0799 -0.41114,0.29638 -0.3446,0.48115 0.0666,0.18476 0.24358,0.29179 0.39341,0.23783 0.15952,-0.0575 0.09,0.76651 -0.16768,1.98826 -0.35479,1.68196 -0.51537,2.07049 -0.82843,2.00446 -0.42659,-0.09 -0.42844,-0.23016 -0.0242,-1.83034 0.178,-0.70454 0.165,-1.11442 -0.0367,-1.15696 -0.21028,-0.0444 -0.20555,-0.34216 0.0145,-0.91146 0.17972,-0.46508 0.24204,-0.97562 0.13848,-1.13455 -0.11487,-0.17628 -0.0286,-0.41938 0.22129,-0.62344 z m -4.74194,25.31901 1.06188,-0.59767 0.53039,-5.76638 c 0.37638,-4.09202 0.63879,-5.90654 0.90371,-6.24908 0.20533,-0.26548 0.52768,-0.87602 0.71634,-1.35676 0.67302,-1.71498 1.46454,-1.87423 1.13601,-0.22857 -0.12166,0.60946 -0.0167,0.93981 0.40511,1.27441 0.31315,0.24843 0.60268,0.67825 0.64342,0.95516 0.0407,0.27691 -0.13888,2.83136 -0.39913,5.67657 -0.26026,2.8452 -0.38321,5.26446 -0.27322,5.37613 0.10999,0.11167 0.063,0.48394 -0.10449,0.82727 -0.16939,0.3473 -0.19921,0.72458 -0.0672,0.85041 0.1305,0.12439 0.26337,0.69926 0.29529,1.27748 0.0458,0.8298 0.20152,1.11186 0.739,1.33865 0.7375,0.31118 1.56424,-0.0103 1.99845,-0.77716 0.14053,-0.24819 0.41831,-0.41691 0.61729,-0.37494 0.37241,0.0786 1.05917,-0.57581 1.17359,-1.11823 0.0383,-0.18167 -0.16431,-0.29513 -0.49848,-0.27912 -0.75403,0.0361 -0.88045,-0.77015 -0.17089,-1.08999 0.48387,-0.21811 0.53817,-0.4062 0.59638,-2.06594 0.0352,-1.00429 0.0274,-2.23226 -0.0174,-2.72883 -0.0448,-0.49656 0.0636,-1.22401 0.24084,-1.61656 0.24187,-0.5357 0.22171,-0.80155 -0.0808,-1.06587 -0.33637,-0.29389 -0.33244,-0.44792 0.0238,-0.93091 0.26193,-0.3552 0.3537,-0.69095 0.23756,-0.86919 -0.11614,-0.17824 -0.011,-0.45046 0.27225,-0.70471 0.43264,-0.38837 0.48285,-0.33527 0.80279,0.84906 0.29359,1.08675 0.26595,1.51355 -0.19773,3.05331 -0.86259,2.86446 -1.26874,8.57124 -0.6323,8.88439 0.10105,0.0497 0.27692,0.11006 0.39082,0.13409 0.29987,0.0632 0.22549,2.59371 -0.20538,6.98722 -0.20721,2.11278 -0.27561,4.17775 -0.15202,4.58882 0.17508,0.58232 0.14142,0.80168 -0.1524,0.99314 -0.29381,0.19145 -0.30823,0.31138 -0.0653,0.54297 0.18261,0.17407 0.20527,0.51033 0.0547,0.81149 -0.14142,0.28284 -0.17024,0.53258 -0.064,0.55498 0.1062,0.0224 0.26436,0.35997 0.35146,0.75015 0.12425,0.55657 0.35023,0.74989 1.04885,0.89726 1.46637,0.30931 1.75204,0.16222 1.9957,-1.02759 0.12096,-0.59065 0.21163,-1.56239 0.20151,-2.15941 -0.0101,-0.59703 0.19496,-3.29163 0.45574,-5.98799 0.26079,-2.69637 0.44885,-5.33435 0.41792,-5.86217 -0.0797,-1.36058 0.83193,-2.95047 2.05807,-3.58914 l 0.96668,-0.50353 0.45281,-4.63658 c 0.64532,-6.6078 0.6994,-6.94263 1.22504,-7.58335 0.26003,-0.31696 0.45206,-0.4745 0.42674,-0.35009 -0.0253,0.12441 0.15929,0.11804 0.41026,-0.0142 0.5559,-0.29283 0.66811,-0.67029 0.22693,-0.76335 -0.23234,-0.049 -0.20615,-0.65747 0.0917,-2.13023 0.46647,-2.30664 0.78354,-2.49438 0.62161,-0.36804 -0.17417,2.28717 -0.0269,3.68606 0.38108,3.62084 0.21073,-0.0337 0.41235,0.2414 0.47637,0.64997 0.11151,0.71167 -0.4896,9.03761 -0.74784,10.35821 -0.0798,0.40778 -0.0131,0.66117 0.15776,0.59965 0.18992,-0.0684 0.16939,0.22071 -0.0573,0.8074 -0.21932,0.56754 -0.24979,0.93577 -0.0804,0.97151 0.15014,0.0317 0.1567,0.28975 0.0146,0.57397 -0.2429,0.48578 -0.18328,0.72243 0.4622,1.83443 0.3467,0.5973 1.87251,0.90145 2.49323,0.49698 0.31815,-0.20731 0.49303,-0.57789 0.49322,-1.04519 1.7e-4,-0.39819 0.002,-1.00296 0.005,-1.34394 0.007,-0.98904 0.30733,-1.0698 1.51815,-0.40797 1.80379,0.98594 1.89755,1.29895 1.55547,5.19244 -1.83389,20.87322 -1.34289,42.0675 1.64934,71.19418 0.48412,4.71254 2.08806,18.95404 3.5643,31.64779 3.84116,33.02899 5.00965,45.62175 5.7004,61.4332 0.35557,8.139 0.40176,12.81355 0.18189,18.40849 -0.14776,3.76014 -0.25637,4.64285 -0.63108,5.12903 -1.04184,1.35178 -4.97788,1.93717 -8.33547,1.23971 -1.79896,-0.37368 -1.94566,-0.19934 -1.89273,2.24936 0.0217,1.00436 -0.0377,3.87842 -0.1321,6.38681 -0.19111,5.07988 -0.31598,5.47523 -1.93463,6.12516 -2.47024,0.99186 -7.06828,0.66298 -9.59273,-0.68613 -0.8253,-0.44106 -1.44398,-0.96264 -1.54235,-1.30028 -0.0904,-0.31009 -0.10182,-2.2873 -0.0255,-4.3938 0.14555,-4.01676 0.0997,-7.94363 -0.0962,-8.24431 -0.0635,-0.0974 -0.9721,-0.46061 -2.01917,-0.80709 -1.97159,-0.65243 -2.5884,-1.02452 -3.00299,-1.81158 -0.13372,-0.25385 -0.17861,-2.17773 -0.0998,-4.2753 0.38344,-10.19951 -0.47716,-27.26608 -2.34102,-46.42467 -0.40623,-4.17558 -2.02796,-18.75452 -3.60385,-32.39765 -1.57588,-13.64313 -3.21666,-28.28694 -3.64616,-32.54178 -2.84803,-28.21393 -3.3554,-49.13584 -1.66099,-68.49259 0.25565,-2.92053 0.58929,-5.91003 0.74143,-6.64333 0.24876,-1.19905 0.38351,-1.39344 1.3385,-1.93093 z m 3.51939,-12.14748 c 0.1282,0.1222 0.2867,-0.0772 0.36811,-0.46316 0.0814,-0.38593 0.017,-0.63239 -0.14967,-0.57238 -0.16095,0.058 -0.3266,0.26639 -0.3681,0.46316 -0.0415,0.19678 0.0258,0.45435 0.14966,0.57238 z m 0.89803,-5.9454 c 0.0354,0.20266 -0.0209,0.42401 -0.1251,0.49189 -0.10417,0.0679 -0.1331,-0.0979 -0.0643,-0.36847 0.0761,-0.29896 0.15033,-0.34737 0.18941,-0.12341 z m 3.87319,-8.10638 c 0.0354,0.20266 -0.0209,0.42401 -0.12509,0.4919 -0.10417,0.0679 -0.13311,-0.0979 -0.0643,-0.36848 0.076,-0.29896 0.15032,-0.34737 0.1894,-0.12341 z m 0.0698,5.20313 c 0.14239,0.03 0.20974,0.28761 0.14967,0.57238 -0.0601,0.28478 -0.22572,0.4932 -0.36811,0.46317 -0.14238,-0.03 -0.20973,-0.28761 -0.14966,-0.57239 0.0601,-0.28477 0.22571,-0.4932 0.3681,-0.46316 z m -0.0539,2.96309 c 0.0872,0.0184 0.0525,0.93082 -0.077,2.02763 -0.1295,1.09681 -0.19154,2.27442 -0.13787,2.61691 0.10732,0.68493 -0.50167,1.42365 -1.07411,1.3029 -0.22987,-0.0485 -0.15364,-0.20234 0.2426,-0.48964 0.44072,-0.31954 0.4915,-0.43714 0.21407,-0.49566 -0.28686,-0.0605 -0.25409,-0.5965 0.15505,-2.53614 0.28534,-1.35269 0.59009,-2.44438 0.67725,-2.426 z m 5.27718,6.45367 c 0.0343,0.19314 -0.0272,0.48438 -0.13652,0.64722 -0.10936,0.16283 -0.13741,0.005 -0.0623,-0.35115 0.0751,-0.35597 0.16457,-0.4892 0.19884,-0.29607 z m 0.0682,5.55771 c 0.16547,0.0969 0.26809,0.33146 0.22804,0.52131 -0.04,0.18985 -0.22867,0.363 -0.41917,0.38479 -0.20604,0.0236 -0.29843,-0.18764 -0.22804,-0.52131 0.0704,-0.33368 0.2402,-0.48957 0.41917,-0.38479 z m -0.0785,1.98078 c 0.34413,-0.055 0.35671,0.21849 0.0709,1.54138 -0.37484,1.73498 -0.66253,1.54395 -0.55283,-0.36709 0.0487,-0.84777 0.16165,-1.12309 0.48193,-1.17429 z m 1.61922,-6.11263 c -0.0405,0.47746 -0.18917,1.17621 -0.3303,1.55276 -0.14113,0.37656 -0.10796,-0.0141 0.0737,-0.86811 0.18176,-0.854 0.29713,-1.16211 0.2566,-0.68465 z m 5.90634,-15.27264 c 0.0797,-0.052 0.35171,0.009 0.60436,0.13523 0.33858,0.1693 0.41227,0.47932 0.28024,1.17893 -0.0985,0.52207 -0.20914,1.18626 -0.24581,1.47597 -0.20584,1.62636 -0.6972,2.9626 -1.06116,2.88583 -0.46481,-0.0981 -0.5438,-1.22125 -0.1436,-2.04177 0.1604,-0.32885 0.19577,-0.6893 0.0786,-0.80099 -0.21161,-0.20172 0.20996,-2.65243 0.48737,-2.8332 z m 1.25248,-0.7985 c 0.0343,0.19314 -0.0272,0.48439 -0.13653,0.64722 -0.10936,0.16284 -0.1374,0.005 -0.0623,-0.35115 0.0751,-0.35597 0.16456,-0.4892 0.19884,-0.29607 z m 2.21452,-0.20373 c 0.0125,0.26573 -0.0655,0.61432 -0.17343,0.77463 -0.10789,0.16032 -0.11812,-0.0571 -0.0227,-0.48315 0.0954,-0.42605 0.18365,-0.55722 0.19616,-0.29149 z m -0.006,5.33418 c 0.36477,0.0769 0.4706,0.40385 0.24408,0.75393 -0.32129,0.49655 -0.69425,0.31194 -0.56904,-0.28167 0.0601,-0.28477 0.2063,-0.49729 0.32496,-0.47226 z m -0.10951,2.41055 c 0.43434,0.0916 0.19722,2.97965 -0.2717,3.30924 -0.17045,0.1198 -0.24622,-0.003 -0.19247,-0.31101 0.14124,-0.81026 0.20551,-1.92377 0.14568,-2.52354 -0.0379,-0.37939 0.0623,-0.52872 0.31849,-0.47469 z m 1.68592,-6.20171 c -0.006,0.33339 -0.11645,0.85763 -0.24574,1.16499 -0.12928,0.30735 -0.12448,0.0346 0.0107,-0.60616 0.13516,-0.64075 0.24094,-0.89222 0.23506,-0.55883 z"
         id="path30391" />
      <path
         style="fill:#0b0b0b;stroke-width:0.264583"
         d="m 371.51501,416.50998 c 0.36776,-0.30033 0.44479,-0.27657 0.75453,0.23268 0.3145,0.51709 0.30385,0.57998 -0.12063,0.71237 -0.25607,0.0799 -0.41114,0.29638 -0.3446,0.48115 0.0666,0.18476 0.24358,0.29179 0.39341,0.23783 0.15952,-0.0575 0.09,0.76651 -0.16768,1.98826 -0.35479,1.68196 -0.51537,2.07049 -0.82843,2.00446 -0.42659,-0.09 -0.42844,-0.23016 -0.0242,-1.83034 0.178,-0.70454 0.165,-1.11442 -0.0367,-1.15696 -0.21028,-0.0444 -0.20555,-0.34216 0.0145,-0.91146 0.17972,-0.46508 0.24204,-0.97562 0.13848,-1.13455 -0.11487,-0.17628 -0.0286,-0.41938 0.22129,-0.62344 z m -4.87728,25.37837 c 0.57046,-0.35455 1.00416,-0.46752 1.11115,-0.28942 0.0965,0.16067 0.14542,1.06816 0.10868,2.01665 -0.0728,1.88028 0.0934,2.1916 1.31083,2.45463 1.09036,0.23557 1.42887,-0.10194 1.90705,-1.90139 l 0.4059,-1.52746 0.0989,1.13896 c 0.0784,0.90231 0.24042,1.19866 0.7799,1.42629 0.4169,0.17591 0.87805,0.17356 1.18921,-0.006 0.41383,-0.23887 0.53455,-0.22175 0.64984,0.0921 0.0779,0.21202 0.0661,0.57952 -0.0261,0.81667 -0.49126,1.2633 -1.31944,14.11316 -0.95427,14.80637 0.25827,0.4903 1.72823,0.8136 2.2256,0.48951 0.20691,-0.13482 0.48187,-0.74608 0.61102,-1.35835 0.26359,-1.24961 0.59101,-1.37305 0.82785,-0.3121 0.12425,0.55657 0.35023,0.74989 1.04885,0.89726 1.46637,0.30931 1.75204,0.16222 1.99569,-1.02759 0.12097,-0.59065 0.21164,-1.56238 0.20151,-2.15941 -0.0101,-0.59703 0.19496,-3.29163 0.45575,-5.98799 0.26079,-2.69637 0.44885,-5.33435 0.41791,-5.86217 -0.0806,-1.37471 0.8483,-2.99021 2.05308,-3.57073 1.08626,-0.52342 1.06878,-0.55832 1.02876,2.05344 -0.0232,1.51709 0.0586,1.79819 0.62292,2.14021 0.44011,0.26672 0.88218,0.34182 1.37052,0.23281 0.61724,-0.1378 0.75634,-0.32918 0.96776,-1.33147 0.13581,-0.6438 0.36342,-1.14597 0.5058,-1.11593 0.14239,0.03 0.23607,0.16278 0.20818,0.295 -0.10923,0.51784 0.6337,1.23461 1.46042,1.409 1.12088,0.23644 1.85486,-0.2316 1.85526,-1.18305 1.7e-4,-0.39819 0.002,-1.00296 0.005,-1.34394 0.007,-0.98904 0.30733,-1.0698 1.51815,-0.40797 1.80379,0.98594 1.89755,1.29895 1.55547,5.19244 -1.83389,20.87322 -1.34289,42.0675 1.64934,71.19418 0.48412,4.71254 2.08806,18.95404 3.5643,31.64779 3.84116,33.02899 5.00965,45.62175 5.7004,61.4332 0.35557,8.139 0.40176,12.81355 0.18189,18.40849 -0.14776,3.76014 -0.25637,4.64285 -0.63108,5.12903 -1.04184,1.35178 -4.97788,1.93717 -8.33547,1.23971 -1.79896,-0.37368 -1.94566,-0.19934 -1.89273,2.24936 0.0217,1.00436 -0.0377,3.87842 -0.1321,6.38681 -0.19111,5.07988 -0.31598,5.47523 -1.93463,6.12516 -2.47024,0.99186 -7.06828,0.66298 -9.59273,-0.68613 -0.8253,-0.44106 -1.44398,-0.96264 -1.54235,-1.30028 -0.0904,-0.31009 -0.10182,-2.2873 -0.0255,-4.3938 0.14555,-4.01676 0.0997,-7.94363 -0.0962,-8.24431 -0.0635,-0.0974 -0.9721,-0.46061 -2.01917,-0.80709 -1.97159,-0.65243 -2.5884,-1.02452 -3.00299,-1.81158 -0.13372,-0.25385 -0.17861,-2.17773 -0.0998,-4.2753 0.38344,-10.19951 -0.47716,-27.26608 -2.34102,-46.42467 -0.40623,-4.17558 -2.02796,-18.75452 -3.60385,-32.39765 -1.57588,-13.64313 -3.21666,-28.28694 -3.64616,-32.54178 -2.84803,-28.21393 -3.3554,-49.13584 -1.66099,-68.49259 0.62946,-7.19093 0.7643,-7.78133 1.94459,-8.5149 z m 3.71141,-14.83134 c 0.22561,-0.36139 0.50453,-0.63719 0.61981,-0.61287 0.31207,0.0658 0.37773,0.83135 0.10716,1.2495 -0.13016,0.20117 -0.0952,0.6085 0.0777,0.90518 0.18868,0.32375 0.20614,0.75587 0.0437,1.08077 -0.39441,0.78876 -0.70604,0.58308 -0.62437,-0.41208 0.0644,-0.78507 0.0415,-0.81456 -0.25088,-0.32333 -0.17697,0.2973 -0.42468,0.51883 -0.55046,0.4923 -0.3016,-0.0636 0.0587,-1.54872 0.57734,-2.37947 z m 0.84135,-3.3209 c 0.0354,0.20266 -0.0209,0.42401 -0.1251,0.49189 -0.10417,0.0679 -0.1331,-0.0979 -0.0643,-0.36847 0.0761,-0.29896 0.15033,-0.34737 0.18941,-0.12341 z m 3.87319,-8.10638 c 0.0354,0.20266 -0.0209,0.42401 -0.12509,0.4919 -0.10417,0.0679 -0.13311,-0.0979 -0.0643,-0.36848 0.076,-0.29896 0.15032,-0.34737 0.1894,-0.12341 z m 0.0698,5.20313 c 0.14239,0.03 0.20974,0.28761 0.14967,0.57238 -0.0601,0.28478 -0.22572,0.4932 -0.36811,0.46317 -0.14238,-0.03 -0.20973,-0.28761 -0.14966,-0.57239 0.0601,-0.28477 0.22571,-0.4932 0.3681,-0.46316 z m -0.0539,2.96309 c 0.0872,0.0184 0.0525,0.93082 -0.077,2.02763 -0.1295,1.09681 -0.19154,2.27442 -0.13787,2.61691 0.10732,0.68493 -0.50167,1.42365 -1.07411,1.3029 -0.22987,-0.0485 -0.15364,-0.20234 0.2426,-0.48964 0.44072,-0.31954 0.4915,-0.43714 0.21407,-0.49566 -0.28686,-0.0605 -0.25409,-0.5965 0.15505,-2.53614 0.28534,-1.35269 0.59009,-2.44438 0.67725,-2.426 z m -3.50075,17.32803 c 0.0354,0.20266 -0.0209,0.42401 -0.12509,0.49189 -0.10417,0.0679 -0.13311,-0.0979 -0.0643,-0.36847 0.076,-0.29897 0.15033,-0.34737 0.1894,-0.12342 z m 5.17394,-9.53882 c 0.43437,-0.38993 0.47935,-0.34779 0.76517,0.71675 0.25679,0.95643 0.1953,1.65082 -0.39828,4.49823 -0.38608,1.85196 -0.69564,4.03779 -0.68794,4.85739 0.0164,1.74519 -0.33409,3.8547 -0.67766,4.07857 -0.13234,0.0862 -0.36932,-0.14497 -0.52662,-0.51379 -0.15729,-0.36883 -0.4554,-0.64351 -0.66247,-0.61041 -0.24197,0.0387 -0.29679,-0.0629 -0.15338,-0.2846 0.1227,-0.18963 0.38127,-0.31141 0.57461,-0.27062 0.36397,0.0768 1.05022,-0.58415 1.16334,-1.1204 0.0383,-0.18167 -0.16431,-0.29513 -0.49848,-0.27912 -0.75403,0.0361 -0.88045,-0.77015 -0.17089,-1.08999 0.48387,-0.21811 0.53817,-0.4062 0.59638,-2.06594 0.0352,-1.00429 0.0274,-2.23226 -0.0174,-2.72883 -0.0448,-0.49656 0.0636,-1.22401 0.24084,-1.61656 0.24187,-0.5357 0.22171,-0.80155 -0.0808,-1.06587 -0.33637,-0.29389 -0.33244,-0.44792 0.0238,-0.93091 0.26193,-0.3552 0.3537,-0.69095 0.23756,-0.86919 -0.11614,-0.17824 -0.011,-0.45046 0.27225,-0.70471 z m 3.60399,-1.33554 c 0.0343,0.19314 -0.0272,0.48438 -0.13652,0.64722 -0.10936,0.16283 -0.13741,0.005 -0.0623,-0.35115 0.0751,-0.35597 0.16457,-0.4892 0.19884,-0.29607 z m 0.0682,5.55771 c 0.16547,0.0969 0.26809,0.33146 0.22804,0.52131 -0.04,0.18985 -0.22867,0.363 -0.41917,0.38479 -0.20604,0.0236 -0.29843,-0.18764 -0.22804,-0.52131 0.0704,-0.33368 0.2402,-0.48957 0.41917,-0.38479 z m -0.0785,1.98078 c 0.34413,-0.055 0.35671,0.21849 0.0709,1.54138 -0.37484,1.73498 -0.66253,1.54395 -0.55283,-0.36709 0.0487,-0.84777 0.16165,-1.12309 0.48193,-1.17429 z m 1.61922,-6.11263 c -0.0405,0.47746 -0.18917,1.17621 -0.3303,1.55276 -0.14113,0.37656 -0.10796,-0.0141 0.0737,-0.86811 0.18176,-0.854 0.29713,-1.16211 0.2566,-0.68465 z m -5.23182,24.37729 c 0.24559,0.0518 0.20589,0.85286 -0.0468,0.94386 -0.15392,0.0554 -0.22926,-0.13909 -0.16742,-0.43227 0.0618,-0.29317 0.15823,-0.52339 0.21419,-0.51159 z m -0.04,1.8168 c 0.0343,0.19314 -0.0272,0.48438 -0.13653,0.64722 -0.10936,0.16283 -0.1374,0.005 -0.0623,-0.35115 0.0751,-0.35597 0.16457,-0.4892 0.19885,-0.29607 z m 11.17817,-41.46673 c 0.0797,-0.052 0.35171,0.009 0.60436,0.13523 0.33858,0.1693 0.41227,0.47932 0.28024,1.17893 -0.0985,0.52207 -0.20914,1.18626 -0.24581,1.47597 -0.20584,1.62636 -0.6972,2.9626 -1.06116,2.88583 -0.46481,-0.0981 -0.5438,-1.22125 -0.1436,-2.04177 0.1604,-0.32885 0.19577,-0.6893 0.0786,-0.80099 -0.21161,-0.20172 0.20996,-2.65243 0.48737,-2.8332 z m -2.1748,13.95928 c 0.43963,0.0927 0.60623,-0.29556 0.26597,-0.61991 -0.12383,-0.11804 -0.18563,-0.4019 -0.13735,-0.63081 0.0483,-0.22891 0.14828,-0.32337 0.22221,-0.20992 0.15464,0.23733 0.92722,-0.11153 0.99883,-0.45102 0.0264,-0.12495 -0.0984,-0.25806 -0.2773,-0.29579 -0.23259,-0.0491 -0.20537,-0.66134 0.0956,-2.14939 0.49366,-2.4412 0.71045,-2.34715 0.63487,0.27543 -0.0916,3.17968 -0.29326,4.44171 -0.73599,4.6068 -0.54849,0.20451 -1.57634,-0.0327 -1.50974,-0.34842 0.03,-0.14238 0.22936,-0.22202 0.44294,-0.17697 z m 3.42728,-14.75778 c 0.0343,0.19314 -0.0272,0.48439 -0.13653,0.64722 -0.10936,0.16284 -0.1374,0.005 -0.0623,-0.35115 0.0751,-0.35597 0.16456,-0.4892 0.19884,-0.29607 z m 2.21452,-0.20373 c 0.0125,0.26573 -0.0655,0.61432 -0.17343,0.77463 -0.10789,0.16032 -0.11812,-0.0571 -0.0227,-0.48315 0.0954,-0.42605 0.18365,-0.55722 0.19616,-0.29149 z m -0.006,5.33418 c 0.36477,0.0769 0.4706,0.40385 0.24408,0.75393 -0.32129,0.49655 -0.69425,0.31194 -0.56904,-0.28167 0.0601,-0.28477 0.2063,-0.49729 0.32496,-0.47226 z m -0.10951,2.41055 c 0.43434,0.0916 0.19722,2.97965 -0.2717,3.30924 -0.17045,0.1198 -0.24622,-0.003 -0.19247,-0.31101 0.14124,-0.81026 0.20551,-1.92377 0.14568,-2.52354 -0.0379,-0.37939 0.0623,-0.52872 0.31849,-0.47469 z m -3.44245,16.79952 c 0.0354,0.20265 -0.0209,0.424 -0.1251,0.49189 -0.10417,0.0679 -0.1331,-0.0979 -0.0643,-0.36847 0.076,-0.29897 0.15032,-0.34738 0.1894,-0.12342 z m 5.12837,-23.00123 c -0.006,0.33339 -0.11645,0.85763 -0.24574,1.16499 -0.12928,0.30735 -0.12448,0.0346 0.0107,-0.60616 0.13516,-0.64075 0.24094,-0.89222 0.23506,-0.55883 z m -5.11028,24.21011 c 0.0125,0.26574 -0.0655,0.61432 -0.17344,0.77464 -0.10789,0.16031 -0.11812,-0.0571 -0.0227,-0.48316 0.0954,-0.42605 0.18366,-0.55721 0.19616,-0.29148 z m -0.10101,1.74809 c 0.0354,0.20265 -0.0209,0.42401 -0.12509,0.49189 -0.10417,0.0679 -0.13311,-0.0979 -0.0643,-0.36847 0.076,-0.29897 0.15032,-0.34737 0.1894,-0.12342 z"
         id="path30389" />
    </g>
  </g>
</svg>
