<?xml version="1.0" encoding="UTF-8" standalone="no"?>
<!-- Created with Inkscape (http://www.inkscape.org/) -->

<svg
   width="63.064533mm"
   height="42.069962mm"
   viewBox="0 0 63.064532 42.069963"
   version="1.1"
   id="svg5"
   inkscape:version="1.1.2 (b8e25be833, 2022-02-05)"
   sodipodi:docname="6_Electical Wire.svg"
   xmlns:inkscape="http://www.inkscape.org/namespaces/inkscape"
   xmlns:sodipodi="http://sodipodi.sourceforge.net/DTD/sodipodi-0.dtd"
   xmlns="http://www.w3.org/2000/svg"
   xmlns:svg="http://www.w3.org/2000/svg">
  <sodipodi:namedview
     id="namedview7"
     pagecolor="#ffffff"
     bordercolor="#eeeeee"
     borderopacity="1"
     inkscape:pageshadow="0"
     inkscape:pageopacity="0"
     inkscape:pagecheckerboard="false"
     inkscape:document-units="mm"
     showgrid="false"
     inkscape:zoom="0.90509668"
     inkscape:cx="-162.41359"
     inkscape:cy="-14.363107"
     inkscape:window-width="1536"
     inkscape:window-height="801"
     inkscape:window-x="1912"
     inkscape:window-y="-7"
     inkscape:window-maximized="1"
     inkscape:current-layer="layer1" />
  <defs
     id="defs2" />
  <g
     inkscape:label="Ebene 1"
     inkscape:groupmode="layer"
     id="layer1"
     transform="translate(-374.16511,-316.10958)">
    <g
       id="g2822"
       transform="translate(76.297098,-0.29232605)">
      <path
         style="fill:#d3d3d3;stroke-width:0.19359"
         d="m 320.49218,358.43106 c -7.0754,-0.80693 -12.87251,-2.87443 -16.82668,-6.00114 -1.85568,-1.46736 -3.10792,-2.97706 -4.00807,-4.83212 -0.96716,-1.99317 -1.17443,-3.36173 -0.85778,-5.66384 0.33712,-2.45098 0.28649,-3.2652 -0.31348,-5.04111 -2.49998,-7.39999 2.65436,-13.77254 14.16562,-17.5136 4.94083,-1.60573 8.99755,-2.32952 15.97116,-2.84953 3.13523,-0.23379 5.52199,-0.15549 9.33923,0.30638 6.60014,0.79859 9.35848,1.56448 13.36056,3.70976 1.05556,0.56583 1.96828,1.02877 2.02826,1.02877 0.12527,0 1.83958,1.37138 3.2137,2.57084 1.48857,1.29935 3.53066,4.56776 3.79662,6.07659 0.0907,0.5144 0.27086,1.45796 0.4004,2.09681 0.43681,2.15417 0.0122,5.92367 -1.0032,8.90513 -1.45273,4.26578 -3.84833,7.73272 -6.74325,9.75892 -4.86303,3.40371 -6.94866,4.28343 -14.32565,6.04256 -4.77404,1.13843 -6.80733,1.37316 -12.38975,1.43032 -2.82157,0.0289 -5.43503,0.0177 -5.80769,-0.0247 z"
         id="path2836" />
      <path
         style="fill:#9d9d9c;stroke-width:0.19359"
         d="m 322.33128,358.22653 c -6.80293,-0.42441 -12.93099,-2.25896 -17.22949,-5.15797 -1.55086,-1.04594 -3.62579,-3.06172 -4.48684,-4.35895 -1.51033,-2.2754 -1.97191,-4.96685 -1.31699,-7.6792 0.39505,-1.63606 0.3557,-2.40885 -0.1849,-3.63124 -0.64978,-1.46926 -1.13159,-3.91037 -0.98362,-4.98351 0.65055,-4.71792 4.28403,-8.49071 10.94094,-11.36045 3.30224,-1.42357 8.58167,-2.91103 12.19616,-3.43622 6.03186,-0.87643 11.221,-1.07246 15.48719,-0.58505 7.86723,0.89884 11.31068,1.90535 14.93237,4.3647 2.30303,1.56389 3.65544,3.17123 5.13068,6.09784 l 1.32212,2.62284 1e-4,1.97093 c 1.4e-4,2.57557 -0.20155,5.40608 -0.47151,6.61709 -0.11868,0.53237 -0.54938,1.66487 -0.95713,2.51666 -0.40775,0.8518 -0.93182,2.24565 -1.1646,3.09744 -0.72563,2.65517 -2.27985,4.7638 -5.04956,6.85085 -6.48703,4.88811 -17.73379,7.705 -28.16492,7.05424 z m 13.16411,-24.2752 c 1.06475,-0.10226 2.19725,-0.25816 2.51667,-0.34643 0.56022,-0.15482 0.54337,-0.16865 -0.47619,-0.39115 -2.271,-0.49558 -5.88339,-0.6816 -8.57217,-0.44143 -2.54948,0.22774 -4.48823,0.61595 -4.8418,0.96953 -0.11694,0.11693 0.40755,0.22768 1.43231,0.30243 0.88925,0.0649 1.96528,0.15048 2.39118,0.19026 1.05537,0.0986 5.18977,-0.0565 7.55,-0.28321 z"
         id="path2834" />
      <path
         style="fill:#6b6b6a;stroke-width:0.19359"
         d="m 321.53556,357.95253 c -10.74812,-0.77605 -19.39632,-5.2944 -21.78996,-11.38442 -0.55689,-1.41687 -0.59296,-3.92188 -0.0897,-6.22706 l 0.36185,-1.65732 -0.5892,-1.34332 c -0.86116,-1.96335 -1.06488,-2.97891 -0.96797,-4.82531 0.0756,-1.44104 0.18289,-1.83033 0.90677,-3.29117 0.64239,-1.29639 1.14484,-1.97372 2.30974,-3.11361 3.73229,-3.65213 8.05887,-5.55072 18.05073,-7.92099 4.30023,-1.02011 12.26148,-1.48992 16.6387,-0.9819 5.87438,0.68179 10.00578,1.61475 12.52215,2.82779 3.28063,1.58145 6.03448,4.13984 7.22659,6.71364 0.33398,0.72107 0.8775,1.86029 1.20784,2.53161 0.69782,1.4181 0.76026,2.48967 0.39141,6.71661 -0.2305,2.64136 -0.61901,4.08475 -1.5076,5.60102 -0.28262,0.48225 -0.63633,1.46651 -0.78603,2.18726 -0.43365,2.08786 -1.31365,3.60662 -3.17898,5.48644 -2.58943,2.60955 -5.9748,4.59475 -10.49101,6.15201 -4.19664,1.44706 -7.96375,2.18601 -12.93438,2.53717 -3.11351,0.21996 -4.13391,0.21877 -7.28098,-0.008 z m 12.57272,-22.94176 c 2.5912,-0.48259 5.05229,-1.07683 5.25729,-1.26938 0.30069,-0.28243 -0.17843,-0.48044 -2.11004,-0.87207 -1.39606,-0.28304 -2.62107,-0.35532 -5.92232,-0.3494 -3.64594,0.007 -4.37624,0.061 -5.88804,0.43953 -0.94923,0.23765 -2.00098,0.60211 -2.33723,0.80992 -0.66486,0.41091 -0.34378,0.43038 -4.81538,-0.29199 -1.05007,-0.16964 -1.94521,-0.27244 -1.98919,-0.22846 -0.0918,0.0918 1.99401,0.60028 3.70483,0.90311 0.63885,0.11308 2.64251,0.29922 4.45257,0.41364 4.05505,0.25633 4.1839,0.2784 4.0261,0.68963 -0.11093,0.28908 0.073,0.30639 1.95914,0.18445 1.14487,-0.074 2.79289,-0.26706 3.66227,-0.42898 z m 15.09199,-7.11855 c 0.011,-0.38729 -0.0626,-0.78573 -0.16361,-0.88543 -0.11532,-0.11388 -0.19272,0.14209 -0.20818,0.6885 -0.0168,0.59539 -0.15425,1.00777 -0.43557,1.30723 -0.64697,0.68866 -0.47933,0.8606 0.18821,0.19305 0.43628,-0.43628 0.60462,-0.79064 0.61915,-1.30335 z m 1.28009,-0.12271 c -0.0146,-1.03224 -0.10774,-0.84946 -0.23528,0.46168 -0.0567,0.58252 -0.0268,0.84271 0.0778,0.67757 0.0934,-0.14745 0.16424,-0.66012 0.15747,-1.13925 z m 1.55039,0.29038 c -0.0208,-1.13767 -0.28026,-1.24137 -0.28026,-0.11203 0,0.63263 0.0654,1.04732 0.14545,0.92152 0.08,-0.12579 0.14067,-0.49006 0.13481,-0.80949 z m -46.18996,0.43558 c -0.087,-0.23957 -0.15759,-0.84938 -0.1568,-1.35513 8e-4,-0.50575 -0.0254,-0.91955 -0.0583,-0.91955 -0.0328,0 -0.18978,0.3113 -0.34876,0.69177 -0.28299,0.67731 -0.22695,1.28958 0.16261,1.7765 0.32137,0.4017 0.57332,0.28013 0.40122,-0.19359 z m 1.71636,0.006 c -0.12599,-0.12599 -0.23797,-0.5819 -0.24884,-1.01312 l -0.0198,-0.78404 -0.20008,0.62308 c -0.16109,0.50165 -0.13537,0.72184 0.13203,1.12994 0.18266,0.27877 0.38467,0.45429 0.44892,0.39004 0.0642,-0.0643 0.0137,-0.2199 -0.11226,-0.3459 z"
         id="path2832" />
      <path
         style="fill:#4d4d4d;stroke-width:0.19359"
         d="m 321.38142,357.75301 c -4.13474,-0.31716 -8.21109,-1.24837 -11.62803,-2.65634 -2.91997,-1.2032 -4.84198,-2.45197 -6.90076,-4.48356 -1.53976,-1.51943 -1.99178,-2.10749 -2.60048,-3.38316 -0.60297,-1.26367 -0.75249,-1.81566 -0.82334,-3.03962 -0.11617,-2.00662 0.0553,-2.44326 0.55605,-1.41597 0.39499,0.81034 0.39416,0.82525 0.0501,-0.8949 -0.11614,-0.58068 0.18445,-1.13943 0.61298,-1.13943 0.13295,0 0.44897,0.3044 0.70226,0.67644 0.4653,0.68344 1.1989,0.97923 2.08501,0.84067 0.36116,-0.0565 0.29512,-0.15574 -0.49412,-0.74275 -1.59016,-1.18272 -1.14396,-1.21983 1.09092,-0.0908 1.19036,0.60138 2.20664,1.05107 2.2584,0.99932 0.0518,-0.0518 -0.63009,-0.47337 -1.51522,-0.93691 -2.13391,-1.11754 -4.49897,-3.44027 -5.37767,-5.28142 -1.08028,-2.26353 -1.00925,-4.67832 0.20927,-7.11429 0.52522,-1.04997 0.86862,-1.46234 1.05914,-1.27183 0.0483,0.0483 -0.0876,0.81926 -0.30191,1.71329 -0.46917,1.95712 -0.4906,2.91385 -0.0915,4.08514 0.264,0.77481 1.5742,2.60226 1.74398,2.43249 0.0346,-0.0346 -0.23027,-0.64557 -0.58865,-1.35764 -0.89904,-1.78629 -1.17755,-3.21562 -0.92222,-4.73286 0.21532,-1.27951 0.86464,-2.76796 1.43114,-3.28064 0.31722,-0.28707 0.31339,-0.22057 -0.0461,0.80229 -0.47586,1.3539 -0.5347,3.40028 -0.12521,4.35431 0.48879,1.1388 1.34841,2.22997 2.46515,3.12916 1.34006,1.079 1.91419,1.39872 0.83672,0.46596 -0.94068,-0.81436 -2.17098,-2.55968 -2.63934,-3.74423 -0.33701,-0.85232 -0.41249,-2.36937 -0.15115,-3.03774 0.10697,-0.27356 0.18631,-0.0569 0.28361,0.77436 0.17924,1.53121 0.73085,2.6154 1.93523,3.80362 2.44522,2.41244 5.51096,3.90947 9.80216,4.78649 5.00765,1.02344 9.1339,1.32135 13.93791,1.00629 7.31772,-0.47991 11.7955,-1.53327 17.01658,-4.003 4.3232,-2.045 6.57956,-4.12701 7.16443,-6.61083 0.16899,-0.71769 0.17281,-0.71043 0.19187,0.36483 0.0126,0.70926 -0.11923,1.42061 -0.37283,2.01223 -0.27747,0.64732 -0.31068,0.84743 -0.11348,0.68376 0.9498,-0.78826 1.67873,-4.21042 1.14485,-5.3748 -0.59592,-1.29968 -3.15961,-3.30928 -4.89807,-3.83945 -0.47277,-0.14418 -0.47594,-0.13859 -0.13712,0.24108 0.19077,0.21378 0.32145,0.47631 0.29039,0.5834 -0.0311,0.1071 0.3587,0.56219 0.86613,1.01133 1.22465,1.08394 1.88441,2.24922 2.02061,3.56886 0.0931,0.90191 0.0297,1.23083 -0.41083,2.13118 -1.87677,3.836 -9.40365,7.07164 -19.4715,8.37039 -3.95818,0.51061 -10.45578,0.46922 -14.22885,-0.0906 -6.04082,-0.89634 -9.70719,-2.29976 -12.0013,-4.59388 -4.14075,-4.14074 -1.79439,-8.97324 5.80642,-11.95876 1.05839,-0.41573 3.26179,-1.02853 4.54936,-1.26526 0.58561,-0.10767 1.71811,-0.33268 2.51667,-0.50002 0.79856,-0.16735 2.36664,-0.39508 3.48462,-0.50608 1.11798,-0.111 2.504,-0.24964 3.08005,-0.3081 0.60395,-0.0613 0.94562,-0.16916 0.80704,-0.2548 -0.34948,-0.216 0.83451,-0.36814 3.95661,-0.50842 3.14606,-0.14137 6.95692,0.11739 10.46981,0.7109 1.76918,0.2989 2.50155,0.35637 2.55355,0.20038 0.11438,-0.34315 0.66848,-0.26418 2.69005,0.38339 3.20271,1.02592 5.66096,2.31634 7.08428,3.7188 1.45175,1.43046 2.39962,3.19036 2.57332,4.77781 0.23763,2.17175 -0.75013,5.13353 -2.29881,6.89292 -0.64434,0.73201 -0.69459,0.85067 -0.36024,0.85067 0.77544,0 2.52334,-2.69181 3.31628,-5.10715 0.24434,-0.74426 0.19066,-3.13287 -0.0941,-4.18516 -0.12392,-0.45803 -0.10973,-0.45343 0.26473,0.0857 0.58628,0.84418 0.86212,2.27857 0.76402,3.9731 -0.0698,1.20647 -0.22187,1.78806 -0.76683,2.93356 -0.78159,1.64289 -2.65805,4.06163 -4.10384,5.28982 -0.54686,0.46455 -1.25564,1.07418 -1.57506,1.35473 l -0.58077,0.51009 0.6711,-0.38902 c 1.20527,-0.69868 3.82427,-2.88849 4.70074,-3.9304 1.37972,-1.64018 2.27945,-3.0946 2.7263,-4.40711 0.0544,-0.15971 0.10574,0.27935 0.11415,0.97568 0.0133,1.10339 -0.1191,1.84559 -0.68222,3.82392 -0.0911,0.32006 -0.0519,0.42803 0.14039,0.38718 0.19733,-0.0419 0.25428,0.14398 0.21889,0.71448 -0.0696,1.12227 -0.51878,2.3346 -1.50818,4.07075 -0.4804,0.843 -0.82853,1.64982 -0.77361,1.79294 0.16275,0.42411 -0.64259,2.57615 -1.39295,3.72224 -2.9461,4.49991 -10.65602,8.39263 -19.53852,9.86496 -4.27922,0.7093 -8.44495,0.89453 -12.72853,0.56597 z m 7.8223,-13.51081 c 4.79815,-0.55281 9.24523,-1.4155 11.61539,-2.25326 2.90211,-1.02578 7.35984,-3.20077 8.89961,-4.34225 1.93611,-1.4353 2.09034,-1.77585 0.23081,-0.50965 -3.69109,2.51334 -7.80974,4.01138 -15.2285,5.53891 -5.17798,1.06614 -9.19342,1.45201 -15.10001,1.45105 -4.42057,-7.8e-4 -5.45999,-0.0564 -6.73774,-0.36056 -0.83095,-0.19783 -1.55435,-0.31615 -1.60757,-0.26294 -0.15895,0.15896 1.59307,0.51609 4.47352,0.91189 3.3858,0.46523 8.48284,0.39962 13.45449,-0.17319 z m -19.21782,-1.10246 c -0.0643,-0.0643 -0.2313,-0.0712 -0.37105,-0.0153 -0.15443,0.0618 -0.10856,0.10767 0.11696,0.11696 0.20408,0.008 0.31841,-0.0374 0.25409,-0.10168 z m -0.91552,-0.27022 c -0.15971,-0.10322 -0.46462,-0.18766 -0.67757,-0.18766 -0.32061,0 -0.33725,0.0323 -0.0968,0.18766 0.15971,0.10321 0.46461,0.18766 0.67756,0.18766 0.32061,0 0.33726,-0.0323 0.0968,-0.18766 z m 44.85914,-1.09617 c 0.69907,-0.52012 1.67325,-1.85376 2.09977,-2.87456 0.41044,-0.98234 0.0971,-0.82121 -0.77785,0.39992 -0.42046,0.58685 -1.26945,1.60858 -1.88666,2.27051 -0.6172,0.66193 -1.12256,1.2353 -1.12302,1.27416 -10e-4,0.0898 0.87758,-0.46725 1.68776,-1.07003 z m -24.7258,0.21352 c 3.62101,-0.37501 6.9643,-0.93424 9.36448,-1.5664 2.22045,-0.58483 5.79361,-1.90868 7.18745,-2.66294 1.04998,-0.56819 0.95198,-0.54617 -1.31701,0.29586 -7.39115,2.74287 -16.51795,4.04477 -25.39519,3.6225 -5.19916,-0.24732 -8.33612,-0.83588 -11.66698,-2.189 -0.87842,-0.35685 -1.59712,-0.60722 -1.59712,-0.55639 0,0.26292 3.16396,1.49616 5.15678,2.00999 5.76718,1.487 11.07641,1.79112 18.26759,1.04638 z m -0.67756,-1.63503 c 3.91196,-0.24405 6.97797,-0.65999 9.25376,-1.2554 1.64051,-0.4292 3.95399,-1.21453 2.8456,-0.96596 -4.57703,1.02644 -5.87171,1.28134 -7.84039,1.54361 -3.23133,0.4305 -8.93411,0.5777 -12.21348,0.31527 -5.1369,-0.41109 -9.97036,-1.57272 -13.10788,-3.15023 -0.86809,-0.43647 -1.47028,-0.66338 -1.33821,-0.50424 0.62344,0.75121 4.2102,2.17124 7.44576,2.94787 4.90959,1.17843 8.77381,1.45467 14.95484,1.06908 z m 25.33709,-1.28115 c 0.82505,-0.98816 0.53282,-0.9517 -0.32795,0.0409 -0.40606,0.46826 -0.62385,0.80088 -0.48397,0.73915 0.13988,-0.0617 0.50524,-0.41276 0.81192,-0.78006 z m -19.91658,-1.97463 c 8.82252,-1.38732 16.28383,-5.36351 16.87257,-8.99151 0.17511,-1.07905 -0.85907,-2.7041 -2.14957,-3.37771 -0.53654,-0.28006 -0.5221,-0.24274 0.24181,0.62511 0.87922,0.99884 1.29433,2.12789 1.10287,2.99961 -0.19286,0.87808 -1.23005,2.28437 -2.40749,3.26425 -4.0925,3.40581 -12.93924,5.432 -23.76534,5.44302 -4.45661,0.005 -9.33102,-0.73858 -12.72665,-1.9402 -0.85382,-0.30214 -1.58051,-0.52122 -1.61488,-0.48685 -0.0344,0.0344 0.58537,0.33219 1.37719,0.66182 1.81007,0.75354 4.66135,1.47818 7.29192,1.85321 1.11798,0.15939 2.29404,0.32806 2.61346,0.37482 0.31943,0.0467 2.84577,0.0592 5.61411,0.0276 3.89692,-0.0445 5.60154,-0.14678 7.55,-0.45316 z m 13.9011,-0.21181 c 0.47623,-0.20413 0.92783,-0.47141 1.00356,-0.59394 0.11183,-0.18095 -1.73436,0.63604 -2.0148,0.8916 -0.17875,0.16288 0.19016,0.0543 1.01124,-0.29766 z m -19.5119,-0.98584 c 6.72983,-0.42514 11.99013,-1.64271 16.64542,-3.85283 3.25561,-1.5456 4.87726,-3.37353 4.36632,-4.92171 -0.29266,-0.88674 -1.93554,-2.33364 -2.26999,-1.9992 -0.0532,0.0532 0.0771,0.18987 0.28967,0.30363 0.61423,0.32872 1.19542,1.43875 1.19542,2.28317 0,0.67795 -0.13563,0.90516 -1.16339,1.94899 -0.63986,0.64986 -1.35856,1.24327 -1.59711,1.31867 -0.23856,0.0754 -0.69508,0.32763 -1.01451,0.56049 -0.85381,0.62243 -3.92412,1.73368 -4.72659,1.71072 -0.38165,-0.0109 -1.52152,-0.21563 -2.53302,-0.4549 -1.57975,-0.3737 -2.41243,-0.43798 -5.90449,-0.45581 -4.33945,-0.0222 -6.21114,0.22113 -8.17394,1.06248 -0.7407,0.31751 -1.15267,0.3714 -2.08546,0.27282 -4.05681,-0.42872 -8.70956,-1.70573 -11.07146,-3.0387 -1.28884,-0.72738 -2.77108,-2.37447 -2.77108,-3.07928 0,-0.73212 0.61163,-1.40856 2.0917,-2.31333 1.14,-0.6969 1.21451,-0.77619 0.61856,-0.65832 -0.90958,0.17991 -1.97219,0.73485 -2.80167,1.46314 -0.58692,0.51532 -0.68295,0.71923 -0.68295,1.45018 0,0.70254 0.11968,0.98301 0.68778,1.61183 0.37828,0.41872 1.12208,1.03998 1.65288,1.3806 0.5308,0.34061 0.91993,0.66445 0.86475,0.71964 -0.18166,0.18165 -2.52008,-1.08457 -3.07757,-1.66647 -0.54094,-0.56462 -0.88867,-1.57068 -0.89758,-2.59691 -0.006,-0.65243 1.0431,-1.86434 2.40993,-2.78482 1.1601,-0.78126 1.03545,-0.83492 -0.33989,-0.14633 -2.11897,1.0609 -3.04713,2.17596 -3.38432,4.06585 -0.15517,0.86969 -0.13844,0.98007 0.1376,0.90788 0.184,-0.0481 0.56854,0.19727 0.92776,0.59201 0.85477,0.93933 3.46651,2.31335 5.93305,3.12132 3.10495,1.01711 10.27233,2.22395 13.23466,2.22845 0.23957,3.9e-4 0.43558,0.0878 0.43558,0.19425 0,0.4838 -8.19744,0.0511 -11.18977,-0.59061 -1.71999,-0.36887 -1.56904,-0.0817 0.18879,0.35917 0.91668,0.22991 2.83042,0.54875 4.25274,0.70852 4.58119,0.51463 5.73076,0.54945 9.75218,0.29541 z m 22.56584,-1.084 c 0.24974,-0.30269 0.23815,-0.31331 -0.12864,-0.11793 -0.22171,0.11809 -0.52661,0.36441 -0.67757,0.54736 -0.24974,0.30269 -0.23815,0.31331 0.12864,0.11794 0.22171,-0.1181 0.52661,-0.36441 0.67757,-0.54737 z M 311.6835,322.5745 c -0.10812,-0.10811 -1.8622,0.53239 -2.12896,0.77739 -0.10637,0.0977 0.34889,-0.0175 1.01169,-0.25597 0.6628,-0.23848 1.16557,-0.47312 1.11727,-0.52142 z m 35.71767,-0.69806 c 0,-0.0469 -0.0871,-0.13921 -0.19359,-0.20501 -0.10648,-0.0658 -0.19359,-0.0274 -0.19359,0.0854 0,0.11275 0.0871,0.20501 0.19359,0.20501 0.10647,0 0.19359,-0.0384 0.19359,-0.0854 z m -20.61732,-0.4954 c 0.50691,-0.21782 -4.37278,-0.22782 -5.42052,-0.0111 -0.54565,0.11286 0.0833,0.16272 2.12949,0.16882 1.59712,0.005 3.07808,-0.0662 3.29103,-0.15772 z M 341.0127,320.499 c 0,-0.0592 -0.40666,-0.28756 -0.90369,-0.50743 -1.04506,-0.46228 -4.12964,-0.74896 -4.12964,-0.38381 0,0.2501 0.26533,0.32293 2.51666,0.6907 1.86298,0.30434 2.51667,0.35643 2.51667,0.20054 z m 7.84039,2.81794 c -0.0658,-0.10647 0.011,-0.19359 0.17074,-0.19359 0.15971,0 0.34423,0.0871 0.41003,0.19359 0.0658,0.10648 -0.011,0.19359 -0.17074,0.19359 -0.15971,0 -0.34422,-0.0871 -0.41003,-0.19359 z m -26.39577,-5.20475 c -0.35777,-0.22673 0.31273,-0.3307 4.61691,-0.71592 3.93505,-0.35218 8.21352,-0.27942 10.50462,0.17864 1.43048,0.28599 2.06748,0.63018 0.82039,0.44328 -0.4259,-0.0638 -2.32772,-0.20753 -4.22628,-0.31933 -3.45615,-0.20352 -7.77536,-0.0312 -10.05501,0.4011 -1.17378,0.2226 -1.32688,0.22373 -1.66063,0.0122 z"
         id="path2830" />
      <path
         style="fill:#373738;stroke-width:0.19359"
         d="m 320.78256,357.4823 c -5.27536,-0.56053 -8.67225,-1.44884 -12.19616,-3.18936 -5.15523,-2.54626 -8.34095,-5.92013 -9.01064,-9.54282 -0.34291,-1.85496 0.0296,-1.92315 0.75908,-0.13897 0.34934,0.85441 0.70805,1.50841 0.79715,1.45334 0.0891,-0.0551 0.80096,0.51943 1.58192,1.27665 0.78096,0.75722 1.68127,1.54846 2.0007,1.75831 0.38305,0.25165 0.27764,0.0964 -0.30965,-0.45592 -1.78609,-1.67988 -3.44756,-4.079 -3.4611,-4.99772 -0.002,-0.15865 0.78869,0.562 1.75784,1.60145 1.99061,2.135 3.45997,3.24603 5.6501,4.27223 1.70882,0.80067 2.15687,0.91554 1.00896,0.25866 -1.367,-0.78225 -3.61488,-2.29354 -3.53307,-2.37534 0.0436,-0.0436 0.55144,0.17592 1.12859,0.48779 1.13023,0.61074 2.87111,1.25567 3.01123,1.11555 0.0473,-0.0473 -0.73766,-0.54238 -1.74443,-1.10011 -2.14213,-1.1867 -4.02689,-2.69501 -4.912,-3.93091 -0.34604,-0.48319 -0.62917,-0.92962 -0.62917,-0.99207 0,-0.3124 0.62038,-0.006 1.93199,0.95516 0.79641,0.58343 1.51753,1.06079 1.60248,1.06079 0.0849,0 1.08853,0.4267 2.23019,0.94823 2.33806,1.06806 6.00046,2.32406 8.17381,2.80315 1.9313,0.42573 3.9312,0.84404 5.18806,1.08515 2.18809,0.41976 9.86052,0.16317 14.84849,-0.49658 9.16215,-1.21186 17.2433,-5.48993 19.53429,-10.34124 0.56194,-1.18994 0.69541,-1.37825 0.89113,-1.25729 0.24595,0.15201 -0.32849,1.96285 -1.01083,3.18653 -1.37293,2.46215 -4.11482,4.80581 -7.60561,6.50097 -3.45504,1.6778 -5.9809,2.37937 -10.55064,2.9305 l -1.25834,0.15176 1.64552,0.11327 c 0.90503,0.0623 1.67455,0.0419 1.71004,-0.0453 0.0355,-0.0872 0.38395,-0.15818 0.77436,-0.15765 0.3904,5.8e-4 1.10185,-0.12708 1.58098,-0.28357 0.47914,-0.15649 1.52452,-0.47005 2.32308,-0.69679 0.79856,-0.22674 2.08811,-0.71723 2.86567,-1.08998 0.92984,-0.44575 1.56749,-0.63913 1.86291,-0.56499 0.52069,0.13069 1.63315,-0.63536 3.53063,-2.43122 1.82399,-1.7263 2.17896,-1.43975 0.79204,0.63936 -1.13746,1.70515 -2.97506,3.51463 -5.37304,5.29082 -1.11798,0.82808 -2.07625,1.57102 -2.12949,1.65098 -0.20258,0.30422 -2.91766,1.54903 -4.83197,2.21536 -3.75886,1.30837 -6.67534,1.90545 -11.42958,2.33993 -3.57999,0.32717 -6.06092,0.32499 -9.19552,-0.008 z m 14.08367,-1.1897 c -0.1331,-0.0537 -0.35089,-0.0537 -0.48398,0 -0.13309,0.0537 -0.0242,0.0976 0.24199,0.0976 0.26618,0 0.37508,-0.0439 0.24199,-0.0976 z m -15.25774,-4.49766 c 0.12343,-0.19972 -0.32801,-0.40747 -0.88546,-0.40747 -0.2103,0 -1.61007,-0.30637 -3.1106,-0.68083 -1.50054,-0.37445 -2.75766,-0.65143 -2.79359,-0.61549 -0.0838,0.0838 3.46479,1.12137 5.64065,1.64922 1.04102,0.25255 1.02705,0.25188 1.149,0.0546 z m 15.25774,-1.11645 c -0.1331,-0.0537 -0.35089,-0.0537 -0.48398,0 -0.13309,0.0537 -0.0242,0.0976 0.24199,0.0976 0.26618,0 0.37508,-0.0439 0.24199,-0.0976 z m -24.05354,-1.42051 c -0.15972,-0.10321 -0.3775,-0.18766 -0.48398,-0.18766 -0.10647,0 -0.0629,0.0845 0.0968,0.18766 0.15971,0.10322 0.3775,0.18766 0.48397,0.18766 0.10648,0 0.0629,-0.0844 -0.0968,-0.18766 z m -8.56171,-1.11314 c -0.16354,-0.18633 -0.4781,-0.68724 -0.69901,-1.11314 -0.31654,-0.61024 -0.40348,-0.68347 -0.41022,-0.34552 -0.008,0.37793 1.01899,1.79744 1.29984,1.79744 0.0587,0 -0.0271,-0.15245 -0.19061,-0.33878 z m 23.34779,1.11994 c -0.97122,-0.0873 -2.054,-0.22199 -2.40619,-0.29935 l -0.64035,-0.14064 0.4703,-0.2658 c 0.34866,-0.19706 1.27139,-0.26111 3.56773,-0.24767 7.45269,0.0436 12.63793,-0.71303 17.92172,-2.6152 5.49841,-1.97943 8.60851,-4.51848 11.57225,-9.44747 0.4948,-0.8229 0.95795,-1.49927 1.02922,-1.50304 0.24557,-0.013 -0.26191,1.44771 -0.90557,2.6066 -2.0429,3.67817 -6.90893,7.41687 -12.06379,9.26893 -5.33622,1.91722 -13.56928,3.09084 -18.54532,2.64364 z m -7.33287,-1.68527 c -3.90653,-0.32624 -9.8825,-2.07268 -12.65795,-3.6992 -1.23185,-0.72191 -0.69123,-0.74914 1.48265,-0.0747 4.1749,1.29532 7.63568,1.99142 10.30414,2.07255 4.37097,0.1329 9.44346,0.0906 9.87691,-0.0823 l 0.48015,-0.19157 -0.58077,-0.0383 c -0.31942,-0.0211 -0.94716,-0.019 -1.39497,0.004 -1.28113,0.0672 -1.48602,-0.26168 -0.25054,-0.40217 2.51958,-0.2865 7.31409,-0.9791 7.93718,-1.14657 0.37266,-0.10017 0.98247,-0.17912 1.35513,-0.17545 l 0.67756,0.007 -0.51565,0.28005 c -0.28361,0.15404 -1.24188,0.41483 -2.12949,0.57955 -0.88761,0.16472 -1.88137,0.38367 -2.20835,0.48655 -0.32698,0.10289 -0.7553,0.18706 -0.95181,0.18706 -0.19652,0 -0.30592,0.0514 -0.24311,0.1142 0.24819,0.24819 4.43472,-0.54475 6.62918,-1.25559 2.31675,-0.75045 6.69195,-2.38053 9.3265,-3.4748 2.92667,-1.21559 5.60098,-3.02888 7.5147,-5.09525 1.33088,-1.43705 2.75928,-4.24093 2.94066,-5.77241 0.19951,-1.68459 0.51978,-1.40088 0.39951,0.35391 -0.12715,1.85507 -0.78407,3.44598 -2.16273,5.23765 -4.70458,6.11396 -16.56468,11.24566 -27.76193,12.01221 -2.77639,0.19007 -6.28746,0.22202 -8.06697,0.0734 z m 19.01617,-2.89105 c -0.0643,-0.0643 -0.23131,-0.0712 -0.37105,-0.0153 -0.15443,0.0618 -0.10856,0.10767 0.11696,0.11696 0.20407,0.008 0.31841,-0.0374 0.25409,-0.10168 z m -1.38634,2.46132 c -0.17215,-0.27854 0.37218,-0.47948 3.47146,-1.28145 3.59234,-0.92955 4.5378,-1.30403 5.45738,-2.16156 0.44617,-0.41606 1.62223,-1.18158 2.61346,-1.70114 2.12964,-1.11627 4.30769,-2.5365 5.73176,-3.7375 0.56412,-0.47575 1.07345,-0.81723 1.13184,-0.75884 0.0584,0.0584 -0.49028,0.6885 -1.21926,1.40026 -1.28695,1.25652 -4.13443,3.27389 -5.84516,4.14114 -1.20001,0.60835 -0.90227,0.66455 0.6116,0.11545 0.71207,-0.25828 1.29467,-0.40266 1.29467,-0.32084 0,0.21424 -2.5738,1.64972 -4.16219,2.32136 -1.40804,0.59539 -6.23432,1.85161 -7.96077,2.0721 -0.64865,0.0828 -1.03762,0.0521 -1.12479,-0.089 z m -30.98753,-0.40846 c -0.0658,-0.10648 -0.0325,-0.19359 0.0739,-0.19359 0.10648,0 0.24743,0.0871 0.31324,0.19359 0.0658,0.10647 0.0325,0.19358 -0.074,0.19358 -0.10647,0 -0.24743,-0.0871 -0.31323,-0.19358 z m -1.67552,-1.69392 c -1.02068,-1.05862 -1.9059,-2.33322 -1.9059,-2.74427 0,-0.15561 0.43587,0.32197 0.96859,1.06128 0.53272,0.73932 1.19725,1.62734 1.47673,1.97338 0.73165,0.90589 0.48701,0.7742 -0.53942,-0.29039 z m 11.75244,-1.22842 c -1.99865,-0.27007 -5.90207,-1.25331 -7.71105,-1.94236 -2.17014,-0.82661 -4.6163,-2.32785 -5.87185,-3.60362 -0.63292,-0.64312 -1.32874,-1.63801 -1.76925,-2.5297 -0.67026,-1.35674 -0.72563,-1.59689 -0.72046,-3.12463 0.005,-1.38839 0.0909,-1.83896 0.53516,-2.79755 0.29125,-0.62844 0.57619,-1.09599 0.63318,-1.039 0.057,0.057 10e-4,0.69176 -0.12398,1.41061 -0.75513,4.33626 1.55233,7.42711 7.37933,9.88463 4.49925,1.89755 11.94115,2.88453 18.18932,2.41236 9.50258,-0.7181 13.83322,-1.71074 21.43824,-4.9139 3.34,-1.40678 5.88454,-3.84501 7.03584,-6.74187 0.5669,-1.42644 0.4452,-3.19722 -0.31583,-4.5955 -0.82836,-1.52196 -2.77045,-3.21712 -5.41743,-4.7286 -2.66591,-1.52229 -2.16415,-1.64162 0.83996,-0.19976 1.38626,0.66536 2.10353,1.16403 3.10944,2.16182 1.62359,1.61048 2.2004,2.76213 2.30772,4.60758 0.25731,4.42481 -2.25442,7.90726 -7.64848,10.60438 -4.49148,2.24582 -11.81202,4.08781 -19.41357,4.88482 -3.52139,0.36922 -10.5523,0.51026 -12.47629,0.25029 z m 3.37757,-2.41968 c -4.4111,-0.315 -5.7365,-0.51552 -8.31329,-1.25774 -5.30696,-1.52862 -9.00279,-4.92708 -9.25947,-8.51443 -0.0999,-1.39596 0.0609,-2.69608 0.33345,-2.69608 0.0914,0 0.16956,0.42934 0.17363,0.95409 0.0101,1.30086 0.2955,2.26107 1.01204,3.40466 0.87225,1.39209 1.63868,2.15126 3.23634,3.20566 1.74391,1.15094 3.82566,1.97009 7.13354,2.80701 4.3627,1.10379 6.38579,1.33604 11.49146,1.31923 7.91653,-0.0261 12.9485,-0.79476 18.47254,-2.82191 5.60933,-2.05844 9.00928,-4.46942 10.39373,-7.37041 l 0.57648,-1.20795 -0.11019,0.83876 c -0.23217,1.7673 -1.79196,3.76886 -4.24141,5.44269 -2.21767,1.51546 -8.4209,3.81349 -12.50781,4.63361 -4.45899,0.89479 -10.67192,1.60421 -13.53101,1.54502 -0.70324,-0.0146 -2.89025,-0.14155 -4.86003,-0.28221 z m 1.9359,-1.5486 c -4.02787,-0.47285 -6.0192,-0.86554 -8.90513,-1.75609 -3.98351,-1.22925 -6.39768,-2.70341 -7.81055,-4.76932 -0.85867,-1.25555 -0.87628,-1.93764 -0.02,-0.77348 1.41894,1.92907 4.31033,3.79339 7.58365,4.88981 2.18893,0.7332 6.49129,1.48007 10.24046,1.77769 4.60226,0.36535 12.38622,-0.27616 16.69278,-1.37572 3.8225,-0.97597 8.29754,-2.83896 10.59742,-4.41176 1.07613,-0.73593 2.62484,-2.18176 3.2658,-3.04886 0.25915,-0.35057 0.26388,-0.3243 0.05,0.27781 -0.31852,0.89689 -2.09958,2.79528 -3.41963,3.6449 -3.74346,2.40938 -9.56208,4.35341 -15.49795,5.17794 -2.11859,0.29428 -11.17951,0.5546 -12.77693,0.36708 z m 0.29038,-1.54818 c -0.31942,-0.045 -1.58259,-0.21506 -2.80705,-0.37791 -3.11455,-0.41423 -5.10111,-0.82771 -6.67885,-1.39015 -4.92095,-1.75425 -7.82871,-4.64822 -7.6082,-7.57214 0.21329,-2.82813 2.49687,-5.06281 7.12423,-6.97168 2.53139,-1.04424 7.22981,-2.13619 9.77628,-2.27208 l 1.16154,-0.062 -1.35513,0.29476 c -5.74635,1.24993 -8.90621,2.24261 -11.75896,3.69413 -2.41304,1.22779 -3.15126,1.96335 -3.78698,3.77338 -0.47048,1.33952 -0.54505,2.46765 -0.20637,3.12204 1.75381,3.38871 6.44065,5.69756 13.91321,6.85397 3.11829,0.48257 11.27034,0.47439 14.71283,-0.0147 5.49195,-0.78036 11.24627,-2.67105 14.13206,-4.64335 2.10148,-1.43627 3.33239,-2.91549 3.78075,-4.54343 l 0.25002,-0.9078 0.0173,0.82898 c 0.0257,1.23129 -0.42101,2.07783 -1.82071,3.45024 -1.03216,1.01204 -1.71934,1.45907 -3.82391,2.48756 -4.23215,2.06822 -7.65163,3.04589 -13.60889,3.89097 -2.00854,0.28492 -10.12686,0.54045 -11.41317,0.35924 z m 0.25786,-1.43816 c -5.14799,-0.45753 -10.19955,-1.77979 -12.71939,-3.32935 -1.67433,-1.02962 -3.12245,-2.80213 -3.12245,-3.82189 0,-0.56311 0.2194,-0.48238 0.77436,0.28491 0.30396,0.42026 0.95201,0.89262 1.74231,1.26997 3.37675,1.61232 5.9425,2.35904 10.55065,3.07059 1.38416,0.21373 2.9958,0.46797 3.58141,0.56497 l 1.06474,0.17637 -1.4577,0.023 c -3.41454,0.0539 -9.57501,-1.10551 -12.15387,-2.28732 -1.03857,-0.47595 -1.19917,-0.51255 -0.81146,-0.18493 1.07491,0.90829 3.69327,1.96373 6.41943,2.58761 4.85079,1.1101 13.7007,1.18997 19.81258,0.17881 4.21466,-0.69728 9.56138,-2.43245 11.94091,-3.87519 1.49966,-0.90926 2.82575,-2.29311 3.07132,-3.20509 0.25082,-0.93149 0.46584,-0.96896 0.31758,-0.0553 -0.14398,0.88721 -0.9979,2.03515 -2.38863,3.21106 -3.31339,2.80157 -9.94818,4.73527 -17.85356,5.20339 -5.52261,0.32702 -6.88061,0.3562 -8.76823,0.18844 z m -0.73538,-3.50971 c -2.89588,-0.3023 -6.99566,-1.48651 -9.39556,-2.71389 -1.40055,-0.71627 -1.8391,-1.07984 -1.8391,-1.52462 0,-0.20086 -0.13605,-0.32487 -0.33878,-0.30878 -0.23419,0.0186 -0.33404,-0.10759 -0.32342,-0.40869 0.009,-0.24098 -0.0996,-0.43557 -0.24198,-0.43557 -0.14155,0 -0.25736,-0.20604 -0.25736,-0.45787 0,-1.63231 3.74618,-3.225 8.42993,-3.58399 1.9394,-0.14865 2.0019,-0.16488 0.73102,-0.18983 -0.90812,-0.0178 -1.48455,-0.12214 -1.66341,-0.301 -0.23565,-0.23565 -0.47232,-0.23586 -1.70221,-0.002 -3.04373,0.57996 -5.36889,1.57767 -6.57634,2.82187 -1.0603,1.09257 -1.02191,0.43074 0.042,-0.72342 1.1694,-1.26865 3.45943,-2.32412 6.28914,-2.89864 6.03329,-1.22494 18.57541,-1.11956 26.46305,0.22234 0.94398,0.1606 1.74913,0.2592 1.78922,0.21911 0.0401,-0.0401 -0.48089,-0.30031 -1.15773,-0.57827 -1.34102,-0.55072 -3.66472,-0.84935 -10.86577,-1.39643 -4.21993,-0.32059 -5.53007,-0.26554 -11.50958,0.48364 -1.81685,0.22763 -3.41128,0.37791 -3.54318,0.33394 -0.46581,-0.15527 0.65992,-0.55888 2.61685,-0.93823 8.8121,-1.70823 20.69132,-1.34951 27.43912,0.82858 2.75423,0.88903 5.12474,2.38886 6.02883,3.81445 0.71808,1.1323 0.71909,1.66438 0.001,0.67346 -0.66609,-0.91952 -1.57824,-1.70861 -2.52293,-2.18257 -0.88576,-0.4444 -3.3103,-1.24677 -3.42395,-1.13312 -0.0471,0.0471 0.54525,0.33315 1.31633,0.63567 1.07611,0.4222 1.68383,0.82507 2.61467,1.7333 0.66699,0.65079 1.21271,1.33873 1.21271,1.52876 0,0.23157 -0.20943,0.0692 -0.63506,-0.4923 -0.72487,-0.95629 -2.27312,-1.85946 -4.26731,-2.48935 -1.52358,-0.48123 -1.94299,-0.40918 -0.57086,0.0981 1.34983,0.49901 2.56716,1.21847 3.39214,2.00482 0.64183,0.61178 0.72596,0.79958 0.72596,1.62062 -8e-5,0.6911 -0.0734,0.92866 -0.28678,0.92866 -0.15768,0 -0.34136,0.21779 -0.40817,0.48397 -0.16365,0.65207 -0.35432,0.60957 -0.82208,-0.18321 -0.3959,-0.671 -1.84203,-1.85876 -2.2387,-1.83873 -0.11712,0.006 0.0465,0.20193 0.36364,0.43558 0.92023,0.67801 1.64419,1.497 1.77142,2.00394 0.12822,0.51087 -0.36268,1.22794 -0.84064,1.22794 -0.14945,0 -0.59331,0.25251 -0.98634,0.56114 -0.39304,0.30863 -0.9324,0.62056 -1.19859,0.69318 -0.26619,0.0726 -0.85366,0.29943 -1.3055,0.50402 -1.64919,0.74673 -2.40705,0.85322 -3.65272,0.51325 -4.32829,-1.18129 -12.18644,-1.04695 -15.15134,0.25901 -0.91413,0.40266 -1.03746,0.40796 -3.50195,0.15069 z m 22.44997,-7.31371 c 0,-0.0989 -0.4759,-0.31821 -1.05756,-0.4873 -0.58166,-0.16909 -1.21325,-0.36233 -1.40353,-0.42941 -0.25107,-0.0885 -0.29078,-0.0616 -0.14477,0.098 0.17515,0.19152 2.05931,0.94527 2.46067,0.98437 0.0799,0.008 0.14519,-0.0668 0.14519,-0.1657 z m -3.38782,-1.16425 c -1.14338,-0.46174 -3.33263,-1.00142 -5.13013,-1.26464 -1.11798,-0.16372 -2.6425,-0.4229 -3.38782,-0.57596 -3.00357,-0.61682 -8.23348,-0.8479 -11.32501,-0.5004 l -1.25833,0.14144 1.8391,0.0346 c 4.19473,0.0789 10.02317,0.55597 12.48654,1.02214 2.51238,0.47544 3.95883,0.77349 4.93655,1.0172 1.21559,0.303 2.49465,0.39038 1.8391,0.12565 z m -11.32501,-0.70842 c -2.08956,-0.52475 -7.16282,-0.87855 -7.16282,-0.49951 0,0.087 1.5463,0.26877 3.43622,0.40388 1.88992,0.13511 3.47252,0.2817 3.51688,0.32575 0.0444,0.044 0.34927,0.0705 0.67757,0.0587 0.4763,-0.0171 0.38177,-0.0754 -0.46785,-0.2888 z m 15.24117,-0.7747 c -0.0643,-0.0643 -0.2313,-0.0712 -0.37105,-0.0153 -0.15443,0.0618 -0.10856,0.10767 0.11696,0.11696 0.20408,0.008 0.31842,-0.0374 0.25409,-0.10168 z m -36.01446,6.0988 c -0.51048,-0.42078 -0.71192,-0.73785 -0.7038,-1.10779 0.0105,-0.4793 0.0287,-0.49056 0.24199,-0.14962 0.12683,0.20276 0.48177,0.66305 0.78874,1.02285 0.73242,0.85846 0.57072,0.97448 -0.32693,0.23456 z m 36.55087,-8.44753 c -0.7374,-0.18607 -1.31157,-0.44946 -1.20724,-0.55379 0.0576,-0.0576 0.48352,0.003 0.9464,0.13485 1.28769,0.36666 1.5177,0.73609 0.26084,0.41894 z m -3.00065,-1.41283 c -2.62592,-0.36883 -6.43304,-0.8132 -7.96965,-0.93023 -2.82614,-0.21523 -2.19205,-0.4706 0.80683,-0.32493 2.78971,0.1355 6.18235,0.61931 8.03398,1.14569 1.06329,0.30227 0.76678,0.33953 -0.87116,0.10947 z"
         id="path2828" />
      <path
         style="fill:#272728;stroke-width:0.19359"
         d="m 317.39474,356.68936 c -4.86098,-0.72483 -9.8743,-2.75405 -12.95419,-5.24341 -0.89606,-0.72425 -1.85433,-1.6184 -2.12949,-1.987 -0.44615,-0.59765 -0.35364,-0.55354 0.85483,0.40759 1.82508,1.45153 4.00103,2.89649 5.4657,3.62956 1.84891,0.92537 6.65756,2.44549 9.24713,2.92321 3.43234,0.6332 3.12006,0.80745 -0.48398,0.27005 z m 6.58206,-0.21066 c -1.51026,-0.11798 -6.42469,-0.83472 -7.93719,-1.15759 -1.86699,-0.39854 -5.51512,-1.65159 -7.03952,-2.41792 -2.46237,-1.23785 -5.59255,-3.6161 -6.1591,-4.67955 -0.20841,-0.3912 -0.19906,-0.39956 0.14801,-0.13228 0.20376,0.15691 0.70508,0.57764 1.11404,0.93495 1.21507,1.0616 3.499,2.47199 5.00791,3.0925 2.41256,0.99213 2.45871,0.89211 0.18999,-0.41177 -2.63857,-1.51645 -4.02022,-2.53163 -5.52689,-4.06093 -1.12181,-1.13866 -2.33437,-2.82453 -2.15823,-3.00067 0.0501,-0.0501 1.03261,0.8148 2.18339,1.92196 1.53713,1.47886 2.62967,2.32975 4.11733,3.20666 3.29521,1.94239 4.96481,2.56549 10.34936,3.86244 2.54626,0.61331 2.91593,0.65287 6.10947,0.65381 2.68793,7.8e-4 3.47785,0.0605 3.775,0.28524 0.41457,0.31356 1.25238,0.35726 3.24386,0.1692 0.7832,-0.074 1.21765,-0.18745 1.06908,-0.27927 -0.13765,-0.0851 -0.64424,-0.11344 -1.12576,-0.0631 -0.63042,0.066 -0.76711,0.0416 -0.48831,-0.0872 0.21294,-0.0984 1.34545,-0.28443 2.51666,-0.41345 5.3615,-0.5906 12.65347,-3.09945 16.40507,-5.64428 0.6113,-0.41466 1.82528,-1.42149 2.69772,-2.23739 0.87885,-0.82189 1.62075,-1.37998 1.6636,-1.25144 0.0425,0.12761 -0.31185,0.77612 -0.78752,1.44114 -2.30417,3.22133 -6.55787,6.18596 -11.17053,7.78533 -5.49561,1.90552 -12.81319,2.90423 -18.19744,2.4836 z m 11.325,-2.18738 0.58077,-0.14778 -0.58077,-0.009 c -0.31942,-0.005 -0.97279,0.0612 -1.45192,0.14646 l -0.87116,0.15501 0.87116,10e-4 c 0.47913,7.8e-4 1.1325,-0.0652 1.45192,-0.14645 z m -6.87244,0.19359 c 0,-0.10647 0.19601,-0.19226 0.43558,-0.19063 0.35223,0.002 0.38001,0.0389 0.14519,0.19063 -0.37532,0.24255 -0.58077,0.24255 -0.58077,0 z m -3.00064,-1.16749 c -4.30361,-0.25185 -9.13922,-1.15467 -12.23391,-2.28409 -1.34313,-0.49018 -3.13753,-1.34801 -2.38212,-1.1388 0.15971,0.0442 1.20509,0.34334 2.32307,0.66467 3.49056,1.00327 5.13611,1.38704 6.48526,1.5125 10.67845,0.99299 17.23943,0.38979 25.2488,-2.32132 1.10991,-0.37569 2.04917,-0.65192 2.08725,-0.61385 0.17661,0.17661 -2.97673,1.52169 -4.97642,2.12272 -5.46082,1.64132 -11.28972,2.36612 -16.55193,2.05817 z M 322.52487,351.75 c -3.29223,-0.31352 -8.42147,-1.51792 -11.33456,-2.66147 -2.83752,-1.11389 -4.89331,-2.39147 -6.64876,-4.13192 -1.96534,-1.94853 -1.72003,-2.32232 0.39342,-0.59947 0.82709,0.67423 2.79466,1.58798 6.65208,3.08928 1.22445,0.47655 2.83609,1.16323 3.58141,1.52595 1.32952,0.64704 1.70774,0.72884 6.67885,1.4444 1.77173,0.25503 7.37196,0.5769 10.35705,0.59526 2.72317,0.0167 3.88801,0.22407 2.51667,0.44793 -3.07775,0.50241 -8.58957,0.63349 -12.19616,0.29004 z m 9.99839,-1.50346 c -0.16767,-0.10554 0.21535,-0.21381 1.06475,-0.30097 2.93019,-0.3007 6.65226,-0.91581 8.38007,-1.38489 5.78663,-1.571 10.96331,-4.56508 13.07989,-7.56511 0.53237,-0.75458 1.16827,-1.7088 1.41311,-2.12049 0.42557,-0.71558 0.43987,-0.72296 0.32485,-0.16774 -0.22084,1.06613 -1.32543,3.0476 -2.28292,4.09525 -3.12797,3.4225 -8.31044,5.89803 -14.48747,6.92029 -3.03531,0.50232 -7.07734,0.78483 -7.49228,0.52366 z m -7.19133,-1.36638 c -0.46164,-0.13892 -0.4527,-0.15099 0.19359,-0.2616 0.83116,-0.14225 9.94049,-0.33141 9.81285,-0.20377 -0.43103,0.43103 -8.82351,0.82134 -10.00644,0.46537 z m -6.79542,-1.56816 c -2.44876,-0.17614 -5.65296,-0.79904 -7.91741,-1.53916 -1.82762,-0.59734 -4.50837,-1.75051 -4.37632,-1.88256 0.0759,-0.0759 2.37059,0.50838 4.7635,1.2128 0.47913,0.14105 1.26317,0.31338 1.74231,0.38296 0.47913,0.0696 1.38458,0.25543 2.01211,0.41301 0.78408,0.19689 2.50987,0.30859 5.51731,0.35707 4.60264,0.0742 7.61496,-0.0817 10.66802,-0.55221 1.01151,-0.15588 2.7732,-0.33594 3.91487,-0.40014 1.14168,-0.0642 2.30804,-0.20502 2.59192,-0.31295 0.28388,-0.10793 0.55704,-0.15534 0.60701,-0.10537 0.18735,0.18735 -1.39975,0.6981 -3.59031,1.15542 -6.76975,1.4133 -10.17727,1.68515 -15.93301,1.27113 z m -18.34743,-1.13894 c -0.22606,-0.5255 -0.40486,-1.20064 -0.39734,-1.50033 0.0127,-0.5077 0.0385,-0.48898 0.37775,0.27436 0.37178,0.83658 0.69551,2.1814 0.52511,2.1814 -0.052,0 -0.27946,-0.42994 -0.50552,-0.95543 z m 37.33901,0.57715 c 0,-0.0962 0.45735,-0.2994 1.01634,-0.45143 3.22822,-0.878 4.96553,-1.31597 5.56571,-1.40309 2.08265,-0.30233 -3.42388,1.47235 -5.95289,1.91853 -0.34604,0.0611 -0.62916,0.0323 -0.62916,-0.064 z m 1.45211,-2.69823 c -0.75432,-0.1147 -0.69472,-0.14945 2.32307,-1.35459 6.21979,-2.48384 9.05395,-4.13237 11.46114,-6.66651 1.05883,-1.11467 1.5899,-1.89472 2.34712,-3.44748 0.6838,-1.4022 0.94629,-1.8027 0.87122,-1.32927 -0.29788,1.87875 -2.18876,4.73217 -4.39312,6.6294 -2.48761,2.14102 -6.81163,4.70194 -9.90506,5.8663 -1.30052,0.48951 -1.3995,0.50057 -2.70437,0.30215 z m -22.26302,-0.23125 c -2.46352,-0.16284 -6.01855,-0.97447 -9.32862,-2.12977 -2.26788,-0.79155 -5.19616,-2.75011 -6.47527,-4.33094 -0.5179,-0.64006 -0.94163,-1.3068 -0.94163,-1.48163 0,-0.17483 -0.12302,-0.41998 -0.27338,-0.54476 -0.73418,-0.60932 -0.87545,-3.64416 -0.23496,-5.04745 l 0.30926,-0.67757 -0.11132,1.37982 c -0.12915,1.60081 0.25211,3.39127 0.98308,4.6167 0.81103,1.35963 2.66291,3.14343 4.44813,4.28459 0.525,0.33559 0.5609,0.33778 0.44165,0.027 -0.16573,-0.4319 -0.21304,-0.4394 1.48537,0.23528 6.62902,2.63333 13.84998,3.22362 23.8499,1.94965 6.43003,-0.81918 11.527,-2.24427 17.11255,-4.78459 0.97872,-0.44512 3.25497,-2.18912 4.21116,-3.22646 1.00404,-1.08926 1.05492,-0.97916 0.12986,0.28103 -2.30823,3.14444 -7.15518,5.50943 -15.18205,7.40785 -5.10695,1.20784 -7.12516,1.47974 -11.96949,1.61257 -2.27101,0.0623 -4.02838,0.17547 -3.90528,0.25155 0.12546,0.0775 -0.10179,0.19214 -0.51705,0.26075 -0.81098,0.134 -0.70655,0.13616 -4.03191,-0.0836 z m 29.86717,-0.99036 c 0.27457,-0.33803 3.43467,-2.0235 3.25804,-1.73771 -0.13178,0.21322 -2.56423,1.69502 -3.11879,1.8999 -0.33413,0.12344 -0.35321,0.10122 -0.13925,-0.16219 z m -27.64089,-1.6132 c -1.11798,-0.15436 -3.12164,-0.36451 -4.45257,-0.46699 -5.53898,-0.4265 -9.45769,-2.23733 -11.93359,-5.51447 -0.47725,-0.6317 -0.99849,-1.4593 -1.1583,-1.8391 -0.42625,-1.01297 -0.67824,-2.51891 -0.4806,-2.87208 0.12588,-0.22494 0.20662,-0.0822 0.31228,0.55189 0.42048,2.52362 3.29109,5.71175 6.31601,7.01463 1.39931,0.6027 2.13711,0.81208 5.2019,1.47623 4.75404,1.0302 6.52608,1.22472 11.13141,1.22188 7.75852,-0.005 13.18156,-0.84624 19.09409,-2.96266 4.43932,-1.58908 7.41696,-3.4501 9.43172,-5.89481 l 0.63817,-0.77436 -0.44993,0.84947 c -2.56036,4.83397 -15.35847,9.16137 -27.84289,9.41449 -2.62278,0.0532 -4.39544,-0.009 -5.8077,-0.20412 z m 35.72764,-2.53279 c 1.26887,-1.80333 1.6352,-2.27938 1.6352,-2.12493 0,0.31247 -0.80414,1.66327 -1.45951,2.45172 -1.11096,1.33653 -1.21278,1.14714 -0.17569,-0.32679 z m -35.53405,0.90222 c -1.56522,-0.16455 -5.43155,-0.91219 -6.08492,-1.17665 -0.3902,-0.15795 -0.39054,-0.16224 -0.0132,-0.16959 0.21295,-0.004 0.77746,0.0824 1.25448,0.19231 1.66616,0.38391 4.96373,0.77812 7.93836,0.94899 6.15277,0.35344 13.4523,-0.51712 18.84814,-2.24788 2.43828,-0.7821 6.45185,-2.62849 7.76757,-3.57336 0.48185,-0.34604 0.9265,-0.57874 0.98812,-0.51712 0.17357,0.17357 -2.12135,1.66272 -3.96684,2.57404 -3.49983,1.72826 -7.91386,3.03749 -12.4153,3.68248 -2.49121,0.35695 -11.86321,0.54469 -14.31645,0.28678 z m 3.00064,-1.39215 c -3.30067,-0.15309 -7.63732,-0.78054 -9.87346,-1.42855 -4.55322,-1.31947 -7.48208,-3.56026 -8.53821,-6.53233 -0.44681,-1.2574 0.0306,-2.98795 1.18706,-4.30317 l 0.51068,-0.58077 -0.32745,0.66069 c -0.96239,1.94178 -1.29948,3.84356 -0.83737,4.72416 1.31447,2.5048 5.01491,4.74062 9.84477,5.94824 3.88405,0.97114 6.37785,1.24194 11.47709,1.24631 2.53256,0.002 4.31843,0.0609 3.9686,0.13062 -1.03624,0.20636 -4.50763,0.2695 -7.41171,0.1348 z m -11.16771,-0.49051 c 0.13975,-0.0559 0.30672,-0.049 0.37105,0.0153 0.0643,0.0643 -0.05,0.11008 -0.25409,0.10168 -0.22552,-0.009 -0.27139,-0.0552 -0.11696,-0.11696 z m -1.84017,-0.54178 c -1.73606,-0.66828 -4.33,-2.37762 -4.7761,-3.14735 -0.092,-0.15877 0.43067,0.17163 1.16154,0.73424 0.73086,0.56261 2.2,1.44018 3.26474,1.95017 2.1033,1.00743 2.24236,1.19146 0.34982,0.46294 z m 10.7816,-0.49892 c -4.18978,-0.46084 -8.66273,-1.64386 -11.07335,-2.92871 -1.98713,-1.05913 -3.77399,-2.93917 -3.59757,-3.78517 0.0538,-0.25811 0.19184,-0.15295 0.56908,0.43361 2.06079,3.20428 6.72451,5.0587 14.39222,5.72274 3.20577,0.27763 9.02365,0.13715 12.29296,-0.29684 5.87708,-0.78015 11.75068,-2.60231 14.80962,-4.59437 0.44371,-0.28895 0.39802,-0.2109 -0.19359,0.33071 -2.72442,2.4942 -9.47954,4.48972 -16.74552,4.94677 -4.80871,0.30247 -8.68377,0.36596 -10.45385,0.17126 z m -3.775,-2.12628 c -2.79342,-0.3672 -7.30332,-1.76454 -7.86003,-2.43535 -0.14206,-0.17116 0.39358,-0.0433 1.39483,0.33284 2.72312,1.02313 3.65059,1.2747 6.3684,1.72736 1.43741,0.23941 2.64976,0.46716 2.69413,0.50611 0.12567,0.11034 -1.3138,0.0378 -2.59733,-0.13096 z m 5.64525,-1.17851 c -0.19581,-0.11383 -0.58783,-0.16265 -0.87115,-0.10848 -1.02921,0.19679 -5.4423,-0.7897 -7.96834,-1.78121 -1.78775,-0.70172 -3.67493,-1.72316 -3.80372,-2.05878 -0.15489,-0.40363 0.43986,-1.35437 1.31683,-2.10502 0.44785,-0.38334 0.73326,-0.69667 0.63424,-0.69627 -0.28285,10e-4 -1.48155,0.76271 -2.06754,1.31357 -0.66439,0.62455 -0.69073,0.3307 -0.0484,-0.53993 0.26619,-0.3608 0.48398,-0.68263 0.48398,-0.71518 0,-0.20666 -0.39826,0.0235 -0.91523,0.52894 -0.71246,0.69656 -1.07895,0.42761 -0.498,-0.36546 0.56411,-0.77009 2.54276,-1.73656 4.45495,-2.17603 2.14496,-0.49296 8.91504,-0.71909 11.57431,-0.3866 0.95827,0.11981 2.265,0.25589 2.90385,0.30239 2.3518,0.17121 7.54795,0.96928 9.57469,1.47059 1.66602,0.41207 2.10625,0.34431 0.56119,-0.0864 -2.99132,-0.83385 -4.32504,-1.1392 -7.37575,-1.68869 -4.42683,-0.79735 -5.65511,-0.92224 -9.43898,-0.95973 -2.56493,-0.0254 -3.0226,-0.0681 -2.32308,-0.21649 1.71888,-0.36472 11.20432,0.1763 14.42244,0.82261 0.53238,0.10691 1.82359,0.35946 2.86937,0.56121 2.56584,0.49501 4.0079,0.86662 5.95023,1.53336 2.19833,0.75462 2.67747,0.97449 3.81456,1.75043 1.14511,0.78142 1.68082,1.57864 1.51221,2.25043 -0.15058,0.59994 -0.74976,0.62074 -1.05049,0.0365 l -0.22419,-0.43558 0.1113,0.43698 c 0.13987,0.54911 -0.77436,1.52403 -1.58478,1.68999 -0.30644,0.0627 -0.90081,0.29736 -1.3208,0.52134 -1.50469,0.80247 -2.40238,0.92084 -3.968,0.52325 -2.1233,-0.53922 -4.23824,-0.75169 -7.4825,-0.75169 -3.30395,0 -5.70739,0.34191 -7.53049,1.07126 -1.36639,0.54665 -1.24815,0.52878 -1.71271,0.25871 z m 11.00347,-3.47549 c -1.07408,-0.32615 -7.30218,-0.78735 -8.71154,-0.6451 -1.99653,0.20151 -1.03979,0.42326 2.71026,0.62818 4.33176,0.23671 6.74754,0.24352 6.00128,0.0169 z m -4.25897,-1.34654 c -1.74109,-0.21603 -3.38782,-0.21241 -3.38782,0.007 0,0.11969 0.86831,0.18272 2.27468,0.16513 1.98699,-0.0249 2.12777,-0.0467 1.11314,-0.17258 z m 0.0968,-1.7234 1.25834,-0.14601 -1.9359,-0.0734 c -2.50798,-0.0951 -3.58938,-0.0313 -5.13013,0.30291 -1.23173,0.26716 -1.19693,0.27071 1.64551,0.16773 1.59712,-0.0578 3.4701,-0.1709 4.16218,-0.2512 z m -13.64419,-0.18899 c 0.74318,-0.20412 1.89783,-0.47722 2.56589,-0.60689 0.66806,-0.12967 1.26466,-0.31668 1.32579,-0.41558 0.12872,-0.20828 -0.9558,-0.0523 -2.25006,0.32372 -2.44112,0.70911 -3.09744,0.91912 -3.09744,0.99109 0,0.11042 -0.0395,0.11835 1.45582,-0.29234 z m 34.19297,4.71677 c 0.60115,-0.63328 1.27244,-1.49988 1.49177,-1.92578 0.21932,-0.4259 0.40261,-0.63175 0.40732,-0.45745 0.0138,0.50968 -1.17653,2.10964 -2.12093,2.85089 -0.85839,0.67373 -0.85513,0.66687 0.22184,-0.46766 z m -42.61802,-2.60334 c -0.11397,-0.21295 -0.16365,-0.38718 -0.11042,-0.38718 0.0532,0 0.19004,0.17423 0.30401,0.38718 0.11397,0.21295 0.16365,0.38718 0.11042,0.38718 -0.0532,0 -0.19004,-0.17423 -0.30401,-0.38718 z m 39.78271,-0.65032 c -0.63824,-0.65622 -1.52844,-1.27327 -2.61346,-1.81158 -1.65028,-0.81875 -5.38944,-2.02244 -7.74359,-2.49276 -5.62045,-1.12287 -7.56316,-1.36588 -12.97052,-1.6224 -2.47416,-0.11738 -1.68862,-0.13844 3.48461,-0.0934 6.90538,0.0601 9.20072,0.24056 13.64809,1.07306 2.34698,0.43933 4.46091,1.0909 5.89198,1.81607 1.14848,0.58198 2.26791,1.64798 1.94207,1.84937 -0.16854,0.10416 -0.17207,0.2435 -0.0136,0.5395 0.48641,0.90886 0.2324,1.06735 -0.56134,0.35026 -0.94854,-0.85695 -1.17325,-0.90384 -0.50062,-0.10447 0.27565,0.32759 0.50118,0.80673 0.50118,1.06475 0,0.25801 -0.0218,0.4596 -0.0484,0.44796 -0.0266,-0.0116 -0.48397,-0.46899 -1.01635,-1.01634 z m -39.16062,-2.57426 c 0.84371,-0.89438 2.44762,-1.75318 4.23494,-2.26757 1.91597,-0.55142 6.2686,-1.15197 7.53868,-1.04014 0.835,0.0735 0.82779,0.0774 -0.20641,0.11 -3.17282,0.10014 -8.77961,1.62882 -10.85253,2.95892 -1.09339,0.70157 -1.17788,0.7298 -0.71468,0.23879 z m 42.62685,-0.28933 c -0.72013,-0.81326 -2.13517,-1.5383 -4.51032,-2.31102 -2.50888,-0.81622 -2.402,-0.80089 -12.12002,-1.73878 -5.30056,-0.51155 -9.24299,-0.51156 -13.06731,-10e-6 -0.79856,0.10682 -2.10529,0.239 -2.90385,0.29373 -1.41531,0.097 -1.43236,0.093 -0.67595,-0.16121 0.92148,-0.30962 4.12666,-0.79146 7.3548,-1.10566 4.65372,-0.45295 13.44987,0.0333 17.65243,0.97587 3.95494,0.88701 7.46649,2.56749 8.52603,4.0802 0.35604,0.50832 0.20649,0.48896 -0.25581,-0.0331 z m 2.24467,-1.26798 c -0.47913,-0.48155 -1.43647,-1.25782 -2.12742,-1.72504 -1.35669,-0.91739 -1.38582,-1.1379 -0.0494,-0.37379 1.03065,0.58928 2.65013,1.94497 3.04703,2.55071 0.46353,0.70744 0.0906,0.51379 -0.87024,-0.45188 z m -6.38846,-0.0579 c -0.15971,-0.10321 -0.20327,-0.18766 -0.0968,-0.18766 0.10648,0 0.32427,0.0845 0.48398,0.18766 0.15971,0.10321 0.20327,0.18766 0.0968,0.18766 -0.10647,0 -0.32426,-0.0845 -0.48397,-0.18766 z M 307.6195,323.7024 c 0.12117,-0.19605 1.54641,-0.90587 3.58115,-1.78353 0.37309,-0.16093 0.9829,-0.34925 1.35513,-0.4185 0.37223,-0.0692 -0.15081,0.20865 -1.16231,0.61755 -1.01151,0.40891 -2.30527,0.98256 -2.87502,1.27478 -0.56976,0.29223 -0.97428,0.4316 -0.89895,0.3097 z m 28.26308,-4.83807 -0.77436,-0.13864 0.87116,-0.008 c 0.47913,-0.004 1.08894,0.0616 1.35513,0.14682 0.46848,0.15004 0.46538,0.15474 -0.0968,0.14682 -0.31942,-0.004 -0.92923,-0.0706 -1.35513,-0.14682 z"
         id="path2826" />
      <path
         style="fill:#161618;stroke-width:0.19359"
         d="m 324.55757,356.05657 c -0.15972,-0.0952 -1.59712,-0.39923 -3.19424,-0.67568 -7.52968,-1.30332 -13.21482,-3.8167 -17.10227,-7.56086 -1.7438,-1.67952 -2.29521,-2.56798 -0.64984,-1.04704 5.64355,5.21675 12.74808,7.8038 23.07583,8.40285 7.54289,0.43752 17.62173,-2.167 22.35963,-5.77806 0.4259,-0.3246 1.62092,-1.4209 2.6556,-2.43621 1.03468,-1.01532 1.93014,-1.79713 1.98991,-1.73736 0.0598,0.0598 -0.29238,0.64219 -0.78255,1.29426 -3.02959,4.03025 -9.26889,7.39342 -16.15591,8.70851 -3.01204,0.57516 -11.63848,1.16193 -12.19616,0.82959 z m -12.97052,-2.31771 c -1.74418,-0.63764 -4.16868,-1.83298 -3.89969,-1.92265 0.10591,-0.0353 0.53774,0.11192 0.95963,0.32715 0.42189,0.21523 1.6698,0.75345 2.77312,1.19603 1.10332,0.44258 2.04234,0.83782 2.0867,0.87831 0.22664,0.20684 -0.62568,-0.006 -1.91976,-0.47884 z m 11.15161,-0.83415 c -0.84069,-0.0959 -1.66829,-0.26477 -1.83911,-0.37518 -0.24492,-0.15831 -0.20826,-0.17631 0.1734,-0.0852 1.04102,0.24861 9.06834,0.33924 11.4218,0.12896 1.33093,-0.11892 2.89901,-0.25796 3.48462,-0.30897 l 1.06474,-0.0927 -0.87115,0.19136 c -3.34387,0.73451 -9.5515,0.98484 -13.4343,0.54174 z m 18.93485,-0.5825 c 0.42312,-0.24562 2.67778,-0.95171 2.76392,-0.86557 0.10115,0.10115 -2.45329,1.09257 -2.79939,1.08648 -0.29724,-0.005 -0.29324,-0.0301 0.0355,-0.22091 z m -4.37531,-0.29262 c 0.13974,-0.0559 0.30672,-0.049 0.37105,0.0153 0.0643,0.0643 -0.05,0.11009 -0.25409,0.10168 -0.22552,-0.009 -0.27139,-0.0552 -0.11696,-0.11696 z m -15.06371,-0.55347 c -7.29691,-0.7631 -13.74309,-3.08891 -17.21649,-6.2118 -0.54544,-0.49039 -1.0851,-1.06613 -1.19924,-1.2794 -0.26442,-0.49407 -0.15874,-0.43076 1.91345,1.14634 2.67243,2.03392 4.53301,2.93785 8.30682,4.03575 4.25848,1.2389 6.86188,1.64405 11.77687,1.83277 2.55539,0.0981 5.12529,0.24171 5.7109,0.31909 l 1.06474,0.14068 -0.96794,0.14059 c -1.52885,0.22206 -6.73774,0.15325 -9.38911,-0.12402 z m 13.84167,-1.53545 c 0.10648,-0.0477 1.30025,-0.26335 2.65283,-0.47931 2.77542,-0.44315 5.26164,-1.18796 8.38776,-2.51277 3.96993,-1.68241 6.67111,-3.6381 8.18804,-5.92824 0.73715,-1.11289 0.81357,-0.97963 0.11843,0.20654 -0.52659,0.89856 -2.22331,2.5683 -3.96593,3.90288 -2.36577,1.8118 -6.33721,3.3824 -10.65014,4.21184 -2.21803,0.42656 -5.18494,0.80224 -4.73099,0.59906 z m -15.97116,-3.12971 -0.87116,-0.48176 3.67821,0.10881 c 2.02302,0.0598 3.87422,0.16273 4.11379,0.22863 1.32138,0.36352 -0.44518,0.6588 -3.8234,0.63908 -1.9958,-0.0117 -2.31648,-0.0629 -3.09744,-0.49476 z m -6.19488,-0.35848 c -2.13391,-0.47153 -4.92725,-1.31842 -5.42051,-1.6434 -0.43827,-0.28875 -0.16685,-0.24613 2.29036,0.35972 1.24245,0.30634 2.95592,0.7107 3.80772,0.89858 0.85179,0.18788 1.85362,0.45379 2.22628,0.59092 l 0.67757,0.24932 -0.77436,-0.003 c -0.4259,-0.002 -1.68907,-0.20511 -2.80706,-0.45215 z m 18.87501,-0.48552 c 0.0658,-0.10648 0.48475,-0.18329 0.93098,-0.17069 0.76635,0.0216 0.77914,0.0311 0.23056,0.17069 -0.85893,0.21856 -1.29661,0.21856 -1.16154,0 z m 1.9843,-0.32181 c 0.13309,-0.0537 0.35088,-0.0537 0.48397,0 0.1331,0.0537 0.0242,0.0976 -0.24198,0.0976 -0.26619,0 -0.37508,-0.0439 -0.24199,-0.0976 z m -19.0202,-2.02364 c -0.95827,-0.09 -2.48279,-0.39229 -3.38782,-0.67175 -1.64496,-0.50795 -5.32202,-2.17917 -5.15723,-2.34396 0.048,-0.048 0.94489,0.1744 1.99309,0.49424 1.04819,0.31984 2.82051,0.81824 3.93849,1.10755 1.11799,0.28931 2.59895,0.68224 3.29103,0.8732 0.69209,0.19095 1.4979,0.3522 1.79071,0.35834 0.2928,0.006 0.53237,0.0983 0.53237,0.20475 0,0.21722 -0.48828,0.21358 -3.00064,-0.0224 z m 24.58494,0.0208 c -0.0663,-0.10734 0.2552,-0.35834 0.71454,-0.55779 6.2455,-2.71183 6.59119,-2.88598 9.15951,-4.61426 1.32618,-0.89242 1.43745,-0.93961 0.77436,-0.32844 -1.78359,1.64395 -7.14972,4.74726 -9.37881,5.4239 -1.06004,0.32177 -1.11599,0.32514 -1.2696,0.0766 z m -17.7125,-0.54997 c -0.46901,-0.0978 0.18644,-0.18037 2.12949,-0.26817 3.26608,-0.1476 7.97831,-0.73447 11.4218,-1.42249 4.88777,-0.9766 11.57101,-3.42382 13.4686,-4.93184 0.97603,-0.77566 1.12718,-0.70659 0.21582,0.0986 -0.91115,0.80501 -4.4769,2.58179 -6.81198,3.39435 -2.20324,0.76668 -8.02784,2.22196 -10.93783,2.73282 -2.35126,0.41278 -8.23013,0.65864 -9.4859,0.39672 z m -2.51667,-1.95465 c -0.42474,-0.096 0.69492,-0.16291 3.00064,-0.17937 2.02302,-0.0145 4.88593,-0.11767 6.36203,-0.22939 1.4761,-0.1117 2.72007,-0.16685 2.76437,-0.12255 0.40608,0.40608 -10.55581,0.88634 -12.12704,0.53131 z m -11.27531,-1.64092 c -0.71799,-0.25341 -1.70692,-0.69602 -2.19762,-0.98359 -0.96544,-0.56579 -2.91193,-2.24531 -3.35039,-2.89088 -0.14927,-0.21977 0.11208,-0.0417 0.58077,0.39576 1.24615,1.16306 2.34607,1.84906 4.62716,2.88588 1.11798,0.50816 2.06899,0.95493 2.11335,0.99283 0.23346,0.19942 -0.62099,0.007 -1.77327,-0.4 z m 5.8064,-2.36957 c 0.13309,-0.0537 0.35088,-0.0537 0.48397,0 0.13309,0.0537 0.0242,0.0976 -0.24199,0.0976 -0.26618,0 -0.37508,-0.0439 -0.24198,-0.0976 z m -2.37148,-0.47505 c -1.93117,-0.54463 -4.70074,-1.93674 -5.71496,-2.87258 l -0.86709,-0.8001 0.96794,0.66385 c 1.46935,1.00774 3.62147,2.02807 5.78994,2.74505 2.12549,0.70277 2.00764,0.87956 -0.17583,0.26378 z m 6.67885,-0.23554 c -2.25357,-0.31993 -1.02056,-0.34487 2.71026,-0.0548 l 3.38782,0.26338 -2.32308,-10e-4 c -1.27769,-5.9e-4 -2.97644,-0.094 -3.775,-0.20734 z m 13.43597,-0.43664 c 4.3296,-0.59129 8.39535,-1.60072 11.48872,-2.85237 1.4358,-0.58096 1.57675,-0.51645 0.29039,0.13292 -2.73506,1.38069 -9.91826,3.07272 -12.75338,3.00412 -0.73037,-0.0177 -0.5106,-0.0819 0.97427,-0.28467 z m -32.99465,-1.7736 c -0.11838,-0.39928 -0.18721,-1.2051 -0.15296,-1.79071 l 0.0623,-1.06474 0.30578,1.79071 c 0.30783,1.80274 0.18459,2.41281 -0.21509,1.06474 z m 22.74147,-1.03486 c -0.0736,-0.11901 -0.43966,-0.17422 -0.83418,-0.12579 -0.94489,0.11599 -3.28137,-0.17995 -5.05887,-0.64076 -1.68953,-0.438 -5.03333,-1.72066 -5.03333,-1.93075 0,-0.23127 1.22171,-0.74577 2.24761,-0.94653 0.52064,-0.10188 1.6871,-0.24095 2.59213,-0.30904 1.98226,-0.14913 1.90098,0.10816 -0.18112,0.57333 -0.7917,0.17688 -1.57574,0.40998 -1.74231,0.51801 -0.23041,0.14944 -0.18708,0.16566 0.18112,0.0678 1.67752,-0.44572 9.44082,-0.59985 13.84168,-0.27481 3.71947,0.27472 4.50358,0.46925 2.02914,0.50342 -2.251,0.0311 -4.06184,0.22253 -4.06184,0.42944 0,0.20723 8.30492,-0.0144 8.65535,-0.23098 0.59055,-0.36497 6.45038,0.80839 7.0979,1.42128 0.0931,0.0881 -0.29602,0.29838 -0.8647,0.46726 -0.97232,0.28875 -1.12668,0.28407 -2.58914,-0.0785 -0.85534,-0.21203 -2.33921,-0.47358 -3.29748,-0.5812 -2.5926,-0.29119 -7.70548,-0.24937 -9.19559,0.0752 -1.5164,0.33031 -3.05659,0.85847 -3.20536,1.09917 -0.14726,0.23829 -0.4218,0.22098 -0.58101,-0.0366 z m 17.9185,-2.2444 c -2.62867,-0.70765 -6.1572,-1.36754 -7.55,-1.41196 -0.24587,-0.008 -0.24844,-0.0358 -0.0168,-0.18248 0.15051,-0.0953 1.10878,-0.13771 2.12949,-0.0943 l 1.85584,0.0789 -1.06474,-0.28426 c -0.58561,-0.15634 -2.15369,-0.37619 -3.48462,-0.48857 -1.33093,-0.11237 -2.63766,-0.25946 -2.90385,-0.32685 -0.78753,-0.19939 -6.02437,-0.24634 -6.96923,-0.0625 -0.47914,0.0932 -2.04721,0.2125 -3.48462,0.26504 -2.43556,0.089 -2.56871,0.0759 -1.95601,-0.19287 0.3616,-0.15862 1.92968,-0.41184 3.48462,-0.56271 3.40458,-0.33034 4.69441,-0.35707 4.2791,-0.0887 -0.5284,0.34147 1.67896,0.21634 2.56114,-0.14519 0.71116,-0.29144 1.50016,-0.33879 5.64605,-0.33879 4.2646,0 4.69915,-0.0276 3.77501,-0.23974 -0.57441,-0.13186 -3.30745,-0.33209 -6.07343,-0.44496 -5.40386,-0.22051 -4.83222,-0.26378 -10.65173,0.80615 -2.43341,0.44738 -4.39611,1.00179 -5.45168,1.53996 -0.40054,0.20421 -0.88085,0.37129 -1.06734,0.37129 -0.1865,0 -0.78921,0.17742 -1.33937,0.39427 -1.11743,0.44045 -1.43754,0.38806 -0.67636,-0.11069 0.65025,-0.42605 0.7059,-0.98374 0.0652,-0.65338 -0.23957,0.12352 -0.63124,0.4028 -0.87039,0.62061 -0.23915,0.21781 -0.5005,0.33009 -0.58077,0.24953 -0.22614,-0.22697 0.68339,-0.88174 2.21854,-1.59713 2.38372,-1.11082 10.8602,-2.91874 10.43136,-2.22486 -0.17958,0.29057 3.55789,0.31162 4.53171,0.0255 0.37196,-0.10928 1.56012,-0.28441 2.64037,-0.38919 1.69837,-0.16473 2.2383,-0.13758 3.99105,0.20066 2.17729,0.42018 4.20702,1.02659 4.86531,1.45358 0.22428,0.14547 1.29709,0.48364 2.38404,0.75148 1.08695,0.26784 2.26301,0.63171 2.61346,0.80859 0.94099,0.47494 1.70194,1.25844 1.70194,1.75237 0,0.44725 -0.74167,1.10251 -1.45192,1.28275 -0.21295,0.054 -1.82459,-0.2887 -3.58142,-0.76165 z m -27.2152,-2.50075 c 0.16842,-0.0646 0.30621,-0.1953 0.30621,-0.29038 0,-0.28237 -0.70735,-0.1965 -0.96794,0.1175 -0.19649,0.23675 -0.18591,0.29039 0.0573,0.29039 0.16404,0 0.43606,-0.0529 0.60448,-0.11751 z m 33.01078,1.45 c -0.78992,-1.47598 -3.25765,-2.58791 -10.63532,-4.79212 -1.00266,-0.29957 -1.13484,-0.37963 -0.65056,-0.39406 1.45488,-0.0433 5.90842,1.09326 8.49095,2.16701 1.91529,0.79633 3.36934,1.99538 3.38138,2.78839 0.009,0.59956 -0.31981,0.72899 -0.58645,0.23078 z m 0.71019,-2.07742 -0.36666,-0.51341 0.45271,0.4302 c 0.24898,0.23661 0.41399,0.46765 0.36666,0.51341 -0.0473,0.0458 -0.25104,-0.14782 -0.45271,-0.4302 z m -36.10109,-0.15195 c 0.56389,-0.60055 2.89139,-1.7353 3.94467,-1.9232 0.4259,-0.076 1.34061,-0.40634 2.03269,-0.73416 1.18465,-0.56112 1.4187,-0.60044 3.99665,-0.67139 1.63507,-0.045 2.87926,0.004 3.08815,0.12042 0.27781,0.15547 0.11261,0.22063 -0.80242,0.31649 -3.77065,0.39502 -6.42078,0.75244 -6.70523,0.90434 -0.17933,0.0958 -0.47022,0.17412 -0.64643,0.17412 -0.17621,0 -1.45613,0.51825 -2.84426,1.15167 -2.10905,0.96238 -2.44826,1.07114 -2.06382,0.66171 z m -6.39867,0.0257 c 0,-0.10647 0.1245,-0.41138 0.27667,-0.67756 0.15216,-0.26619 0.27666,-0.39686 0.27666,-0.29039 0,0.10648 -0.1245,0.41138 -0.27666,0.67757 -0.15217,0.26618 -0.27667,0.39686 -0.27667,0.29038 z m 42.81277,-0.75804 c -0.34893,-0.24676 -1.65567,-0.73231 -2.90385,-1.07898 -4.45554,-1.23749 -4.87267,-1.37329 -5.02203,-1.63498 -0.0983,-0.17221 -1.03229,-0.38129 -2.6679,-0.59724 -1.38417,-0.18274 -2.86513,-0.41956 -3.29103,-0.52626 -0.75221,-0.18845 -0.76052,-0.19939 -0.29038,-0.38271 1.07769,-0.42021 6.97352,0.32492 10.37859,1.31167 1.61867,0.46907 4.05541,1.59002 3.86669,1.77875 -0.048,0.048 -0.40386,-0.0172 -0.79079,-0.1449 -1.0158,-0.33525 -1.03647,-0.11321 -0.0436,0.46864 0.47185,0.27652 1.01488,0.67622 1.20674,0.88822 0.44673,0.49363 0.34515,0.47475 -0.44241,-0.0822 z m -38.7611,0.0927 c 0,-0.21823 0.59559,-0.69836 1.32472,-1.06792 1.03162,-0.52286 0.88787,-0.24336 -0.26548,0.51618 -0.58258,0.38366 -1.05924,0.63195 -1.05924,0.55174 z m 2.65999,-1.00245 c 0.0569,-0.2175 -0.005,-0.36492 -0.15301,-0.36492 -1.07333,0 2.25606,-0.90964 3.97336,-1.08558 1.54825,-0.15863 1.63198,0.15854 0.12707,0.48129 -0.51651,0.11077 -1.63745,0.45626 -2.49098,0.76776 -1.42096,0.51859 -1.54382,0.53558 -1.45644,0.20145 z m 18.79258,-1.91569 c -2.49794,-0.41604 -2.87203,-0.54327 -1.65674,-0.56344 1.14139,-0.0189 4.72605,0.50767 5.15282,0.75698 0.49714,0.29042 -1.13169,0.20025 -3.49608,-0.19354 z m 15.13591,-1.5697 c -1.65878,-0.595 -3.37284,-0.89011 -6.00129,-1.03325 -1.33093,-0.0725 -3.24746,-0.26201 -4.25897,-0.42118 -3.75666,-0.59116 -9.68772,-0.57001 -15.10001,0.0539 -1.91321,0.22053 -0.8923,-0.118 1.2747,-0.42269 6.3717,-0.89588 15.16115,-0.63802 20.69775,0.60721 1.47662,0.3321 4.93654,1.41527 4.93654,1.54544 0,0.15455 -0.49027,0.0503 -1.54872,-0.32938 z m -17.1327,-0.12027 c -1.08886,-0.0827 -1.69342,-0.43747 -0.74549,-0.43747 1.36446,0 3.53323,0.26181 3.43849,0.4151 -0.10059,0.16275 -0.77123,0.16833 -2.693,0.0224 z"
         id="path2824" />
    </g>
  </g>
</svg>
