<?xml version="1.0" encoding="UTF-8" standalone="no"?>
<!-- Created with Inkscape (http://www.inkscape.org/) -->

<svg
   width="37.038021mm"
   height="55.330261mm"
   viewBox="0 0 37.038021 55.330263"
   version="1.1"
   id="svg5"
   inkscape:version="1.1.2 (b8e25be833, 2022-02-05)"
   sodipodi:docname="7_X Fit Connector.svg"
   xmlns:inkscape="http://www.inkscape.org/namespaces/inkscape"
   xmlns:sodipodi="http://sodipodi.sourceforge.net/DTD/sodipodi-0.dtd"
   xmlns="http://www.w3.org/2000/svg"
   xmlns:svg="http://www.w3.org/2000/svg">
  <sodipodi:namedview
     id="namedview7"
     pagecolor="#ffffff"
     bordercolor="#eeeeee"
     borderopacity="1"
     inkscape:pageshadow="0"
     inkscape:pageopacity="0"
     inkscape:pagecheckerboard="false"
     inkscape:document-units="mm"
     showgrid="false"
     inkscape:zoom="0.90509668"
     inkscape:cx="173.46213"
     inkscape:cy="45.299028"
     inkscape:window-width="1536"
     inkscape:window-height="801"
     inkscape:window-x="1912"
     inkscape:window-y="-7"
     inkscape:window-maximized="1"
     inkscape:current-layer="layer1" />
  <defs
     id="defs2" />
  <g
     inkscape:label="Ebene 1"
     inkscape:groupmode="layer"
     id="layer1"
     transform="translate(-330.90112,-309.57742)">
    <g
       id="g3040"
       transform="translate(-65.188708,2.9232605)">
      <path
         style="fill:#e8ded3;stroke-width:0.264583"
         d="m 402.17524,361.45476 c -1.38244,-0.2744 -3.13854,-0.6262 -3.90242,-0.78178 -0.76389,-0.15558 -1.56756,-0.46154 -1.78594,-0.67992 -0.34646,-0.34646 -0.39705,-3.11912 -0.39705,-21.75883 0,-16.68936 0.0723,-21.45352 0.33073,-21.78119 0.42434,-0.53811 26.26757,-9.7359 27.35517,-9.7359 1.35157,0 8.94106,1.60988 9.15192,1.9413 0.10765,0.16921 0.19756,10.03683 0.19979,21.92804 0.004,20.94064 -0.0117,21.6288 -0.49656,21.88829 -1.30861,0.70035 -26.61369,9.53646 -27.2338,9.50959 -0.38956,-0.0169 -1.83939,-0.2552 -3.22184,-0.5296 z"
         id="path3054" />
      <path
         style="fill:#d6cfc8;stroke-width:0.264583"
         d="m 401.16531,361.07436 c -2.37447,-0.49615 -4.4283,-0.97074 -4.56406,-1.05465 -0.14948,-0.0924 -0.24684,-8.69134 -0.24684,-21.80037 0,-17.00844 0.0709,-21.70144 0.33073,-21.89801 0.1819,-0.1376 6.31682,-2.369 13.63315,-4.95867 l 13.30243,-4.7085 4.16007,0.8377 c 2.28804,0.46074 4.36912,0.89987 4.62462,0.97585 0.43886,0.1305 0.4608,1.34782 0.39688,22.0141 l -0.0677,21.87595 -13.09688,4.66353 c -7.20328,2.56494 -13.335,4.72915 -13.62604,4.80935 -0.29104,0.0802 -2.47192,-0.26012 -4.84639,-0.75628 z m 3.92035,-21.1364 c 0,-13.55071 -0.0918,-20.81093 -0.26458,-20.9177 -0.17554,-0.10848 -0.26459,6.87642 -0.26459,20.75418 0,13.76874 0.0904,20.9177 0.26459,20.9177 0.17414,0 0.26458,-7.09445 0.26458,-20.75418 z m 7.43525,18.4705 c 3.11389,-1.1105 5.75262,-2.10042 5.86384,-2.19983 0.11123,-0.0994 0.17076,-3.98123 0.1323,-8.62629 l -0.0699,-8.44556 -1.30608,1.66264 c -1.15311,1.4679 -1.40081,1.65336 -2.11483,1.58341 -1.15375,-0.11303 -1.59022,-1.10269 -1.18902,-2.69599 0.18447,-0.7326 0.23551,-2.08679 0.13269,-3.52026 -0.25126,-3.50287 -0.22525,-4.03201 0.23258,-4.73075 0.55548,-0.84777 1.585,-0.8339 3.153,0.0425 l 1.22395,0.68408 v -8.78218 c 0,-7.33148 -0.0599,-8.75918 -0.36283,-8.64294 -0.19956,0.0766 -2.938,1.05828 -6.08542,2.18157 l -5.72258,2.04234 v 20.73319 c 0,11.40326 0.10141,20.7332 0.22536,20.7332 0.12394,0 2.77308,-0.9086 5.88697,-2.0191 z M 401.64608,339.1286 c 0,-18.28565 -0.0475,-20.76979 -0.39688,-20.76979 -0.34941,0 -0.39687,2.48414 -0.39687,20.76979 0,18.28564 0.0475,20.76979 0.39687,20.76979 0.34941,0 0.39688,-2.48415 0.39688,-20.76979 z m -3.70417,-0.79375 c 0,-13.67014 -0.0904,-20.76979 -0.26458,-20.76979 -0.17415,0 -0.26459,7.09965 -0.26459,20.76979 0,13.67014 0.0904,20.76979 0.26459,20.76979 0.17414,0 0.26458,-7.09965 0.26458,-20.76979 z m 27.86148,15.33067 c 3.08457,-1.09974 5.69834,-2.08869 5.80837,-2.19766 0.11004,-0.10898 0.16957,-9.49621 0.13229,-20.86051 l -0.0678,-20.66238 -4.7625,1.69137 c -2.61937,0.93026 -5.26851,1.88072 -5.88698,2.11214 l -1.12447,0.42076 0.0124,8.51093 0.0124,8.51093 0.71518,-0.92604 c 1.83729,-2.37899 2.56121,-2.78418 3.42716,-1.91823 0.40934,0.40934 0.45937,1.01734 0.43154,5.24429 -0.0202,3.06204 -0.14183,4.98746 -0.33837,5.35469 -0.49205,0.91939 -1.43598,0.98928 -2.83099,0.20959 -0.67729,-0.37854 -1.27597,-0.68826 -1.3304,-0.68826 -0.0544,0 -0.099,3.86953 -0.099,8.59896 0,4.72942 0.0659,8.59896 0.14638,8.59896 0.0805,0 2.67012,-0.89979 5.75468,-1.99954 z"
         id="path3052" />
      <path
         style="fill:#cfc2b5;stroke-width:0.264583"
         d="m 404.55649,361.57004 c -2.00702,-0.32881 -6.33523,-1.21144 -7.07453,-1.44267 l -0.85682,-0.26799 -0.0692,-21.47789 c -0.0452,-14.0359 0.0225,-21.58596 0.19536,-21.78979 0.24631,-0.29035 5.45032,-2.20201 20.33465,-7.4698 3.32593,-1.1771 6.37321,-2.14018 6.77174,-2.14018 0.81536,0 8.37917,1.49391 8.76211,1.73059 0.14982,0.0926 0.24713,8.57816 0.24713,21.54946 0,17.82766 -0.0608,21.45757 -0.36471,21.76144 -0.20058,0.20059 -2.73066,1.2123 -5.62239,2.24825 -14.86441,5.32512 -21.02666,7.47557 -21.32834,7.44298 -0.18344,-0.0198 -0.63118,-0.0848 -0.99498,-0.1444 z m 0.72923,-21.79123 c -0.0638,-19.52188 -0.0952,-20.75661 -0.53079,-20.84048 -0.43779,-0.0843 -0.46302,1.04071 -0.46302,20.64712 0,20.64464 0.0525,21.95378 0.84829,21.15798 0.11731,-0.11731 0.1828,-9.55139 0.14552,-20.96462 z m 6.94627,18.92804 c 3.07554,-1.09191 5.82141,-2.10813 6.10194,-2.25827 0.48761,-0.26096 0.51006,-0.65102 0.51006,-8.86262 0,-5.14309 -0.0991,-8.58965 -0.24703,-8.58965 -0.13586,0 -0.80152,0.70578 -1.47924,1.56841 -1.36489,1.73729 -1.77615,1.99776 -2.5231,1.598 -0.69709,-0.37307 -0.89323,-1.36963 -0.54317,-2.75983 0.37452,-1.48738 0.37474,-3.28114 6.3e-4,-5.15316 -0.34952,-1.74894 -0.0514,-2.7803 0.93328,-3.22896 0.55358,-0.25223 0.86365,-0.17547 2.09234,0.51796 0.79335,0.44774 1.51532,0.7412 1.60438,0.65214 0.23506,-0.23508 0.19932,-17.48336 -0.0365,-17.61977 -0.27781,-0.16069 -12.0611,4.08422 -12.29907,4.43072 -0.29456,0.42889 -0.24946,41.69032 0.0456,41.69032 0.13643,0 2.76441,-0.89338 5.83994,-1.98529 z m -10.45362,-19.6003 c 0,-20.70365 -0.004,-20.88004 -0.52917,-20.88004 -0.52409,0 -0.52982,0.19898 -0.59694,20.75318 -0.0692,21.18381 -0.061,21.3833 0.86152,21.09079 0.17345,-0.055 0.26459,-7.27623 0.26459,-20.96393 z m -3.63643,-0.70556 c -0.0595,-18.43193 -0.11574,-20.96823 -0.46461,-20.96823 -0.3488,0 -0.40516,2.49984 -0.46526,20.6375 -0.0376,11.35063 -0.0116,20.78633 0.0578,20.96823 0.0694,0.1819 0.30927,0.33073 0.533,0.33073 0.36312,0 0.3995,-2.25007 0.33903,-20.96823 z m 27.57656,15.50238 c 3.13126,-1.11445 5.84203,-2.14106 6.02393,-2.28136 0.2596,-0.20022 0.33073,-4.715 0.33073,-20.99248 0,-17.85641 -0.0528,-20.73739 -0.38035,-20.73739 -0.48367,0 -11.58928,3.93287 -11.86031,4.20013 -0.11116,0.10962 -0.17069,4.11561 -0.13229,8.9022 l 0.0698,8.70288 1.41185,-1.77448 c 1.02441,-1.28754 1.58282,-1.77448 2.0349,-1.77448 0.34269,0 0.71166,0.14334 0.81993,0.31854 0.10829,0.1752 0.20852,2.52278 0.22274,5.21684 0.0231,4.36772 -0.0252,4.94938 -0.44583,5.37 -0.6381,0.63809 -1.26252,0.59376 -2.62752,-0.18657 -0.63332,-0.36205 -1.24078,-0.6597 -1.34992,-0.66146 -0.10914,-0.002 -0.19844,3.98541 -0.19844,8.86036 0,4.87495 0.0872,8.86354 0.19378,8.86354 0.10658,0 2.75572,-0.91182 5.88698,-2.02627 z"
         id="path3050" />
      <path
         style="fill:#c7b8a9;stroke-width:0.264583"
         d="m 403.76274,361.33762 c -0.94588,-0.20493 -2.72482,-0.56106 -3.95319,-0.79139 -1.22837,-0.23034 -2.44946,-0.53442 -2.71352,-0.67574 -0.45861,-0.24544 -0.47709,-1.22382 -0.41244,-21.8319 l 0.0677,-21.57494 6.61459,-2.37105 c 3.63802,-1.30408 7.26942,-2.5906 8.06979,-2.85892 0.80036,-0.26833 3.83646,-1.34188 6.74687,-2.38568 5.69505,-2.04248 5.38743,-2.00107 8.99584,-1.21076 1.01864,0.22311 2.65575,0.53845 3.63802,0.70078 l 1.78593,0.29513 v 21.67737 21.67737 l -0.93158,0.38924 c -0.51237,0.21408 -3.28057,1.22121 -6.15156,2.23805 -2.87099,1.01685 -5.4581,1.95391 -5.74915,2.08236 -0.74848,0.33034 -13.41018,4.82015 -13.89062,4.92558 -0.21828,0.0479 -1.17078,-0.0806 -2.11667,-0.2855 z m 1.52294,-21.47781 c -0.0637,-19.85102 -0.0951,-21.10218 -0.53075,-21.18607 -0.43783,-0.0843 -0.46302,1.05374 -0.46302,20.92053 0,11.55532 0.0794,21.08905 0.17639,21.18606 0.097,0.097 0.33585,0.17639 0.53075,0.17639 0.2937,0 0.34276,-3.61168 0.28663,-21.09691 z m 10.25102,17.8128 3.175,-1.12273 0.0697,-8.90908 c 0.0383,-4.89999 -0.0296,-8.90908 -0.15096,-8.90908 -0.12135,0 -0.8408,0.77391 -1.59878,1.71979 -0.97978,1.22266 -1.55484,1.7198 -1.98939,1.7198 -0.9133,0 -1.30237,-1.04722 -0.93343,-2.51241 0.17715,-0.70354 0.22677,-2.08264 0.12565,-3.49232 -0.25433,-3.54566 -0.22433,-4.06121 0.26796,-4.60518 0.60992,-0.67396 1.35051,-0.63104 2.62178,0.15196 0.58208,0.35852 1.20716,0.65556 1.38906,0.66011 0.25826,0.006 0.33073,-1.9629 0.33073,-8.98758 0,-5.42131 -0.0986,-8.99583 -0.24806,-8.99583 -0.33019,0 -11.28941,3.89437 -11.94188,4.24356 -0.49706,0.26602 -0.51006,0.80409 -0.51006,21.12165 0,11.46677 0.0715,20.92021 0.15896,21.00763 0.0874,0.0874 1.48641,-0.3195 3.10886,-0.90429 1.62244,-0.58479 4.37864,-1.56849 6.12489,-2.186 z M 402.17524,339.2892 c 0,-22.59938 0.0876,-21.19498 -1.32235,-21.19498 -0.4665,0 -0.48568,0.80268 -0.49424,20.69256 -0.006,14.34743 0.0781,20.79737 0.27478,21.03437 0.15603,0.188 0.56677,0.34182 0.91275,0.34182 h 0.62906 z m 1.05834,0.10398 c 0,-18.55382 -0.0948,-21.8406 -0.58924,-20.43906 -0.0993,0.28147 -0.0752,39.9384 0.0249,40.87812 0.0194,0.1819 0.15427,0.33073 0.29979,0.33073 0.17414,0 0.26459,-7.09965 0.26459,-20.76979 z m -5.08838,19.9099 c 0.176,-0.21712 0.26678,-7.39537 0.26428,-20.89683 -0.004,-21.63228 0.006,-21.44565 -1.12566,-21.01139 -0.35256,0.13529 -0.40024,2.62292 -0.40024,20.87877 0,20.54861 0.0309,21.36018 0.81427,21.36018 0.0986,0 0.2999,-0.14883 0.44735,-0.33073 z m 1.73885,-0.39688 c 0.0727,-0.40018 0.0885,-4.00182 0.0352,-8.00364 -0.0533,-4.00183 -0.0841,-7.81183 -0.0685,-8.46667 0.14324,-6.00193 0.0157,-23.7941 -0.17359,-24.20938 -0.18881,-0.4143 -0.27613,-0.18459 -0.40228,1.05834 -0.12565,1.23809 -0.16027,37.17796 -0.0383,39.75364 0.0396,0.83501 0.48845,0.74328 0.64742,-0.13229 z m 26.61285,-5.12219 c 2.82666,-1.0092 5.2972,-1.9659 5.49011,-2.126 0.50221,-0.4168 0.52192,-41.71773 0.02,-41.90757 -0.43211,-0.16343 -12.16259,4.04338 -12.42479,4.45581 -0.11053,0.17385 -0.20278,4.16459 -0.20501,8.86831 -0.003,7.03622 0.0591,8.53705 0.35222,8.46667 0.19594,-0.0471 0.88055,-0.72891 1.52135,-1.51525 1.61934,-1.98712 1.98899,-2.17484 2.66338,-1.35251 0.44242,0.53946 0.5025,0.84792 0.33499,1.71979 -0.25585,1.33173 -0.26506,4.95262 -0.0161,6.35409 0.20324,1.14434 -0.15058,2.11469 -0.95409,2.61652 -0.36365,0.22712 -0.78431,0.10885 -2.01051,-0.56526 -0.85285,-0.46886 -1.62817,-0.77493 -1.72294,-0.68016 -0.0948,0.0948 -0.17231,4.13113 -0.17231,8.9697 0,9.41608 -0.0194,9.28708 1.32292,8.78044 0.3638,-0.13731 2.97417,-1.07537 5.80082,-2.08458 z m -19.33954,-37.04275 c 1.26166,-0.45308 3.58978,-1.28261 5.1736,-1.84339 2.94564,-1.04296 3.48831,-1.30156 2.73124,-1.30156 -0.41944,0 -10.78342,3.6291 -11.00943,3.85511 -0.3407,0.3407 1.08914,0.0136 3.10459,-0.71016 z m -3.13003,-0.91024 c 1.38244,-0.51574 3.5851,-1.30429 4.89479,-1.75234 2.28675,-0.7823 3.2736,-1.27612 2.55018,-1.27612 -0.32353,0 -10.64078,3.67774 -10.86251,3.87211 -0.42289,0.37071 1.30738,-0.0564 3.41754,-0.84365 z m 18.96977,-4.75603 c 2.70462,-0.95016 5.10903,-1.83951 5.34313,-1.97633 0.38562,-0.22538 0.38373,-0.24952 -0.0202,-0.25681 -0.24519,-0.004 -0.78097,0.12398 -1.19062,0.28533 -0.40966,0.16136 -2.56383,0.93119 -4.78706,1.71075 -2.22322,0.77955 -4.24728,1.53688 -4.49791,1.68295 -1.08093,0.62998 0.53209,0.17735 5.15262,-1.44589 z m -5.14402,-0.13258 c 1.63641,-0.58652 3.5706,-1.29533 4.2982,-1.57514 0.72761,-0.27981 1.65147,-0.58703 2.05302,-0.68271 0.71831,-0.17115 1.27366,-0.6445 0.75615,-0.6445 -0.20905,0 -9.17883,3.11039 -10.87896,3.77243 -0.26783,0.10429 -0.20289,0.16133 0.19972,0.17543 0.32812,0.0115 1.93546,-0.45899 3.57187,-1.04551 z"
         id="path3048" />
      <path
         style="fill:#bbb2a8;stroke-width:0.264583"
         d="m 403.76274,361.33803 c -0.94588,-0.2047 -2.61276,-0.54319 -3.70416,-0.75218 -1.09141,-0.209 -2.3125,-0.50603 -2.71353,-0.66006 l -0.72915,-0.28007 0.0677,-21.59169 0.0677,-21.59169 5.95313,-2.11805 c 3.27422,-1.16492 7.56047,-2.68993 9.525,-3.38889 10.63967,-3.78552 11.42823,-4.0347 12.26409,-3.87549 0.45803,0.0872 1.66622,0.3396 2.68487,0.5608 1.01864,0.22119 2.65575,0.53498 3.63802,0.69731 1.61393,0.26671 1.78593,0.35496 1.78593,0.91632 0,0.45112 -0.11175,0.57831 -0.40819,0.46455 -0.39758,-0.15256 -11.83139,3.70666 -12.49024,4.2158 -0.4399,0.33994 -0.48663,18.01393 -0.0472,17.86747 0.15592,-0.052 0.90515,-0.86492 1.66496,-1.80655 0.75982,-0.94162 1.57723,-1.74974 1.81648,-1.79582 0.24262,-0.0467 0.63903,0.22763 0.89636,0.62037 0.3984,0.60804 0.41874,0.86353 0.149,1.87206 -0.39604,1.48073 -0.40439,4.63764 -0.0145,5.49326 0.43113,0.94624 0.072,2.46505 -0.70283,2.97277 -0.61169,0.40079 -0.7205,0.37983 -2.1156,-0.40751 -0.8089,-0.45652 -1.58472,-0.75959 -1.72403,-0.6735 -0.34672,0.21429 -0.34031,17.76739 0.007,17.98177 0.14292,0.0883 2.31581,-0.57404 4.82865,-1.47193 6.10854,-2.18271 7.13269,-2.59423 7.67764,-3.08498 0.42202,-0.38005 0.46302,-0.37902 0.46302,0.0116 0,0.57547 -0.12542,0.63133 -6.35,2.82831 -2.98318,1.05292 -5.78115,2.06319 -6.21771,2.24505 -1.03216,0.42997 -13.63659,4.90931 -14.15521,5.03045 -0.21828,0.051 -1.17078,-0.0748 -2.11666,-0.27948 z m 1.85209,-21.41568 c 0,-18.00287 -0.0514,-20.74762 -0.39351,-21.03158 -0.21643,-0.17962 -0.57362,-0.25747 -0.79375,-0.17299 -0.35256,0.13529 -0.40024,2.62657 -0.40024,20.91278 0,18.70851 0.042,20.80117 0.4249,21.1841 0.32807,0.32807 0.50897,0.35514 0.79375,0.1188 0.30966,-0.25699 0.36885,-3.6288 0.36885,-21.01111 z m 6.87916,18.91964 c 3.27422,-1.1619 6.10196,-2.31527 6.28386,-2.56302 0.41087,-0.55963 0.48598,-17.81183 0.0775,-17.81183 -0.13925,0 -0.92657,0.83344 -1.7496,1.85208 -1.45307,1.79844 -2.22262,2.23669 -2.6714,1.52136 -0.11412,-0.1819 -0.21939,-2.47386 -0.23393,-5.09323 -0.0214,-3.84833 0.0487,-4.85138 0.36517,-5.22552 0.54023,-0.63874 1.20532,-0.58063 2.58086,0.22549 2.03562,1.19296 1.96208,1.50639 1.96208,-8.36143 0,-7.66769 -0.0508,-8.76734 -0.41125,-8.90567 -0.49023,-0.18812 -12.30638,4.01218 -12.60375,4.48027 -0.25024,0.39389 -0.28744,41.57019 -0.0378,41.81984 0.26373,0.26373 0.0599,0.32509 6.43819,-1.93834 z m -8.99583,-19.36062 c 0,-21.2135 0.007,-21.04069 -0.88775,-20.88003 -0.12445,0.0223 -0.3924,-0.0972 -0.59544,-0.26575 -0.20303,-0.16851 -0.9644,-0.33849 -1.69194,-0.37774 l -1.32279,-0.0714 v 20.87367 20.87367 l 0.59532,0.008 c 0.32742,0.005 0.79929,0.16338 1.04859,0.35278 0.24931,0.1894 0.99345,0.34436 1.65365,0.34436 h 1.20036 z m -5.15938,-1.01786 v -21.03075 h -0.66145 -0.66146 l -0.0678,20.74073 c -0.07,21.42976 -0.0623,21.60059 0.96948,21.40189 0.38101,-0.0734 0.4212,-2.08828 0.4212,-21.11187 z m 19.26161,-0.62029 c 1.21645,-1.48603 1.75015,-1.5441 3.76115,-0.40916 l 1.4512,0.81901 v -4.15335 -4.15335 l -1.47032,1.87914 c -1.27774,1.633 -1.58097,1.87871 -2.3151,1.87594 -0.46463,-0.002 -1.36255,-0.29917 -1.99536,-0.66094 -0.63282,-0.36177 -1.2579,-0.59143 -1.38907,-0.51036 -0.13116,0.0811 -0.23472,1.89653 -0.23012,4.03438 l 0.008,3.88698 0.58695,-0.69006 c 0.32283,-0.37954 1.03936,-1.24274 1.59231,-1.91823 z m -10.6402,-20.83107 c 0.93354,-0.30409 2.05453,-0.70821 2.49109,-0.89802 0.43657,-0.18982 1.92485,-0.72809 3.3073,-1.19615 1.38244,-0.46806 2.6326,-0.96846 2.77812,-1.112 0.55373,-0.54618 -2.17954,-0.002 -4.7625,0.94741 -1.45521,0.53513 -3.56381,1.2713 -4.68579,1.63591 -1.12198,0.36462 -2.11127,0.77832 -2.19843,0.91935 -0.26891,0.43511 1.28491,0.28506 3.07021,-0.2965 z m -2.21147,-1.17801 c 1.42224,-0.51545 3.18121,-1.16004 3.90881,-1.43242 0.72761,-0.27239 1.76941,-0.6338 2.31511,-0.80314 0.5457,-0.16934 0.99219,-0.43023 0.99219,-0.57975 0,-0.47262 -1.8626,-0.0713 -5.02709,1.08302 -1.67349,0.61047 -3.86573,1.40082 -4.87165,1.75632 -2.25769,0.7979 -2.38382,0.91314 -0.99949,0.91314 0.60292,0 2.25988,-0.42173 3.68212,-0.93717 z m 16.21194,-3.82994 c 1.23693,-0.43713 3.49911,-1.22341 5.02708,-1.74729 1.52797,-0.52388 2.89124,-1.05839 3.02948,-1.18781 0.33783,-0.31624 -1.84296,-0.3075 -2.43776,0.01 -0.25268,0.13478 -1.65005,0.65808 -3.10526,1.16287 -1.45521,0.50479 -3.4495,1.19712 -4.43177,1.5385 -0.98227,0.34139 -1.78594,0.71106 -1.78594,0.8215 0,0.41702 1.53309,0.1697 3.70417,-0.59755 z m -3.63305,-0.68631 c 1.05229,-0.38001 3.31224,-1.17449 5.02211,-1.76553 1.70987,-0.59104 3.10886,-1.17309 3.10886,-1.29346 0,-0.4224 -1.58092,-0.21237 -3.36141,0.44656 -0.98888,0.36598 -3.22672,1.15659 -4.97297,1.75692 -1.74625,0.60033 -3.28811,1.19387 -3.42635,1.31897 -0.54534,0.49349 1.81403,0.19224 3.62976,-0.46346 z"
         id="path3046" />
      <path
         style="fill:#b3a698;stroke-width:0.264583"
         d="m 405.35024,361.2654 c 0,-0.37233 0.29785,-0.54389 0.68581,-0.39501 0.20322,0.078 0.30361,0.24837 0.2231,0.37864 -0.18467,0.2988 -0.90891,0.31185 -0.90891,0.0164 z m -2.51354,-0.23276 c -1.09462,-0.26329 -1.01619,-0.60364 0.12413,-0.53865 0.63711,0.0363 1.20471,0.21422 1.2653,0.39659 0.11078,0.33344 -0.38362,0.38399 -1.38943,0.14206 z m -4.03489,-0.79181 c -0.32743,-0.0631 -0.59532,-0.21842 -0.59532,-0.34523 0,-0.40636 0.56541,-0.59597 0.86972,-0.29166 0.16195,0.16195 0.50174,0.29445 0.75508,0.29445 0.25335,0 0.53422,0.11906 0.62416,0.26458 0.16393,0.26525 -0.51482,0.29721 -1.65364,0.0779 z m 20.04218,-3.78202 c 0,-0.14553 0.1786,-0.26459 0.39688,-0.26459 0.21828,0 0.39687,0.11906 0.39687,0.26459 0,0.14552 -0.17859,0.26458 -0.39687,0.26458 -0.21828,0 -0.39688,-0.11906 -0.39688,-0.26458 z m -15.34178,-0.72761 c 0.002,-0.10914 0.11947,-0.37703 0.26053,-0.59531 0.2074,-0.32093 0.25726,-0.28296 0.26053,0.19844 0.002,0.32742 -0.11501,0.59531 -0.26053,0.59531 -0.14552,0 -0.26276,-0.0893 -0.26053,-0.19844 z m 0.1365,-7.28745 c -0.11326,-0.26094 -0.13168,-0.54867 -0.041,-0.63941 0.26869,-0.26868 0.48527,0.10873 0.36161,0.63011 -0.10963,0.46221 -0.12389,0.46263 -0.32066,0.009 z m 0.0358,-4.06758 c -0.27698,-0.27698 -0.2061,-1.41111 0.0882,-1.41111 0.14552,0 0.26459,0.35718 0.26459,0.79375 0,0.82202 -0.0539,0.91627 -0.35278,0.61736 z m 10.65111,-2.77217 c -0.19537,-0.36505 -0.2297,-0.95461 -0.0963,-1.65365 0.2591,-1.35763 0.25344,-5.03552 -0.01,-6.17618 -0.27382,-1.18786 0.0249,-2.15137 0.77254,-2.49203 0.53179,-0.2423 0.86112,-0.15659 2.08169,0.54175 1.41289,0.80837 1.46968,0.81826 2.22136,0.38685 0.42427,-0.24349 1.29993,-1.14726 1.94591,-2.00838 1.31032,-1.74669 1.79694,-2.11262 2.37744,-1.78776 0.3301,0.18473 0.39277,1.04578 0.37891,5.2055 -0.009,2.74128 -0.10793,5.13189 -0.21954,5.31247 -0.31158,0.50415 -1.11699,0.39451 -2.59174,-0.35281 -1.6762,-0.84939 -2.36171,-0.63683 -3.73511,1.15815 -1.97392,2.57985 -2.55728,2.92812 -3.12566,1.86609 z m 3.27473,-3.76078 c 1.21645,-1.48603 1.75015,-1.5441 3.76115,-0.40916 l 1.4512,0.81901 v -4.15335 -4.15335 l -1.47032,1.87914 c -1.27774,1.633 -1.58097,1.87871 -2.3151,1.87594 -0.46463,-0.002 -1.36255,-0.29917 -1.99536,-0.66094 -0.63282,-0.36177 -1.2579,-0.59143 -1.38907,-0.51036 -0.13116,0.0811 -0.23472,1.89653 -0.23012,4.03438 l 0.008,3.88698 0.58695,-0.69006 c 0.32283,-0.37954 1.03936,-1.24274 1.59231,-1.91823 z m -13.96168,0.0172 c -0.11326,-0.26094 -0.13168,-0.54867 -0.041,-0.63941 0.26869,-0.26868 0.48527,0.10873 0.36161,0.63011 -0.10963,0.46222 -0.12389,0.46263 -0.32066,0.009 z m -0.14055,-5.85996 c 0,-0.20969 0.11906,-0.45484 0.26458,-0.54478 0.14552,-0.0899 0.26459,0.0816 0.26459,0.38126 0,0.29963 -0.11907,0.54478 -0.26459,0.54478 -0.14552,0 -0.26458,-0.17156 -0.26458,-0.38126 z m 0.14055,-7.10463 c -0.11326,-0.26093 -0.13168,-0.54867 -0.041,-0.63941 0.26869,-0.26868 0.48527,0.10873 0.36161,0.63012 -0.10963,0.46221 -0.12389,0.46262 -0.32066,0.009 z m -0.14055,-4.81723 c 0,-0.3638 0.11906,-0.66146 0.26458,-0.66146 0.14552,0 0.26459,0.29766 0.26459,0.66146 0,0.3638 -0.11907,0.66146 -0.26459,0.66146 -0.14552,0 -0.26458,-0.29766 -0.26458,-0.66146 z m 1.977,-1.20255 c -0.11709,-0.18946 -0.53902,-0.2547 -1.07975,-0.16695 -0.48815,0.0792 -0.95629,0.0328 -1.04031,-0.10313 -0.084,-0.13594 -0.43636,-0.24716 -0.78298,-0.24716 -0.34663,0 -0.70345,-0.11847 -0.79293,-0.26326 -0.0895,-0.1448 -0.60253,-0.25801 -1.1401,-0.2516 -1.83545,0.0219 -2.11219,-0.0251 -2.43486,-0.41391 -0.2031,-0.24472 -0.55701,-0.33027 -0.95405,-0.23062 -0.34715,0.0871 -0.63119,0.0503 -0.63119,-0.0819 0,-0.36265 0.58701,-0.87535 1.00222,-0.87535 0.37327,0 11.83148,-4.02816 12.68607,-4.45982 0.2568,-0.12972 1.41942,-0.53714 2.58359,-0.90538 1.16416,-0.36824 3.66448,-1.23147 5.55625,-1.91829 5.29553,-1.92259 5.04633,-1.88051 7.92594,-1.33815 1.39092,0.26197 2.59464,0.58261 2.67493,0.71252 0.23353,0.37786 -2.62466,0.27236 -3.19981,-0.11811 -0.53465,-0.36297 -2.22255,-0.39688 -3.16773,-0.0636 -0.29104,0.10262 -1.12678,0.41722 -1.8572,0.69913 -0.73041,0.28191 -1.4793,0.51256 -1.66418,0.51256 -0.18489,0 -0.80292,0.23813 -1.37341,0.52917 -0.57049,0.29104 -1.21612,0.52917 -1.43474,0.52917 -0.21862,0 -1.06251,0.24881 -1.87531,0.55292 -1.21498,0.45458 -1.42274,0.61928 -1.16815,0.92604 0.19365,0.23334 0.82374,0.37312 1.6819,0.37312 0.77748,0 1.59485,0.16462 1.88583,0.37982 0.77589,0.57379 3.06088,0.24684 5.60992,-0.80271 1.20225,-0.49501 2.33335,-0.90182 2.51354,-0.90402 0.1802,-0.002 1.28303,-0.38915 2.45073,-0.8599 1.70941,-0.68913 2.10411,-0.95162 2.02568,-1.34716 -0.0888,-0.44776 0.0278,-0.47437 1.31649,-0.30048 1.64619,0.22213 1.81077,0.29551 1.81077,0.80736 0,0.24098 -0.27198,0.38126 -0.73924,0.38126 -0.92031,0 -11.62528,3.82257 -12.22507,4.36538 -0.24135,0.21841 -0.74942,0.39712 -1.12906,0.39712 -0.89346,0 -11.82658,3.8784 -12.40259,4.39968 -0.32434,0.29352 -0.4892,0.31606 -0.6312,0.0863 z m 1.34085,-1.45462 c 0.86732,-0.22452 2.09037,-0.65545 2.7179,-0.95763 0.62753,-0.30217 1.5205,-0.64621 1.98438,-0.76453 0.46387,-0.11832 1.76281,-0.5399 2.88653,-0.93685 1.80037,-0.63599 1.98898,-0.76285 1.58749,-1.0678 -0.25058,-0.19034 -0.94386,-0.34985 -1.54061,-0.35448 -0.59674,-0.005 -1.48401,-0.14751 -1.97169,-0.31752 -1.54187,-0.5375 -3.57019,-0.27397 -5.45411,0.70862 -0.41229,0.21503 -0.99101,0.39171 -1.28606,0.3926 -0.29504,9e-4 -0.77129,0.16082 -1.05833,0.35538 -0.28704,0.19457 -1.57273,0.67748 -2.8571,1.07315 -1.96661,0.60585 -2.28516,0.7797 -2.01812,1.10146 0.2018,0.24316 0.81598,0.38206 1.68932,0.38206 0.79697,0 1.58755,0.16285 1.88583,0.38846 0.66311,0.50155 1.48849,0.50085 3.43457,-0.003 z m 0.25402,-1.97304 c -0.0899,-0.14552 -0.0374,-0.26458 0.11668,-0.26458 0.15411,0 0.2802,0.11906 0.2802,0.26458 0,0.14552 -0.0525,0.26458 -0.11668,0.26458 -0.0642,0 -0.19026,-0.11906 -0.2802,-0.26458 z m 16.27188,-5.83645 c 0,-0.15411 0.11906,-0.20661 0.26458,-0.11668 0.14552,0.0899 0.26459,0.21603 0.26459,0.2802 0,0.0642 -0.11907,0.11668 -0.26459,0.11668 -0.14552,0 -0.26458,-0.12609 -0.26458,-0.2802 z"
         id="path3044" />
      <path
         style="fill:#958879;stroke-width:0.264583"
         d="m 414.34725,341.37975 c -0.32833,-0.61349 -0.0127,-2.15911 0.474,-2.32135 0.2137,-0.0712 0.31858,0.24946 0.31858,0.97419 0,0.59421 0.11809,1.08038 0.26242,1.08038 0.14434,0 0.94801,-0.88503 1.78594,-1.96673 0.92088,-1.18879 1.72436,-1.97371 2.03128,-1.98438 0.27928,-0.01 1.1364,0.33713 1.90471,0.77074 1.26218,0.71233 1.43651,0.74879 1.80733,0.37798 0.23152,-0.23153 0.4104,-0.86345 0.4104,-1.44984 0,-1.05334 0.33946,-1.38625 0.63315,-0.62092 0.40671,1.05987 0.10023,2.36399 -0.6499,2.76545 -0.36946,0.19773 -0.80215,0.0711 -1.8326,-0.53652 -0.74191,-0.43745 -1.49253,-0.79492 -1.66802,-0.79437 -0.69743,0.002 -1.96584,1.06637 -3.09721,2.59859 -1.24453,1.68547 -1.9058,1.99297 -2.38008,1.10678 z m 0.11065,-6.91447 c -0.30554,-0.49439 -0.20668,-2.31192 0.14908,-2.74058 0.47635,-0.57397 0.95106,-0.50318 2.48501,0.37057 1.32207,0.75306 1.37555,0.76113 2.19239,0.33073 0.46049,-0.24263 1.45442,-1.21506 2.20873,-2.16094 0.75431,-0.94589 1.56529,-1.7198 1.8022,-1.7198 0.55038,0 0.96847,1.17329 0.74102,2.07952 -0.25412,1.01249 -0.6494,0.85664 -0.74459,-0.29358 -0.0452,-0.5457 -0.22023,-0.99219 -0.38902,-0.99219 -0.16879,0 -1.03446,0.92274 -1.92371,2.05053 -0.88924,1.12778 -1.71226,2.05052 -1.82893,2.05052 -0.11666,0 -0.89221,-0.36836 -1.72343,-0.81856 -1.92356,-1.04185 -2.28682,-0.91314 -2.28682,0.81025 0,1.26391 -0.27859,1.68614 -0.68193,1.03353 z m -8.98842,-15.86301 c -0.10004,-0.16188 -0.53023,-0.2432 -0.95597,-0.18072 -0.42574,0.0625 -0.83538,0.0144 -0.91032,-0.10686 -0.0749,-0.12126 0.39952,-0.22047 1.05436,-0.22047 1.14486,0 1.76774,0.32409 1.24446,0.6475 -0.13784,0.0852 -0.33248,0.0224 -0.43253,-0.13945 z m -3.55882,-0.77263 c 0,-0.14552 0.29766,-0.26458 0.66146,-0.26458 0.3638,0 0.66146,0.11906 0.66146,0.26458 0,0.14552 -0.29766,0.26458 -0.66146,0.26458 -0.3638,0 -0.66146,-0.11906 -0.66146,-0.26458 z m -1.73514,-0.28942 c -0.0815,-0.13186 0.15651,-0.23975 0.5289,-0.23975 0.81069,0 0.87618,0.1508 0.14817,0.34118 -0.2909,0.0761 -0.59558,0.0304 -0.67707,-0.10143 z m -1.78757,-0.33933 c -0.0888,-0.23128 -0.38875,-0.31658 -0.82206,-0.23374 -0.43427,0.083 -0.68231,0.0121 -0.68231,-0.19504 0,-0.23815 0.33718,-0.27528 1.25677,-0.13839 1.42252,0.21176 1.51022,0.25667 1.26765,0.64915 -0.24666,0.3991 -0.85418,0.35027 -1.02005,-0.082 z m 18.33938,-3.62001 c -0.50933,-0.26803 -1.2237,-0.47405 -1.5875,-0.45784 -0.36381,0.0162 -1.37584,-0.11896 -2.24896,-0.30041 -0.87313,-0.18145 -1.88501,-0.38896 -2.24864,-0.46113 -0.61817,-0.1227 -0.63006,-0.15396 -0.1829,-0.48093 0.49543,-0.36227 2.13317,-0.10747 2.68289,0.41741 0.13825,0.132 0.62534,0.23999 1.08243,0.23999 0.45709,0 1.37948,0.16505 2.04976,0.36677 0.67027,0.20173 1.276,0.30946 1.34605,0.23941 0.26642,-0.26643 1.7527,0.24701 1.7527,0.60547 0,0.53168 -1.49616,0.43626 -2.64583,-0.16874 z m 14.28749,-4.48249 c 0,-0.14552 0.29766,-0.26458 0.66146,-0.26458 0.36381,0 0.66146,0.11906 0.66146,0.26458 0,0.14552 -0.29765,0.26458 -0.66146,0.26458 -0.3638,0 -0.66146,-0.11906 -0.66146,-0.26458 z"
         id="path3042" />
    </g>
  </g>
</svg>
